<svg width="269" height="269" viewBox="0 0 269 269" fill="none" xmlns="http://www.w3.org/2000/svg">
<g filter="url(#filter0_dd_301_18025)">
<circle cx="134.151" cy="134.151" r="99.1507" fill="url(#paint0_radial_301_18025)"/>
</g>
<circle cx="88.5" cy="68.5" r="3.5" fill="#D2A1FF" fill-opacity="0.65"/>
<circle cx="81.5" cy="102.5" r="3.5" fill="#D2A1FF" fill-opacity="0.65"/>
<circle cx="201.5" cy="83.5" r="3.5" fill="#D2A1FF" fill-opacity="0.65"/>
<circle cx="208.5" cy="171.5" r="3.5" fill="#D2A1FF" fill-opacity="0.65"/>
<circle cx="75.5" cy="114.5" r="6.5" fill="#D2A1FF" fill-opacity="0.65"/>
<circle opacity="0.65" cx="94.5422" cy="76.5423" r="10.5" transform="rotate(-33.3278 94.5422 76.5423)" fill="url(#paint1_linear_301_18025)" fill-opacity="0.65"/>
<circle opacity="0.65" cx="54.5422" cy="120.542" r="10.5" transform="rotate(-33.3278 54.5422 120.542)" fill="url(#paint2_linear_301_18025)" fill-opacity="0.65"/>
<circle opacity="0.65" cx="194.542" cy="89.5423" r="10.5" transform="rotate(-33.3278 194.542 89.5423)" fill="url(#paint3_linear_301_18025)" fill-opacity="0.65"/>
<circle opacity="0.65" cx="109.13" cy="60.1304" r="15.257" transform="rotate(-33.3278 109.13 60.1304)" fill="url(#paint4_linear_301_18025)" fill-opacity="0.65"/>
<circle opacity="0.65" cx="81.1305" cy="168.13" r="15.257" transform="rotate(-33.3278 81.1305 168.13)" fill="url(#paint5_linear_301_18025)" fill-opacity="0.65"/>
<circle opacity="0.65" cx="50.4923" cy="153.492" r="3.2436" transform="rotate(-33.3278 50.4923 153.492)" fill="url(#paint6_linear_301_18025)" fill-opacity="0.65"/>
<circle opacity="0.65" cx="152.492" cy="84.4922" r="3.2436" transform="rotate(-33.3278 152.492 84.4922)" fill="url(#paint7_linear_301_18025)" fill-opacity="0.65"/>
<circle cx="65.5" cy="87.5" r="6.5" fill="#D2A1FF" fill-opacity="0.65"/>
<circle cx="65.5" cy="164.5" r="6.5" fill="#D2A1FF" fill-opacity="0.65"/>
<circle cx="138.5" cy="74.5" r="6.5" fill="#D2A1FF" fill-opacity="0.65"/>
<circle cx="163.5" cy="63.5" r="6.5" fill="#D2A1FF" fill-opacity="0.65"/>
<g filter="url(#filter1_f_301_18025)">
<path d="M49 118C57.7466 112.719 67.8712 152.688 80.4314 173.491C92.9916 194.294 129.747 217.719 121 223C112.253 228.281 73.3021 206.182 60.7419 185.379C48.1817 164.576 40.2534 123.281 49 118Z" fill="url(#paint8_radial_301_18025)"/>
</g>
<g filter="url(#filter2_f_301_18025)">
<path d="M88.4118 195.516C86.6025 180.847 131.276 192.815 157.487 189.582C183.698 186.35 230.271 147.088 232.08 161.757C233.89 176.427 204.58 214.052 161.56 222.604C125.58 229.757 90.2211 210.186 88.4118 195.516Z" fill="url(#paint9_radial_301_18025)"/>
</g>
<g filter="url(#filter3_f_301_18025)">
<path d="M183 65.5C183 75.7173 163.301 70 139 70C114.699 70 95 75.7173 95 65.5C95 55.2827 114.699 47 139 47C163.301 47 183 55.2827 183 65.5Z" fill="url(#paint10_linear_301_18025)"/>
</g>
<circle cx="134" cy="134" r="83.5" stroke="url(#paint11_linear_301_18025)" stroke-width="15"/>
<path d="M143.482 152.063C124.794 168.21 105.398 179.421 89.38 184.671C81.3544 187.302 74.5422 188.316 69.2749 187.964C64.0455 187.614 60.9459 185.989 59.1735 183.937C57.4011 181.886 56.2432 178.583 56.6563 173.358C57.0724 168.096 59.0645 161.503 62.8323 153.944C70.3523 138.858 84.2606 121.295 102.949 105.148C121.637 89.0022 141.033 77.7909 157.051 72.5405C165.077 69.9099 171.889 68.896 177.156 69.2483C182.386 69.598 185.485 71.2231 187.258 73.2745C189.03 75.3258 190.188 78.6286 189.775 83.8533C189.359 89.116 187.367 95.7089 183.599 103.268C176.079 118.354 162.171 135.917 143.482 152.063Z" stroke="url(#paint12_linear_301_18025)" stroke-width="15"/>
<path d="M157.113 140.729C148.628 164.452 136.964 184.379 125.062 197.433C119.107 203.964 113.178 208.68 107.654 211.335C102.142 213.984 97.2178 214.502 93.0301 213.005C88.8424 211.507 85.3644 207.983 82.7822 202.439C80.1946 196.883 78.6014 189.477 78.139 180.651C77.2149 163.009 80.834 140.205 89.3183 116.483C97.8027 92.7603 109.467 72.833 121.369 59.7791C127.324 53.2478 133.253 48.5321 138.777 45.8774C144.29 43.2281 149.213 42.7095 153.401 44.2073C157.589 45.705 161.067 49.2285 163.649 54.7729C166.237 60.3288 167.83 67.7347 168.292 76.5612C169.216 94.2027 165.597 117.007 157.113 140.729Z" stroke="url(#paint13_linear_301_18025)" stroke-width="5"/>
<path d="M213.507 160.899C196.474 208.523 152.749 235.956 116.115 222.854C79.4819 209.752 63.0719 160.811 80.1047 113.187C97.1374 65.5634 140.863 38.1298 177.496 51.2319C214.13 64.334 230.54 113.275 213.507 160.899Z" stroke="url(#paint14_linear_301_18025)" stroke-width="2"/>
<path d="M90.7116 81.3417C131.909 52.001 183.469 54.4848 206.038 86.1752C228.608 117.866 214.098 167.403 172.9 196.744C131.702 226.085 80.143 223.601 57.5733 191.911C35.0037 160.22 49.5139 110.682 90.7116 81.3417Z" stroke="url(#paint15_linear_301_18025)" stroke-width="2"/>
<path d="M97.812 128.973C103.538 104.31 113.777 83.2068 125.654 69.0196C137.571 54.7841 150.916 47.7446 162.909 50.5289C174.901 53.3133 183.779 65.5128 188.205 83.5429C192.615 101.512 192.508 124.968 186.782 149.63C181.055 174.293 170.817 195.397 158.94 209.584C147.022 223.819 133.677 230.859 121.685 228.075C109.693 225.29 100.815 213.091 96.3891 195.061C91.9782 177.092 92.0857 153.636 97.812 128.973Z" stroke="url(#paint16_linear_301_18025)" stroke-width="2"/>
<defs>
<filter id="filter0_dd_301_18025" x="0" y="0" width="268.301" height="268.301" filterUnits="userSpaceOnUse" color-interpolation-filters="sRGB">
<feFlood flood-opacity="0" result="BackgroundImageFix"/>
<feColorMatrix in="SourceAlpha" type="matrix" values="0 0 0 0 0 0 0 0 0 0 0 0 0 0 0 0 0 0 127 0" result="hardAlpha"/>
<feOffset/>
<feGaussianBlur stdDeviation="17.5"/>
<feComposite in2="hardAlpha" operator="out"/>
<feColorMatrix type="matrix" values="0 0 0 0 0.443137 0 0 0 0 0 0 0 0 0 0.827451 0 0 0 1 0"/>
<feBlend mode="normal" in2="BackgroundImageFix" result="effect1_dropShadow_301_18025"/>
<feColorMatrix in="SourceAlpha" type="matrix" values="0 0 0 0 0 0 0 0 0 0 0 0 0 0 0 0 0 0 127 0" result="hardAlpha"/>
<feOffset/>
<feGaussianBlur stdDeviation="7.5"/>
<feComposite in2="hardAlpha" operator="out"/>
<feColorMatrix type="matrix" values="0 0 0 0 1 0 0 0 0 0.863628 0 0 0 0 0.778395 0 0 0 0.5 0"/>
<feBlend mode="normal" in2="effect1_dropShadow_301_18025" result="effect2_dropShadow_301_18025"/>
<feBlend mode="normal" in="SourceGraphic" in2="effect2_dropShadow_301_18025" result="shape"/>
</filter>
<filter id="filter1_f_301_18025" x="23.3032" y="95.5242" width="121.028" height="150.268" filterUnits="userSpaceOnUse" color-interpolation-filters="sRGB">
<feFlood flood-opacity="0" result="BackgroundImageFix"/>
<feBlend mode="normal" in="SourceGraphic" in2="BackgroundImageFix" result="shape"/>
<feGaussianBlur stdDeviation="11" result="effect1_foregroundBlur_301_18025"/>
</filter>
<filter id="filter2_f_301_18025" x="66.3584" y="136.488" width="187.801" height="109.639" filterUnits="userSpaceOnUse" color-interpolation-filters="sRGB">
<feFlood flood-opacity="0" result="BackgroundImageFix"/>
<feBlend mode="normal" in="SourceGraphic" in2="BackgroundImageFix" result="shape"/>
<feGaussianBlur stdDeviation="11" result="effect1_foregroundBlur_301_18025"/>
</filter>
<filter id="filter3_f_301_18025" x="73" y="25" width="132" height="68.5945" filterUnits="userSpaceOnUse" color-interpolation-filters="sRGB">
<feFlood flood-opacity="0" result="BackgroundImageFix"/>
<feBlend mode="normal" in="SourceGraphic" in2="BackgroundImageFix" result="shape"/>
<feGaussianBlur stdDeviation="11" result="effect1_foregroundBlur_301_18025"/>
</filter>
<radialGradient id="paint0_radial_301_18025" cx="0" cy="0" r="1" gradientUnits="userSpaceOnUse" gradientTransform="translate(134.15 170) rotate(90) scale(140 154.444)">
<stop offset="0.326923" stop-color="#3F0060"/>
<stop offset="0.490385" stop-color="#6F0388"/>
<stop offset="0.677885" stop-color="#7100D3"/>
<stop offset="0.980769" stop-color="#FFE8D9"/>
</radialGradient>
<linearGradient id="paint1_linear_301_18025" x1="94.5422" y1="66.0423" x2="94.5422" y2="87.0423" gradientUnits="userSpaceOnUse">
<stop stop-color="#D2A1FF"/>
<stop offset="1" stop-color="#D2A1FF" stop-opacity="0"/>
</linearGradient>
<linearGradient id="paint2_linear_301_18025" x1="54.5422" y1="110.042" x2="54.5422" y2="131.042" gradientUnits="userSpaceOnUse">
<stop stop-color="#D2A1FF"/>
<stop offset="1" stop-color="#D2A1FF" stop-opacity="0"/>
</linearGradient>
<linearGradient id="paint3_linear_301_18025" x1="194.542" y1="79.0423" x2="194.542" y2="100.042" gradientUnits="userSpaceOnUse">
<stop stop-color="#D2A1FF"/>
<stop offset="1" stop-color="#D2A1FF" stop-opacity="0"/>
</linearGradient>
<linearGradient id="paint4_linear_301_18025" x1="109.13" y1="44.8734" x2="109.13" y2="75.3874" gradientUnits="userSpaceOnUse">
<stop stop-color="#D2A1FF"/>
<stop offset="1" stop-color="#D2A1FF" stop-opacity="0"/>
</linearGradient>
<linearGradient id="paint5_linear_301_18025" x1="81.1305" y1="152.873" x2="81.1305" y2="183.387" gradientUnits="userSpaceOnUse">
<stop stop-color="#D2A1FF"/>
<stop offset="1" stop-color="#D2A1FF" stop-opacity="0"/>
</linearGradient>
<linearGradient id="paint6_linear_301_18025" x1="50.4923" y1="150.249" x2="50.4923" y2="156.736" gradientUnits="userSpaceOnUse">
<stop stop-color="#D2A1FF"/>
<stop offset="1" stop-color="#D2A1FF" stop-opacity="0"/>
</linearGradient>
<linearGradient id="paint7_linear_301_18025" x1="152.492" y1="81.2486" x2="152.492" y2="87.7358" gradientUnits="userSpaceOnUse">
<stop stop-color="#D2A1FF"/>
<stop offset="1" stop-color="#D2A1FF" stop-opacity="0"/>
</linearGradient>
<radialGradient id="paint8_radial_301_18025" cx="0" cy="0" r="1" gradientUnits="userSpaceOnUse" gradientTransform="translate(61.5 184) rotate(-33.8714) scale(35.6795 105.834)">
<stop stop-color="#5378FF"/>
<stop offset="1" stop-color="#5378FF" stop-opacity="0"/>
</radialGradient>
<radialGradient id="paint9_radial_301_18025" cx="0" cy="0" r="1" gradientUnits="userSpaceOnUse" gradientTransform="translate(160.469 220.754) rotate(-103.506) scale(50.9047 129.874)">
<stop stop-color="#FF8CFD"/>
<stop offset="1" stop-color="#FF53D7" stop-opacity="0"/>
</radialGradient>
<linearGradient id="paint10_linear_301_18025" x1="139" y1="39" x2="141.5" y2="84" gradientUnits="userSpaceOnUse">
<stop stop-color="white"/>
<stop offset="1" stop-color="#EE1ED9" stop-opacity="0"/>
</linearGradient>
<linearGradient id="paint11_linear_301_18025" x1="3.45833" y1="-91.3333" x2="134" y2="225" gradientUnits="userSpaceOnUse">
<stop stop-color="white"/>
<stop offset="0.293269" stop-color="white" stop-opacity="0.53491"/>
<stop offset="0.519231" stop-color="white" stop-opacity="0.283654"/>
<stop offset="0.706731" stop-color="white" stop-opacity="0.102115"/>
<stop offset="0.802885" stop-color="white" stop-opacity="0.0485467"/>
<stop offset="1" stop-color="white" stop-opacity="0"/>
</linearGradient>
<linearGradient id="paint12_linear_301_18025" x1="259.742" y1="-62.3382" x2="238.669" y2="203.518" gradientUnits="userSpaceOnUse">
<stop stop-color="white"/>
<stop offset="0.293269" stop-color="white" stop-opacity="0.53491"/>
<stop offset="0.519231" stop-color="white" stop-opacity="0.283654"/>
<stop offset="0.706731" stop-color="white" stop-opacity="0.102115"/>
<stop offset="0.802885" stop-color="white" stop-opacity="0.0485467"/>
<stop offset="1" stop-color="white" stop-opacity="0"/>
</linearGradient>
<linearGradient id="paint13_linear_301_18025" x1="148.042" y1="-104.809" x2="260.589" y2="136.969" gradientUnits="userSpaceOnUse">
<stop stop-color="white"/>
<stop offset="0.293269" stop-color="white" stop-opacity="0.53491"/>
<stop offset="0.519231" stop-color="white" stop-opacity="0.283654"/>
<stop offset="0.706731" stop-color="white" stop-opacity="0.102115"/>
<stop offset="0.802885" stop-color="white" stop-opacity="0.0485467"/>
<stop offset="1" stop-color="white" stop-opacity="0"/>
</linearGradient>
<linearGradient id="paint14_linear_301_18025" x1="126.6" y1="-112.478" x2="173.911" y2="215.408" gradientUnits="userSpaceOnUse">
<stop stop-color="white"/>
<stop offset="0.293269" stop-color="white" stop-opacity="0.53491"/>
<stop offset="0.519231" stop-color="white" stop-opacity="0.283654"/>
<stop offset="0.706731" stop-color="white" stop-opacity="0.102115"/>
<stop offset="0.802885" stop-color="white" stop-opacity="0.0485467"/>
<stop offset="1" stop-color="white" stop-opacity="0"/>
</linearGradient>
<linearGradient id="paint15_linear_301_18025" x1="5.75786" y1="355.332" x2="154.359" y2="59.2489" gradientUnits="userSpaceOnUse">
<stop stop-color="white"/>
<stop offset="0.293269" stop-color="white" stop-opacity="0.53491"/>
<stop offset="0.519231" stop-color="white" stop-opacity="0.283654"/>
<stop offset="0.706731" stop-color="white" stop-opacity="0.102115"/>
<stop offset="0.802885" stop-color="white" stop-opacity="0.0485467"/>
<stop offset="1" stop-color="white" stop-opacity="0"/>
</linearGradient>
<linearGradient id="paint16_linear_301_18025" x1="155.91" y1="376.673" x2="28.0764" y2="115.715" gradientUnits="userSpaceOnUse">
<stop stop-color="white"/>
<stop offset="0.293269" stop-color="white" stop-opacity="0.53491"/>
<stop offset="0.519231" stop-color="white" stop-opacity="0.283654"/>
<stop offset="0.706731" stop-color="white" stop-opacity="0.102115"/>
<stop offset="0.802885" stop-color="white" stop-opacity="0.0485467"/>
<stop offset="1" stop-color="white" stop-opacity="0"/>
</linearGradient>
</defs>
</svg>
