<svg width="498" height="903" viewBox="0 0 498 903" fill="none" xmlns="http://www.w3.org/2000/svg">
  <rect y="249" width="498" height="654" fill="url(#paint0_linear_162_6534)" />
  <path d="M498 249C498 180.233 473.683 121.533 425.05 72.9C376.45 24.3 317.767 0 249 0C180.233 0 121.533 24.3 72.9 72.9C24.3 121.533 0 180.233 0 249C0 317.767 24.3 376.45 72.9 425.05C121.533 473.683 180.233 498 249 498C317.767 498 376.45 473.683 425.05 425.05C473.683 376.45 498 317.767 498 249Z" fill="url(#paint1_radial_162_6534)" />
  <path d="M50.2504 145C47.4255 144.024 44.6755 142.908 42.0004 141.65C37.0069 139.295 32.2736 136.445 27.8004 133.1C26.5829 135.389 25.3996 137.689 24.2504 140C21.526 145.593 19.026 151.276 16.7504 157.05C17.1626 157.212 17.5793 157.362 18.0004 157.5C19.8302 158.143 21.9135 158.609 24.2504 158.9C26.6521 159.201 29.3188 159.317 32.2504 159.25C36.2171 159.117 39.6171 158.75 42.4504 158.15C46.0254 157.378 49.1587 156.161 51.8504 154.5C53.0171 153.767 53.9171 152.95 54.5504 152.05C55.2837 150.95 55.5171 149.883 55.2504 148.85C55.0171 147.917 54.3837 147.1 53.3504 146.4C52.6504 145.967 51.6171 145.5 50.2504 145ZM43.7504 119.6C43.0743 118.75 42.441 117.866 41.8504 116.95C41.0659 115.747 40.3492 114.48 39.7004 113.15C37.7887 116.063 35.9387 118.997 34.1504 121.95C36.2134 125.059 38.7801 127.926 41.8504 130.55C42.0633 130.735 42.2799 130.918 42.5004 131.1C45.9671 133.9 50.2671 136.65 55.4004 139.35C55.4741 139.387 55.5574 139.42 55.6504 139.45C57.144 140.202 61.6773 142.385 69.2504 146C71.0171 146.8 72.3504 147.5 73.2504 148.1C74.6171 148.967 75.6504 149.967 76.3504 151.1C77.0837 152.2 77.5337 153.467 77.7004 154.9C77.8671 156.267 77.7504 157.633 77.3504 159C76.4171 162.467 73.9337 165.267 69.9004 167.4C67.16 168.866 63.4434 170.099 58.7504 171.1C58.5374 171.154 58.3207 171.204 58.1004 171.25C52.0056 172.548 47.0389 173.431 43.2004 173.9C42.5195 174.005 41.8695 174.089 41.2504 174.15C34.9837 174.783 29.4004 174.567 24.5004 173.5H24.4504C20.5746 172.692 16.5579 171.208 12.4004 169.05C10.8435 173.749 9.42682 178.499 8.15039 183.3C9.13255 184.746 10.2826 186.013 11.6004 187.1C14.9025 189.877 19.3691 191.461 25.0004 191.85C27.9669 192.064 31.2503 191.947 34.8504 191.5C38.0035 191.116 41.1368 190.599 44.2504 189.95C49.749 188.865 55.1823 187.382 60.5504 185.5C61.1029 185.332 61.6529 185.148 62.2004 184.95C71.0671 181.683 79.4504 177.483 87.3504 172.35C89.8504 170.783 91.8004 169.25 93.2004 167.75C95.0671 165.783 96.1671 163.7 96.5004 161.5C96.9671 158.733 96.2671 155.95 94.4004 153.15C92.8004 150.783 90.5837 148.65 87.7504 146.75C84.7837 144.65 80.9837 142.467 76.3504 140.2C71.0171 137.7 67.0337 135.817 64.4004 134.55C60.8763 132.837 57.7263 131.087 54.9504 129.3C50.0891 126.18 46.3557 122.947 43.7504 119.6ZM284.3 10.3C284.43 10.1878 284.53 10.0878 284.6 10C286.167 8 287.067 5.68333 287.3 3.05C287.31 2.91992 287.31 2.78659 287.3 2.65C286.855 2.58424 286.405 2.51758 285.95 2.45C273.971 0.816667 261.654 0 249 0C244.974 0 240.974 0.0833333 237 0.25C234.674 1.12982 232.408 1.97982 230.2 2.8C221.338 6.23685 213.771 9.33685 207.5 12.1C206.27 12.6461 205.086 13.1794 203.95 13.7C185.661 22.0965 170.078 31.3465 157.2 41.45C156.035 42.3757 154.885 43.309 153.75 44.25C149.917 47.4167 147 50.4167 145 53.25C142.4 56.9833 141.184 60.6833 141.35 64.35C141.55 69.8833 144.8 75.2667 151.1 80.5C153.996 82.8678 157.23 85.0012 160.8 86.9C163.75 88.5148 166.933 89.9648 170.35 91.25C176.417 93.5167 183.584 95.4333 191.85 97C196.755 97.9154 201.555 98.6154 206.25 99.1C215.4 100.106 224.15 100.323 232.5 99.75C234.568 99.6022 236.602 99.4022 238.6 99.15C250.635 97.697 261.552 94.5137 271.35 89.6C274.195 88.2118 276.795 86.7285 279.15 85.15C286.141 80.5085 291.091 75.0418 294 68.75C296.267 63.8167 297 58.6667 296.2 53.3C295.334 47.6333 292.967 43.2 289.1 40C285.736 37.8009 282.986 35.9342 280.85 34.4C279.755 33.6345 278.822 32.9512 278.05 32.35C274.017 29.25 272.284 26 272.85 22.6C273.317 20.3667 274.95 18.1167 277.75 15.85C281.253 13.0422 283.436 11.1922 284.3 10.3ZM253.85 34.35C257.017 37.95 258.967 42.1167 259.7 46.85C260.434 51.7833 259.617 56.1667 257.25 60C255.084 63.4333 251.75 66.2 247.25 68.3C244.197 69.7208 240.297 70.9375 235.55 71.95C235.086 72.0508 234.603 72.1508 234.1 72.25C223.909 74.2944 214.459 75.4777 205.75 75.8C205.103 75.8501 204.453 75.8835 203.8 75.9C192.9 76.1333 182.884 75 173.75 72.5C166.35 70.4667 161.934 67.25 160.5 62.85C159.834 60.95 159.784 58.9 160.35 56.7C160.884 54.6667 161.85 52.7667 163.25 51C164.417 49.4667 165.934 47.9833 167.8 46.55C169 45.65 170.767 44.4667 173.1 43C182.967 36.7667 193.267 30.7167 204 24.85C204.964 24.3264 205.914 23.8098 206.85 23.3C208.072 22.6669 209.272 22.0503 210.45 21.45C216.866 20.7984 223.249 21.0151 229.6 22.1C230.22 22.2125 230.82 22.3292 231.4 22.45C241.339 24.5379 248.822 28.5046 253.85 34.35ZM211.7 34.75C209.807 35.3586 207.99 35.9753 206.25 36.6C204.416 37.2806 202.682 37.9806 201.05 38.7C194.617 41.5667 189.217 45.0333 184.85 49.1C183.184 50.6333 182.317 52.1 182.25 53.5C182.117 55 183.034 56.6167 185 58.35C187.867 61.05 191.184 63.15 194.95 64.65C198.445 66.0542 202.045 66.8208 205.75 66.95C205.997 66.979 206.247 66.9957 206.5 67C209.867 67.0333 213.6 66.55 217.7 65.55C220.4 64.85 224.034 63.7 228.6 62.1C230.913 61.3357 232.846 60.569 234.4 59.8C235.561 59.2357 236.511 58.669 237.25 58.1C238.584 57.0333 239.634 55.8167 240.4 54.45C241.267 52.95 241.634 51.4667 241.5 50C241.3 46.1333 238.467 42.8333 233 40.1C232.898 40.0495 232.798 39.9995 232.7 39.95C226.35 36.8775 219.55 35.1608 212.3 34.8C212.11 34.7905 211.91 34.7738 211.7 34.75ZM215.1 42.85C216.542 42.7497 218.159 42.7497 219.95 42.85C221.221 43.5194 222.238 43.9861 223 44.25L225.75 45.2C226.75 45.6667 227.417 46.2667 227.75 47C227.95 47.8 227.9 48.8 227.6 50C227.1 51.5667 226.567 52.6 226 53.1C225.5 53.5 224.867 53.7667 224.1 53.9C223.634 53.9667 222.934 54 222 54H210.25C208.717 54 207.584 53.9667 206.85 53.9C206.503 53.8634 206.17 53.8134 205.85 53.75C205.004 53.607 204.254 53.3904 203.6 53.1C202.434 52.7333 201.517 52.0333 200.85 51C200.55 50.4667 200.384 49.9 200.35 49.3C200.317 48.6333 200.45 48.0667 200.75 47.6C202.368 46.4759 204.118 45.5426 206 44.8C208.751 43.7551 211.784 43.1051 215.1 42.85ZM438.75 378.6C428.325 381.105 418.708 385.189 409.9 390.85C408.262 391.918 406.645 393.035 405.05 394.2C403.943 395.021 402.843 395.871 401.75 396.75C398.884 399.083 395.234 402.417 390.8 406.75C385.234 412.15 381.634 415.583 380 417.05C371.334 424.883 363.167 429.817 355.5 431.85C351.534 432.95 345.434 433.65 337.2 433.95C334.515 434.047 332.048 434.181 329.8 434.35C326.796 434.603 324.196 434.92 322 435.3C320.834 435.515 319.784 435.749 318.85 436C312.617 437.633 305.65 441.35 297.95 447.15C297.517 447.45 294.3 449.933 288.3 454.6C284.467 457.633 281.2 460.017 278.5 461.75C276.316 463.125 272.566 465.091 267.25 467.65C264.494 468.988 261.311 470.488 257.7 472.15C255.97 472.943 254.137 473.776 252.2 474.65C241.134 479.65 232.85 484.6 227.35 489.5C224.829 491.726 222.763 494.092 221.15 496.6C230.253 497.533 239.537 498 249 498C255.614 498 262.131 497.767 268.55 497.3C270.565 497.182 272.565 497.032 274.55 496.85C297.807 494.693 319.824 489.543 340.6 481.4C341.144 481.183 341.677 480.966 342.2 480.75C370.17 469.522 395.87 452.822 419.3 430.65C420.487 429.539 421.67 428.405 422.85 427.25C423.583 426.518 424.316 425.785 425.05 425.05C435.918 414.19 445.568 402.823 454 390.95C454.334 389.346 454.5 387.929 454.5 386.7C454.5 384.467 453.95 382.65 452.85 381.25C450.35 377.917 445.65 377.033 438.75 378.6ZM332.35 334.1C333.984 332.2 335.15 330.233 335.85 328.2C336.65 325.833 336.617 323.717 335.75 321.85C334.617 319.317 332.317 317.783 328.85 317.25C325.984 316.783 322.817 317.033 319.35 318C315.037 319.108 310.254 320.742 305 322.9C299.473 325.21 293.423 328.11 286.85 331.6C284.103 333.043 281.27 334.593 278.35 336.25C266.784 342.783 260.2 346.483 258.6 347.35C252.185 350.783 246.318 353.6 241 355.8C240.012 356.231 239.046 356.631 238.1 357C231.639 359.48 224.689 361.513 217.25 363.1C207.112 365.258 196.062 366.574 184.1 367.05C180.313 367.227 176.429 367.31 172.45 367.3C167.24 367.3 161.324 367.15 154.7 366.85C149.713 366.62 144.313 366.303 138.5 365.9C123.4 364.767 112.1 363.967 104.6 363.5C102.315 363.356 100.115 363.256 98.0004 363.2C90.9396 362.979 84.9896 363.229 80.1504 363.95C77.2954 364.367 74.6121 364.95 72.1004 365.7C66.76 367.298 62.1767 369.648 58.3504 372.75C55.2837 375.217 52.8671 378.433 51.1004 382.4C49.4337 386.233 48.6004 390.2 48.6004 394.3C48.5917 395.395 48.6417 396.445 48.7504 397.45C55.9622 406.951 63.9622 416.101 72.7504 424.9C72.5801 423.784 72.2801 422.651 71.8504 421.5C70.3837 418.133 69.3004 415.617 68.6004 413.95C67.3337 410.95 66.6671 408.333 66.6004 406.1C66.4337 400.567 69.1671 395.867 74.8004 392C75.9072 391.231 77.0738 390.514 78.3004 389.85C82.2762 387.766 86.8762 386.315 92.1004 385.5C95.6163 384.92 99.4663 384.47 103.65 384.15C115.401 383.298 129.818 383.498 146.9 384.75C152.138 385.142 156.654 385.475 160.45 385.75C167.946 386.295 172.613 386.611 174.45 386.7C179.724 386.97 184.674 387.103 189.3 387.1C193.844 387.114 198.077 386.997 202 386.75C205 386.583 209.534 386.317 215.6 385.95C219.091 385.882 222.241 386.049 225.05 386.45C226.394 386.67 227.661 386.936 228.85 387.25C233.45 388.483 237.367 390.783 240.6 394.15C244.034 397.75 245.75 401.7 245.75 406C245.75 411.134 243.05 416.351 237.65 421.65C236.584 422.712 235.4 423.779 234.1 424.85C225.204 432.299 215.288 438.116 204.35 442.3C201.702 443.336 198.986 444.27 196.2 445.1C191.266 446.583 186.316 447.699 181.35 448.45C172.058 449.904 162.725 450.087 153.35 449C145.45 448.067 138.55 446.15 132.65 443.25C125.65 439.783 120.55 435.15 117.35 429.35C116.184 427.217 115.484 425.133 115.25 423.1C114.984 420.7 115.4 418.667 116.5 417C117.334 415.633 118.65 414.517 120.45 413.65C121.717 413.017 123.434 412.417 125.6 411.85C135.634 409.483 146.517 409.533 158.25 412C163.617 413.067 167.617 414.817 170.25 417.25C170.41 417.397 170.56 417.547 170.7 417.7C172.157 419.173 173.157 420.907 173.7 422.9C174.142 424.47 174.226 425.92 173.95 427.25C173.809 427.955 173.576 428.621 173.25 429.25C171.95 431.817 169.634 433.35 166.3 433.85C163.2 434.317 160.217 433.817 157.35 432.35C155.384 431.383 152.917 429.7 149.95 427.3C146.517 424.533 144.117 422.717 142.75 421.85C139.417 420.05 136.7 419.383 134.6 419.85C133.134 420.117 131.934 420.867 131 422.1C130 423.367 129.667 424.667 130 426C130.267 426.933 130.85 427.8 131.75 428.6C132.317 429.1 133.234 429.733 134.5 430.5C147.68 437.716 162.096 440.333 177.75 438.35C179.184 438.17 180.618 437.954 182.05 437.7C189.026 436.452 195.476 434.452 201.4 431.7C210.207 427.623 217.857 421.89 224.35 414.5C227.417 410.733 228.667 407.567 228.1 405C227.334 401.367 223.667 398.95 217.1 397.75C210.467 396.65 202.867 395.867 194.3 395.4C193.487 395.355 192.537 395.305 191.45 395.25C186.99 395.059 180.29 394.842 171.35 394.6C168.446 394.558 165.712 394.525 163.15 394.5C155.594 394.408 149.644 394.375 145.3 394.4C135.634 394.433 126.95 394.667 119.25 395.1C114.487 395.357 110.403 395.773 107 396.35C106.434 396.473 105.884 396.589 105.35 396.7C100.35 397.767 96.0671 399.4 92.5004 401.6C88.957 403.8 86.1404 406.617 84.0504 410.05C83.7216 410.612 83.4049 411.196 83.1004 411.8C80.8337 416.3 80.3004 420.7 81.5004 425C82.2004 427.2 83.5837 429.75 85.6504 432.65C88.6171 436.817 90.3171 439.267 90.7504 440C91.2404 440.82 91.657 441.637 92.0004 442.45C93.357 443.578 94.707 444.678 96.0504 445.75C105.806 453.517 115.906 460.417 126.35 466.45C132.013 469.7 137.763 472.7 143.6 475.45C143.946 475.451 144.279 475.451 144.6 475.45C160.029 475.405 175.079 474.005 189.75 471.25C196.984 469.909 204.117 468.226 211.15 466.2C221.854 463.181 232.338 459.398 242.6 454.85C244.941 453.813 247.157 452.713 249.25 451.55C253.788 449.134 257.804 446.468 261.3 443.55C263.342 441.845 265.208 440.062 266.9 438.2C274.2 430.167 276.934 421.85 275.1 413.25C274.6 410.683 273.1 406.95 270.6 402.05C268.167 397.25 266.717 393.483 266.25 390.75C265.084 383.65 267.3 376.767 272.9 370.1C277.7 364.367 284.067 359.7 292 356.1C292.639 355.806 293.322 355.489 294.05 355.15C298.016 353.4 303.349 351.184 310.05 348.5C311.226 348.032 312.442 347.548 313.7 347.05C321.934 343.317 328.15 339 332.35 334.1ZM459.75 115.45C458.496 122.796 456.396 130.046 453.45 137.2C452.663 139.128 451.83 141.012 450.95 142.85C445.838 153.557 439.104 162.973 430.75 171.1C426.517 175 423.417 177.983 421.45 180.05C420.807 180.725 420.19 181.392 419.6 182.05C417.193 184.887 415.41 187.654 414.25 190.35C412.184 195.383 411.684 201.583 412.75 208.95C413.384 213.183 414.717 219.533 416.75 228C419.25 241.233 418.717 254.567 415.15 268C411.584 281.4 405.45 293.267 396.75 303.6C393.395 307.531 389.445 311.431 384.9 315.3C384.28 315.868 383.63 316.418 382.95 316.95C380.168 319.282 377.168 321.598 373.95 323.9C369.384 327.167 360.717 332.767 347.95 340.7C336.85 347.567 328.384 353.317 322.55 357.95C319.353 360.476 316.387 363.043 313.65 365.65C309.061 370.053 305.128 374.569 301.85 379.2C301.773 379.338 301.69 379.471 301.6 379.6C298.9 383.467 297.067 387.2 296.1 390.8C294.934 395.2 295.15 399.1 296.75 402.5C298.85 407 302.934 409.917 309 411.25C310.371 411.558 311.788 411.774 313.25 411.9C316.61 412.216 320.243 412.082 324.15 411.5C324.711 411.433 325.278 411.349 325.85 411.25C348.45 407.283 369.35 398.367 388.55 384.5C392.205 381.853 395.705 379.086 399.05 376.2C400.566 374.912 402.049 373.596 403.5 372.25C415.729 360.901 425.729 347.901 433.5 333.25C438.195 324.357 443.261 312.024 448.7 296.25C448.755 296.115 448.805 295.981 448.85 295.85C453.987 281.057 457.937 270.123 460.7 263.05C461.522 260.94 462.238 259.173 462.85 257.75C466.45 249.383 471.884 238.5 479.15 225.1C485.511 213.392 490.228 204.575 493.3 198.65C490.554 184.445 486.587 170.745 481.4 157.55C479.186 164.853 476.253 171.869 472.6 178.6C471.5 180.667 467.784 186.867 461.45 197.2C459.196 200.849 457.263 204.233 455.65 207.35C453.943 210.646 452.593 213.646 451.6 216.35C449.434 222.217 447.867 229.15 446.9 237.15C446.434 240.75 445.834 247.95 445.1 258.75C444.626 265.896 444.042 271.846 443.35 276.6C443.179 277.873 442.995 279.057 442.8 280.15C441.4 287.817 439.25 294.517 436.35 300.25C433.017 306.883 428.217 313.2 421.95 319.2C417.284 323.667 410.934 328.717 402.9 334.35C399.272 336.795 396.005 339.012 393.1 341C391.845 341.879 390.645 342.712 389.5 343.5C386.698 345.473 384.332 347.173 382.4 348.6C374.734 354.233 368.55 359.617 363.85 364.75C358.417 370.65 354.267 374.6 351.4 376.6C346.134 380.233 341.284 381.117 336.85 379.25C340.817 371.817 346.684 364.75 354.45 358.05C359.484 353.683 367.15 348.133 377.45 341.4C381.082 339.015 384.348 336.832 387.25 334.85C388.372 334.102 389.439 333.385 390.45 332.7C395.02 329.545 398.536 326.995 401 325.05C409.234 318.483 415.6 311.717 420.1 304.75C429.634 289.883 433.517 270.583 431.75 246.85C430.566 236.154 429.782 228.087 429.4 222.65C429.405 222.586 429.405 222.519 429.4 222.45C428.8 212.983 429.334 204.95 431 198.35C432.667 191.783 435.967 184.417 440.9 176.25C443.34 172.175 447.04 166.459 452 159.1C452.8 157.909 453.633 156.675 454.5 155.4C459.734 147.233 463.334 140.267 465.3 134.5C466.1 132.153 466.7 129.836 467.1 127.55C464.786 123.461 462.336 119.428 459.75 115.45ZM355.4 44.85C359.64 37.093 362.273 31.143 363.3 27C359.007 24.7428 354.64 22.6262 350.2 20.65C344.56 18.1292 338.81 15.8292 332.95 13.75C334.222 16.4737 335.022 19.307 335.35 22.25C335.784 26.35 335.3 30.8333 333.9 35.7C333 38.8 331.3 43.15 328.8 48.75C326.1 54.7833 324.3 59.15 323.4 61.85C322.361 64.9905 321.661 67.9572 321.3 70.75C321.131 72.3388 321.064 73.8721 321.1 75.35C321.134 77.3833 321.684 81.2333 322.75 86.9C323.617 91.7 323.867 95.5167 323.5 98.35C322.767 103.45 320.167 108.3 315.7 112.9C312.334 116.333 307.684 119.817 301.75 123.35C295.04 127.362 288.174 131.079 281.15 134.5C269.707 140.087 257.84 144.887 245.55 148.9C243.384 149.635 241.201 150.335 239 151C228.262 154.192 218.462 156.008 209.6 156.45C194.638 157.26 182.388 154.143 172.85 147.1C171.42 146.056 169.37 144.24 166.7 141.65C164.796 139.791 162.563 137.525 160 134.85C154.8 129.517 150.25 125.817 146.35 123.75C144.498 122.787 142.398 121.937 140.05 121.2C138.09 120.588 135.956 120.055 133.65 119.6C132.784 119.433 128.267 118.767 120.1 117.6C113.098 116.603 107.381 114.986 102.95 112.75C100.283 111.433 98.0828 109.883 96.3504 108.1C91.1504 102.8 88.8837 95.7 89.5504 86.8C90.1064 79.5411 92.373 72.4411 96.3504 65.5C96.6797 64.9475 97.013 64.3975 97.3504 63.85C98.6171 61.7833 103.334 55.3167 111.5 44.45C113.273 42.1039 114.873 39.8372 116.3 37.65C108.843 42.4654 101.576 47.732 94.5004 53.45C87.0917 59.4302 79.8917 65.9135 72.9004 72.9C72.7105 73.09 72.5106 73.2733 72.3004 73.45C70.093 78.4013 68.5263 83.168 67.6004 87.75C66.1004 95.2833 66.5004 102.55 68.8004 109.55C71.2671 117.117 75.5004 122.717 81.5004 126.35C85.1004 128.617 89.5171 130.15 94.7504 130.95C97.2806 131.349 100.864 131.633 105.5 131.8C106.694 131.867 107.944 131.917 109.25 131.95C115.85 132.117 120.7 132.433 123.8 132.9C129.034 133.667 133.467 135.15 137.1 137.35C138.947 138.462 140.514 139.762 141.8 141.25C142.587 142.137 143.27 143.087 143.85 144.1C145.617 147.133 146.117 150.1 145.35 153C144.99 154.275 144.356 155.541 143.45 156.8C143.111 157.284 142.727 157.767 142.3 158.25C141.3 159.35 139.734 160.767 137.6 162.5C129.387 168.891 121.003 174.891 112.45 180.5C96.782 190.845 80.5487 199.895 63.7504 207.65C63.2547 207.886 62.7547 208.12 62.2504 208.35C56.1697 211.111 50.8697 213.228 46.3504 214.7C46.0116 214.829 45.6783 214.946 45.3504 215.05C39.0504 217.05 33.1337 218.2 27.6004 218.5C27.1702 218.527 26.7368 218.544 26.3004 218.55C20.4824 218.782 14.9491 217.982 9.70039 216.15C7.03763 215.214 4.58763 214.047 2.35039 212.65C1.45378 219.501 0.803776 226.451 0.400391 233.5C2.84766 235.964 5.58099 237.748 8.60039 238.85C14.2928 240.981 20.6262 240.731 27.6004 238.1C28.2902 237.859 28.9736 237.592 29.6504 237.3C34.5448 235.18 40.4948 231.447 47.5004 226.1C48.0039 225.751 48.5039 225.384 49.0004 225C54.7684 220.441 59.9684 216.457 64.6004 213.05C67.2749 211.114 69.7582 209.364 72.0504 207.8C80.7171 201.9 88.9837 197.133 96.8504 193.5C102.431 190.912 107.998 188.812 113.55 187.2C117.157 186.183 120.757 185.366 124.35 184.75C132.108 183.448 139.591 183.182 146.8 183.95C148.848 184.17 150.865 184.47 152.85 184.85C154.817 185.25 158.217 186.1 163.05 187.4C167.35 188.567 170.75 189.35 173.25 189.75C173.54 189.796 173.824 189.83 174.1 189.85C181.792 190.983 190.342 190.666 199.75 188.9C203.37 188.224 207.603 187.19 212.45 185.8C216.47 184.696 220.904 183.346 225.75 181.75C234.243 178.927 242.193 176.111 249.6 173.3C262.226 168.518 273.293 163.751 282.8 159C283.385 158.712 283.951 158.429 284.5 158.15C303.856 148.252 320.023 136.902 333 124.1C333.801 123.323 334.584 122.539 335.35 121.75C339.117 117.817 342.05 114.25 344.15 111.05C346.884 106.85 348.617 102.7 349.35 98.6C350.117 94.5667 349.967 88.7167 348.9 81.05C347.767 73.0833 347.467 67.2667 348 63.6C348.345 61.2664 349.112 58.5664 350.3 55.5C351.554 52.3376 353.254 48.7876 355.4 44.85ZM445.4 95.6C439.183 87.8155 432.399 80.2488 425.05 72.9C413.99 61.8393 402.406 52.0393 390.3 43.5C389.584 42.9945 388.868 42.4945 388.15 42C389.455 44.8566 390.638 47.79 391.7 50.8C391.904 51.407 392.104 52.007 392.3 52.6C395.364 61.8374 397.131 71.2374 397.6 80.8C397.802 84.8717 397.769 88.9717 397.5 93.1C396.7 106.533 393.484 119.717 387.85 132.65C382.417 145.183 375.084 156.667 365.85 167.1C363.678 169.556 361.462 171.806 359.2 173.85C355.338 177.418 351.354 180.385 347.25 182.75C346.472 183.208 345.689 183.641 344.9 184.05C336.167 188.583 327.784 189.983 319.75 188.25C317.784 187.783 314.867 186.817 311 185.35C307.2 183.917 304.284 182.967 302.25 182.5C298.45 181.733 294.134 181.667 289.3 182.3C288.03 182.462 286.563 182.696 284.9 183C282.51 183.501 279.71 184.168 276.5 185C268.567 186.998 260.683 189.048 252.85 191.15C239.862 194.68 227.029 198.364 214.35 202.2C212.937 202.631 211.52 203.065 210.1 203.5C197.594 207.35 187.094 210.9 178.6 214.15C176.742 214.89 174.976 215.607 173.3 216.3C166.059 219.288 159.376 222.471 153.25 225.85C148.244 228.638 143.611 231.555 139.35 234.6C133.581 238.751 128.748 243.184 124.85 247.9C123.221 249.882 121.755 251.915 120.45 254C115.184 262.4 113.367 270.65 115 278.75C115.367 280.55 116.85 284.867 119.45 291.7C121.45 296.933 122.3 301.283 122 304.75C121.7 308.45 120.3 312.033 117.8 315.5C115.634 318.567 112.784 321.317 109.25 323.75C103.529 327.815 97.146 330.749 90.1004 332.55C85.9293 333.632 81.5293 334.315 76.9004 334.6C72.9479 334.841 68.9812 334.791 65.0004 334.45C57.457 333.837 49.8737 332.187 42.2504 329.5C40.6611 328.949 39.0611 328.349 37.4504 327.7C29.0882 324.359 20.3548 319.743 11.2504 313.85C10.0221 313.06 8.70547 312.176 7.30039 311.2C10.9565 326.061 15.9898 340.344 22.4004 354.05C23.3557 351.881 24.6391 349.981 26.2504 348.35C29.5599 344.966 33.9932 342.866 39.5504 342.05C41.4374 341.766 43.454 341.633 45.6004 341.65C47.6793 341.682 54.846 342.532 67.1004 344.2C67.4389 344.255 67.7723 344.305 68.1004 344.35C75.5004 345.35 82.9337 345.45 90.4004 344.65C91.3026 344.554 92.2026 344.437 93.1004 344.3C99.6385 343.425 105.972 341.858 112.1 339.6C117.2 337.733 124.65 334.433 134.45 329.7C137.57 328.321 140.537 327.155 143.35 326.2C148.584 324.413 153.3 323.346 157.5 323C162.068 322.634 167.384 322.984 173.45 324.05C175.694 324.462 178.027 324.962 180.45 325.55C185.517 326.817 193.117 328.717 203.25 331.25C204.685 331.518 206.135 331.751 207.6 331.95C216.464 333.201 225.947 333.318 236.05 332.3C237.192 332.208 238.342 332.092 239.5 331.95C249.867 330.683 261.784 328.117 275.25 324.25C278.209 323.401 281.092 322.517 283.9 321.6C290.816 319.395 297.333 317.012 303.45 314.45C334.755 301.32 355.805 283.62 366.6 261.35C367.044 260.442 367.461 259.525 367.85 258.6C368.801 256.5 369.617 254.4 370.3 252.3C373.243 243.54 374.093 234.974 372.85 226.6C372.417 223.7 371.317 219.4 369.55 213.7C367.817 208.033 366.717 203.717 366.25 200.75C364.684 190.317 366.8 180.217 372.6 170.45C378.4 160.683 386.284 153.983 396.25 150.35C397.55 149.883 402.25 148.633 410.35 146.6C410.729 146.506 411.095 146.406 411.45 146.3C416.696 144.931 420.829 143.281 423.85 141.35C428.15 138.683 431.834 134.667 434.9 129.3C437.3 125.133 439.417 119.9 441.25 113.6C443 107.683 444.384 101.683 445.4 95.6ZM326.05 199.65C328.946 200.038 331.629 200.172 334.1 200.05C330.765 201.248 327.882 202.165 325.45 202.8C316.984 205.033 309.334 205.6 302.5 204.5C300.367 204.133 296.884 203.233 292.05 201.8C290.081 201.223 288.281 200.739 286.65 200.35C284.662 199.869 282.945 199.535 281.5 199.35C277.6 198.917 273.3 199.1 268.6 199.9C265.3 200.467 261.05 201.533 255.85 203.1C255.643 203.162 255.427 203.212 255.2 203.25C240.238 207.758 227.271 212.508 216.3 217.5C213.964 218.573 211.714 219.657 209.55 220.75C199.697 225.687 190.964 231.187 183.35 237.25C178.536 241.11 174.169 245.193 170.25 249.5C165.45 254.849 162.316 260.582 160.85 266.7C160.797 266.921 160.747 267.137 160.7 267.35C159.201 274.112 160.384 279.362 164.25 283.1C164.595 283.455 164.962 283.788 165.35 284.1C169.017 287.033 175 288.05 183.3 287.15C188.8 286.55 192.134 286.217 193.3 286.15C193.853 286.13 194.386 286.114 194.9 286.1C197.957 286.138 200.607 286.555 202.85 287.35C205.384 288.25 208.467 290.15 212.1 293.05C216.267 296.417 219.234 298.567 221 299.5C223.737 300.944 226.77 301.878 230.1 302.3C232.635 302.606 235.335 302.622 238.2 302.35C243.1 301.883 249.034 300.467 256 298.1C262.566 295.823 269.016 293.323 275.35 290.6C282.885 287.364 290.252 283.814 297.45 279.95C307.874 274.376 317.974 268.143 327.75 261.25C332.517 257.917 336.15 254.65 338.65 251.45C341.984 247.183 343.517 242.9 343.25 238.6C342.784 232.5 339.117 227.733 332.25 224.3C326.617 221.467 319.867 219.9 312 219.6C304.134 219.289 296.434 219.389 288.9 219.9C280.329 220.495 271.979 221.628 263.85 223.3C262.405 223.598 260.971 223.915 259.55 224.25C244.968 227.631 231.585 232.715 219.4 239.5C219.228 239.624 219.045 239.74 218.85 239.85C215.617 241.717 212.967 243.483 210.9 245.15C208.2 247.35 206.1 249.667 204.6 252.1C202.9 255 202.05 258.05 202.05 261.25C202.017 264.683 203 267.55 205 269.85C206.7 271.783 209.05 273.2 212.05 274.1C214.317 274.8 217.134 275.217 220.5 275.35C222.088 275.435 223.672 275.485 225.25 275.5C236.706 275.658 248.056 274.142 259.3 270.95C262.777 269.963 266.177 268.83 269.5 267.55C278.039 264.288 286.072 260.071 293.6 254.9C293.938 254.696 294.271 254.48 294.6 254.25C297.934 252.05 299.567 249.75 299.5 247.35C299.434 245.817 298.6 244.483 297 243.35C295.667 242.383 294.034 241.717 292.1 241.35C291.961 241.321 291.811 241.287 291.65 241.25C286.442 240.227 281.175 240.544 275.85 242.2C271.695 243.449 268.012 245.349 264.8 247.9C263.827 248.716 262.894 249.583 262 250.5C261.2 251.267 259.3 253.417 256.3 256.95C254 259.617 251.934 261.583 250.1 262.85C247.567 264.583 244.8 265.367 241.8 265.2C238.6 265.033 236.284 263.75 234.85 261.35C233.117 258.483 233.467 255.3 235.9 251.8C238 248.8 240.95 246.317 244.75 244.35C250.418 241.432 256.318 239.148 262.45 237.5C267.161 236.222 272.011 235.322 277 234.8C281.629 234.302 286.212 234.136 290.75 234.3C297.464 234.584 304.08 235.601 310.6 237.35C314.234 238.25 316.45 239.75 317.25 241.85C317.817 243.317 317.634 244.917 316.7 246.65C316.034 247.883 314.917 249.283 313.35 250.85C307.704 256.221 301.62 260.971 295.1 265.1C287.859 269.704 280.076 273.52 271.75 276.55C269.539 277.382 267.289 278.149 265 278.85C252.254 282.772 239.521 284.639 226.8 284.45C220.956 284.352 215.106 283.819 209.25 282.85C204.55 282.05 200.684 280.967 197.65 279.6C195.652 278.676 193.919 277.593 192.45 276.35C190.993 275.138 189.793 273.772 188.85 272.25C186.09 267.73 185.706 262.563 187.7 256.75C187.921 256.201 188.155 255.634 188.4 255.05C190.767 249.317 194.667 244.3 200.1 240C205.223 235.931 211.157 232.314 217.9 229.15C222.067 227.235 226.534 225.485 231.3 223.9C237.842 221.728 246.742 219.428 258 217C260.585 216.463 263.285 215.913 266.1 215.35C274.456 213.691 281.723 212.39 287.9 211.45C292.3 210.807 296.15 210.34 299.45 210.05C311.884 208.95 322.984 209.467 332.75 211.6C338.817 212.967 343.984 215.017 348.25 217.75C353.35 221.017 356.8 225.05 358.6 229.85C360.534 234.95 360.45 240.6 358.35 246.8C356.55 252.033 353.517 257.133 349.25 262.1C341.884 270.567 332.1 278.217 319.9 285.05C314.835 287.889 308.185 291.122 299.95 294.75C295.604 296.678 290.82 298.711 285.6 300.85C283.275 301.816 281.025 302.733 278.85 303.6C267.434 308.173 258.25 311.357 251.3 313.15C244.837 314.803 238.67 315.82 232.8 316.2C226.844 316.574 221.194 316.291 215.85 315.35C211.904 314.696 207.187 313.413 201.7 311.5C199.382 310.705 196.915 309.788 194.3 308.75C183.4 304.45 176.3 301.817 173 300.85C171.159 300.396 169.426 299.946 167.8 299.5C162.959 298.245 159.209 297.128 156.55 296.15C150.484 293.917 146 290.867 143.1 287C140.467 283.5 139.05 279.3 138.85 274.4C138.65 269.8 139.534 265.333 141.5 261C143.234 257.133 145.767 253.367 149.1 249.7C151.1 247.527 153.484 245.277 156.25 242.95C157.245 242.146 158.279 241.33 159.35 240.5C165.808 235.599 173.074 231.049 181.15 226.85C188.148 223.257 195.748 219.924 203.95 216.85C207.385 215.572 211.301 214.222 215.7 212.8C225.66 209.596 238.093 206.029 253 202.1C253.64 201.93 254.273 201.763 254.9 201.6C265.023 198.944 272.973 197.161 278.75 196.25C281.285 195.848 283.752 195.531 286.15 195.3C292.912 194.688 299.145 194.788 304.85 195.6C309.484 196.267 316.55 197.617 326.05 199.65Z" fill="url(#paint2_radial_162_6534)" />
  <path d="M144.75 294.65C143.283 294.017 141.233 293.383 138.6 292.75C136.3 292.25 134.517 291.933 133.25 291.8C131.217 291.6 129.417 291.667 127.85 292C125.383 292.5 122.9 293.7 120.4 295.6C118.633 296.967 116.583 298.933 114.25 301.5C110.85 305.233 108.317 308.467 106.65 311.2C104.452 314.811 103.235 318.311 103 321.7C103.091 319.395 103.008 317.445 102.75 315.85C102.15 312.417 100.817 309.833 98.75 308.1C97.45 306.967 95.9 306.183 94.1 305.75C92.4 305.35 90.65 305.3 88.85 305.6C85.6833 306.067 82.5167 307.533 79.35 310C78.6831 310.475 78.0664 310.959 77.5 311.45C77.0227 308.491 76.0227 305.758 74.5 303.25C72.6667 300.017 70.3333 297.767 67.5 296.5C65.2 295.4 62.65 295.033 59.85 295.4C57.887 295.645 56.0036 296.195 54.2 297.05C52.3197 292.337 49.8697 288.354 46.85 285.1C42.7833 280.8 37.7833 277.8 31.85 276.1C25.8833 274.4 20.05 274.317 14.35 275.85C10.2167 276.983 6.5 278.9 3.2 281.6C2.79935 281.93 2.39935 282.263 2 282.6C6.96562 322.448 20.9323 358.548 43.9 390.9C45.5286 391.425 47.1786 391.875 48.85 392.25C58.85 394.383 66.9833 393.467 73.25 389.5C76.05 387.733 78.45 385.383 80.45 382.45C82.3167 379.683 83.75 376.567 84.75 373.1C85.4367 370.521 85.8534 367.704 86 364.65C88.0431 365.333 89.8264 365.733 91.35 365.85C95.4167 366.083 99.4167 364.8 103.35 362C106.117 360.033 109.167 356.983 112.5 352.85C114.2 350.783 115.5 349.017 116.4 347.55C116.68 347.112 116.93 346.679 117.15 346.25C118.667 346.736 120.301 346.969 122.05 346.95C124.95 346.917 127.717 346.217 130.35 344.85C134.65 342.75 138.733 338.883 142.6 333.25C148.433 325.15 151.65 317.067 152.25 309C152.55 304.433 151.717 300.883 149.75 298.35C148.55 296.85 146.883 295.617 144.75 294.65ZM37.25 132.1C34.81 131.01 32.31 130.16 29.75 129.55C17.8589 150.955 9.52552 173.839 4.75 198.2C5.40664 198.651 6.07331 199.084 6.75 199.5C11.4167 202.367 16.2833 203.983 21.35 204.35C26.65 204.717 31.7167 203.633 36.55 201.1C41.4833 198.5 45.0833 194.917 47.35 190.35C48.0374 188.975 48.5874 187.542 49 186.05C52.2413 186.013 55.2413 185.413 58 184.25C61.6667 182.717 64.6167 180.267 66.85 176.9C69.1833 173.4 70.15 169.767 69.75 166C69.45 163.267 68.4 160.467 66.6 157.6C65.2667 155.467 63.3167 153.05 60.75 150.35C56.8167 146.117 53.2167 142.667 49.95 140C45.7167 136.567 41.4833 133.933 37.25 132.1ZM281.95 161.25C280.138 163.299 278.571 165.332 277.25 167.35C274.983 170.983 274.4 173.95 275.5 176.25C276.367 178.083 278.45 179.5 281.75 180.5C289.383 182.567 297.067 181.767 304.8 178.1C312.533 174.433 318.017 168.983 321.25 161.75C322.117 159.817 322.583 157.983 322.65 156.25C322.717 154.217 322.167 152.583 321 151.35C319.767 150.05 317.55 149.3 314.35 149.1C308.35 148.967 301.383 150.917 293.45 154.95C289.094 157.434 285.261 159.534 281.95 161.25ZM181.95 188.45C179.85 185.683 177.067 183.533 173.6 182C170.267 180.533 166.933 179.833 163.6 179.9C160.86 179.975 158.443 180.575 156.35 181.7C151.472 177.095 146.722 173.395 142.1 170.6C133 165 123.8 162.383 114.5 162.75C111.4 162.883 108.65 163.45 106.25 164.45C103.383 165.617 101.25 167.3 99.85 169.5C97.1167 173.867 97.45 179.95 100.85 187.75C103.317 193.383 106.033 197.633 109 200.5C109.36 200.86 109.727 201.21 110.1 201.55C109.496 202.324 108.963 203.174 108.5 204.1C107.7 205.733 107.217 207.35 107.05 208.95C106.917 210.75 107.233 212.35 108 213.75C109.133 215.817 111.417 217.483 114.85 218.75C119.683 220.717 124.683 221.867 129.85 222.2C135.217 222.533 140.35 221.967 145.25 220.5C148.564 219.521 151.681 218.138 154.6 216.35C156.448 220.561 159.331 223.727 163.25 225.85C166.517 227.717 170.683 228.8 175.75 229.1C179.95 229.267 183.483 228.65 186.35 227.25C188.217 226.317 189.85 224.983 191.25 223.25C192.472 221.76 193.389 220.093 194 218.25C197.585 218.599 201.168 217.966 204.75 216.35C209.15 214.383 212.433 211.433 214.6 207.5C215.867 205.2 216.65 202.783 216.95 200.25C217.151 198.68 217.135 197.147 216.9 195.65C216.427 195.273 215.91 194.923 215.35 194.6C212.383 192.933 208.217 192.1 202.85 192.1C195.017 192.1 189.017 194.067 184.85 198C185.283 194.7 184.317 191.517 181.95 188.45ZM394.45 241.15C395.35 238.55 395.617 236.2 395.25 234.1C394.783 231.233 393.283 228.533 390.75 226C388.517 223.633 385.983 221.85 383.15 220.65C380.083 219.383 377.067 218.95 374.1 219.35C372.947 219.541 371.814 219.841 370.7 220.25C370.481 220.179 370.248 220.112 370 220.05C369.2 219.85 368.117 219.7 366.75 219.6C357.283 218.9 349.233 220.45 342.6 224.25C338.833 226.383 335.733 229.15 333.3 232.55C332.471 233.723 331.755 234.906 331.15 236.1C328.632 235.102 325.199 234.935 320.85 235.6C315.45 236.6 310.317 238.433 305.45 241.1C300.583 243.767 296.3 247.1 292.6 251.1C290.53 253.216 288.93 255.35 287.8 257.5C285.287 257.149 282.854 257.182 280.5 257.6C274.933 258.633 270.233 261.717 266.4 266.85C262.767 271.683 260.75 277.15 260.35 283.25C260.288 284.381 260.271 285.481 260.3 286.55C261.53 287.287 262.847 287.97 264.25 288.6C272.05 292.1 279.583 293.183 286.85 291.85C290.783 291.15 294.4 289.767 297.7 287.7C301.133 285.533 303.85 282.833 305.85 279.6C306.021 279.328 306.187 279.044 306.35 278.75C307.941 280.878 309.791 282.862 311.9 284.7C316.767 288.967 322.25 291.85 328.35 293.35C334.35 294.917 340.55 295.083 346.95 293.85C353.217 292.617 358.983 290.2 364.25 286.6C368.517 283.7 372.117 280.25 375.05 276.25C378.15 271.983 380.217 267.483 381.25 262.75C381.662 260.819 381.895 258.886 381.95 256.95C382.922 256.693 383.806 256.327 384.6 255.85C385.933 255.083 387.2 253.9 388.4 252.3C389.1 251.367 390.05 249.883 391.25 247.85C392.817 245.05 393.883 242.817 394.45 241.15ZM457.35 111.85C456.564 112.668 455.781 113.585 455 114.6C451.833 118.7 449.917 122.333 449.25 125.5C448.783 127.633 448.767 129.733 449.2 131.8C449.618 133.773 450.402 135.44 451.55 136.8C450.06 136.823 448.11 136.757 445.7 136.6C442.167 136.367 439.433 136.617 437.5 137.35C435.267 138.283 432.933 140.117 430.5 142.85C425.8 147.883 422.667 152.383 421.1 156.35C420.133 159.083 419.683 161.8 419.75 164.5C419.85 167.433 420.6 170.017 422 172.25C423.233 174.283 424.983 175.983 427.25 177.35C429.317 178.583 431.65 179.467 434.25 180C435.046 180.164 435.88 180.298 436.75 180.4C436.835 180.636 436.918 180.869 437 181.1C437.967 183.767 439.783 185.883 442.45 187.45C445.017 188.95 447.783 189.633 450.75 189.5C455.75 189.367 460.917 187.117 466.25 182.75C469.65 179.883 472.217 176.767 473.95 173.4C475.983 169.5 476.583 165.733 475.75 162.1C477.55 163.967 479.117 165.383 480.45 166.35C482.14 167.516 483.79 168.232 485.4 168.5C478.716 148.518 469.366 129.634 457.35 111.85ZM365.75 44.25C369.499 41.4319 372.466 37.7819 374.65 33.3C337.386 11.1 295.503 0 249 0C180.233 0 121.533 24.3 72.9 72.9C60.4927 85.3159 49.6594 98.3826 40.4 112.1C40.6999 114.686 41.3499 117.02 42.35 119.1C44.7833 124.167 49.4167 128.333 56.25 131.6C61.9167 134.333 67.9667 135.983 74.4 136.55C80.8 137.117 87.0333 136.55 93.1 134.85C98.6697 133.259 103.853 130.759 108.65 127.35C109.216 128.892 110.032 130.309 111.1 131.6C113 133.933 115.517 135.767 118.65 137.1C121.45 138.267 124.567 138.983 128 139.25C131.833 139.55 134.95 139.133 137.35 138C139.75 136.867 142.133 134.533 144.5 131C145.947 128.715 147.28 126.082 148.5 123.1C150.249 132.118 151.966 139.051 153.65 143.9C156.783 152.867 161.1 159.9 166.6 165C174.2 172.133 184.783 176.583 198.35 178.35C200.049 178.581 201.732 178.765 203.4 178.9C208.76 179.324 214.027 179.258 219.2 178.7C226.367 177.933 233.05 176.233 239.25 173.6C245.783 170.767 251.583 166.967 256.65 162.2C261.917 157.2 265.867 151.583 268.5 145.35C272.242 136.538 273.442 126.321 272.1 114.7C272.451 114.816 272.785 114.916 273.1 115C277.367 116.167 281.083 115.867 284.25 114.1C286.783 112.9 288.983 110.7 290.85 107.5C295.417 100.433 297.45 92.4333 296.95 83.5C296.85 81.7134 296.65 79.9634 296.35 78.25C297.61 78.0922 298.826 77.7922 300 77.35C303.5 76.15 306.5 73.95 309 70.75C311.3 67.75 312.883 64.2833 313.75 60.35C314.392 57.3697 314.592 54.1697 314.35 50.75C316.533 51.5514 318.916 52.1348 321.5 52.5C326.2 53.1667 332.067 53.1667 339.1 52.5C344.667 51.9667 349.35 51.1833 353.15 50.15C358.117 48.7833 362.317 46.8167 365.75 44.25ZM423.5 98.85C427.633 94.65 431.017 90.7333 433.65 87.1C434.36 86.0966 435.027 85.0966 435.65 84.1C432.257 80.3074 428.724 76.5741 425.05 72.9C414.698 62.5483 403.882 53.2983 392.6 45.15C390.671 45.8609 388.754 46.8443 386.85 48.1C384.15 49.9 381.883 52.0833 380.05 54.65C378.117 57.3167 376.8 60.1833 376.1 63.25C375.943 63.9516 375.827 64.6516 375.75 65.35C373.919 64.7389 372.252 64.2889 370.75 64C365.517 62.9333 360.3 63.2167 355.1 64.85C349.833 66.5167 345.417 69.3167 341.85 73.25C338.283 77.2167 335.983 81.9 334.95 87.3C333.883 92.7667 334.35 97.95 336.35 102.85C338.35 107.75 341.667 111.75 346.3 114.85C348.685 116.451 351.151 117.618 353.7 118.35C355.847 115.728 357.364 113.711 358.25 112.3C359.75 109.867 360.667 107.517 361 105.25C361.11 104.645 361.177 104.028 361.2 103.4C364.587 104.455 367.77 104.938 370.75 104.85C373.083 104.717 374.833 104.383 376 103.85C376.836 103.432 377.603 102.915 378.3 102.3C380.535 104.548 383.001 106.481 385.7 108.1C391.733 111.8 397.75 113.05 403.75 111.85C407.317 111.183 410.9 109.55 414.5 106.95C417.167 105.05 420.167 102.35 423.5 98.85Z" fill="url(#paint3_radial_162_6534)" />
  <path d="M426.2 74.05C425.814 73.6642 425.431 73.2809 425.05 72.9C422.156 70.006 419.223 67.1893 416.25 64.45C409.189 57.9779 401.922 51.9779 394.45 46.45C381.17 36.6913 367.254 28.4579 352.7 21.75C332.374 12.4155 310.791 6.08216 287.95 2.75C275.355 0.916667 262.372 0 249 0C247.261 0 245.528 0.0166667 243.8 0.05C178.13 1.22982 121.78 24.8965 74.75 71.05C74.1289 71.6715 73.5122 72.2882 72.9 72.9C61.3513 84.4566 51.168 96.5733 42.35 109.25C39.6518 113.181 37.0685 117.147 34.6 121.15C32.2109 125.109 29.9276 129.109 27.75 133.15C26.6557 135.237 25.5891 137.337 24.55 139.45C17.1194 154.49 11.3694 170.224 7.3 186.65C5.67018 193.33 4.30352 200.113 3.2 207C2.7263 210.093 2.29297 213.209 1.9 216.35C0.633333 226.969 0 237.852 0 249C0 252.287 0.05 255.554 0.15 258.8C0.430339 251.023 1.03034 243.373 1.95 235.85C2.31667 232.717 2.75 229.6 3.25 226.5C4.31667 219.6 5.68333 212.833 7.35 206.2C11.3833 189.733 17.1167 173.983 24.55 158.95C25.5833 156.85 26.6667 154.75 27.8 152.65C29.9333 148.617 32.2167 144.633 34.65 140.7C37.0833 136.667 39.6667 132.7 42.4 128.8C51.2 116.1 61.3667 103.967 72.9 92.4C73.5 91.8 74.1167 91.2 74.75 90.6C121.783 44.4 178.133 20.7167 243.8 19.55C245.533 19.5167 247.267 19.5 249 19.5C262.367 19.5 275.367 20.4167 288 22.25C310.8 25.5833 332.367 31.9333 352.7 41.3C367.267 47.9667 381.183 56.2 394.45 66C401.917 71.5 409.183 77.5 416.25 84C419.217 86.7 422.15 89.5 425.05 92.4C425.417 92.7667 425.8 93.15 426.2 93.55C434.8 102.25 442.65 111.283 449.75 120.65C453.65 125.85 457.333 131.15 460.8 136.55C468.033 147.883 474.217 159.683 479.35 171.95C488.25 193.117 493.967 215.633 496.5 239.5C497.167 245.633 497.617 251.883 497.85 258.25C497.95 255.186 498 252.102 498 249C498 245.552 497.933 242.119 497.8 238.7C497.585 232.381 497.151 226.131 496.5 219.95C493.966 196.13 488.249 173.614 479.35 152.4C474.217 140.183 468.017 128.399 460.75 117.05C457.321 111.654 453.638 106.354 449.7 101.15C442.649 91.7978 434.816 82.7645 426.2 74.05Z" fill="url(#paint4_linear_162_6534)" />
  <path d="M426.2 74.05C425.814 73.6642 425.431 73.2809 425.05 72.9C422.156 70.006 419.223 67.1893 416.25 64.45C409.189 57.9779 401.922 51.9779 394.45 46.45C381.17 36.6913 367.254 28.4579 352.7 21.75C332.374 12.4155 310.791 6.08216 287.95 2.75C275.355 0.916667 262.372 0 249 0C247.261 0 245.528 0.0166667 243.8 0.05C178.13 1.22982 121.78 24.8965 74.75 71.05C74.1289 71.6715 73.5122 72.2882 72.9 72.9C61.3513 84.4566 51.168 96.5733 42.35 109.25C39.6518 113.181 37.0685 117.147 34.6 121.15C32.2109 125.109 29.9276 129.109 27.75 133.15C26.6557 135.237 25.5891 137.337 24.55 139.45C17.1194 154.49 11.3694 170.224 7.3 186.65C5.67018 193.33 4.30352 200.113 3.2 207C2.7263 210.093 2.29297 213.209 1.9 216.35C0.633333 226.969 0 237.852 0 249C0 268.508 1.95 287.208 5.85 305.1C6.44935 307.766 7.08268 310.416 7.75 313.05C10.6823 324.561 14.449 335.727 19.05 346.55C20.3263 349.554 21.6596 352.521 23.05 355.45C26.0432 361.721 29.3099 367.855 32.85 373.85C34.6115 376.83 36.4281 379.764 38.3 382.65C48.0048 397.555 59.5382 411.688 72.9 425.05C73.003 425.153 73.103 425.253 73.2 425.35C77.7936 429.929 82.477 434.279 87.25 438.4C104.299 453.235 122.482 465.302 141.8 474.6C149.409 478.239 157.175 481.455 165.1 484.25C171.597 486.529 178.197 488.513 184.9 490.2C192.762 492.225 200.779 493.842 208.95 495.05C213.782 495.794 218.666 496.394 223.6 496.85C231.913 497.617 240.38 498 249 498C270.026 498 290.109 495.717 309.25 491.15C311.406 490.655 313.539 490.121 315.65 489.55C336.605 483.959 356.388 475.593 375 464.45C382.574 459.92 389.941 454.936 397.1 449.5C402.814 445.173 408.398 440.557 413.85 435.65C414.288 435.273 414.721 434.889 415.15 434.5C415.378 434.293 415.595 434.076 415.8 433.85C418.934 431.018 422.018 428.084 425.05 425.05C446.233 403.881 462.8 380.798 474.75 355.8C488.581 326.902 496.231 295.435 497.7 261.4C497.9 257.31 498 253.176 498 249C498 245.552 497.933 242.119 497.8 238.7C497.585 232.381 497.151 226.131 496.5 219.95C493.966 196.13 488.249 173.614 479.35 152.4C474.217 140.183 468.017 128.399 460.75 117.05C457.321 111.654 453.638 106.354 449.7 101.15C442.649 91.7978 434.816 82.7645 426.2 74.05Z" fill="url(#paint5_radial_162_6534)" />
  <defs>
    <linearGradient id="paint0_linear_162_6534" x1="249" y1="249" x2="249" y2="903" gradientUnits="userSpaceOnUse">
      <stop />
      <stop offset="1" stop-opacity="0" />
    </linearGradient>
    <radialGradient id="paint1_radial_162_6534" cx="0" cy="0" r="1" gradientUnits="userSpaceOnUse" gradientTransform="translate(250 375) scale(369.95 374.45)">
      <stop offset="0.686275" stop-color="#0D0E11" />
      <stop offset="1" stop-color="#1ACD97" />
    </radialGradient>
    <radialGradient id="paint2_radial_162_6534" cx="0" cy="0" r="1" gradientUnits="userSpaceOnUse" gradientTransform="translate(203 -22.95) scale(365 447.25)">
      <stop stop-color="#62D49F" />
      <stop offset="0.164706" stop-color="#62D49F" stop-opacity="0.635294" />
      <stop offset="0.333333" stop-color="#62D49F" stop-opacity="0.47451" />
      <stop offset="0.513726" stop-color="#62D49F" stop-opacity="0.266667" />
      <stop offset="0.792157" stop-color="#62D49F" stop-opacity="0.0941176" />
      <stop offset="1" stop-color="#62D49F" stop-opacity="0" />
    </radialGradient>
    <radialGradient id="paint3_radial_162_6534" cx="0" cy="0" r="1" gradientUnits="userSpaceOnUse" gradientTransform="translate(193 57) scale(321.5 321.5)">
      <stop stop-color="#00A8B0" stop-opacity="0.6" />
      <stop offset="1" stop-color="#00FF3C" stop-opacity="0" />
    </radialGradient>
    <linearGradient id="paint4_linear_162_6534" x1="236.537" y1="-23.45" x2="243.462" y2="199.35" gradientUnits="userSpaceOnUse">
      <stop stop-color="white" stop-opacity="0.6" />
      <stop offset="1" stop-color="white" stop-opacity="0" />
    </linearGradient>
    <radialGradient id="paint5_radial_162_6534" cx="0" cy="0" r="1" gradientUnits="userSpaceOnUse" gradientTransform="translate(221 27.05) scale(256.95 161.638)">
      <stop stop-color="white" stop-opacity="0.6" />
      <stop offset="1" stop-color="white" stop-opacity="0" />
    </radialGradient>
  </defs>
</svg>