<svg width="498" height="903" viewBox="0 0 498 903" fill="none" xmlns="http://www.w3.org/2000/svg">
  <rect y="249" width="498" height="654" fill="url(#paint0_linear_162_6458)" />
  <path d="M498 249C498 180.233 473.683 121.533 425.05 72.9C376.45 24.3 317.767 0 249 0C180.233 0 121.533 24.3 72.9 72.9C24.3 121.533 0 180.233 0 249C0 317.767 24.3 376.45 72.9 425.05C121.533 473.683 180.233 498 249 498C317.767 498 376.45 473.683 425.05 425.05C473.683 376.45 498 317.767 498 249Z" fill="url(#paint1_radial_162_6458)" />
  <path d="M432.399 417.4C430.022 419.979 427.572 422.529 425.049 425.05C404.588 445.525 382.338 461.692 358.299 473.55C361.032 473.708 363.215 474.308 364.849 475.35C365.916 476.017 367.066 477.15 368.299 478.75C368.347 478.812 368.397 478.862 368.449 478.9C368.976 479.033 369.526 479.1 370.099 479.1C372.133 479.2 374.633 478.533 377.599 477.1C390.599 471.433 402.416 463.683 413.049 453.85C420.544 446.898 427.06 439.264 432.599 430.95C431.866 428.825 431.499 426.625 431.499 424.35C431.499 422.097 431.799 419.78 432.399 417.4ZM15.8492 348.85C15.499 352.48 14.449 356.363 12.6992 360.5C19.6138 380.648 32.2138 400.264 50.4992 419.35C58.1992 427.383 67.4992 435.85 78.3992 444.75C83.1352 448.589 89.9018 453.855 98.6992 460.55C99.6167 460.629 100.5 460.646 101.349 460.6C102.949 460.567 104.883 460.35 107.149 459.95C108.449 459.717 110.349 459.35 112.849 458.85C113.182 458.797 113.516 458.747 113.849 458.7C99.4867 449.204 85.8367 437.987 72.8992 425.05C46.654 398.805 27.4874 369.621 15.3992 337.5C16.1044 341.609 16.2544 345.393 15.8492 348.85Z" fill="#2A2E32" />
  <path d="M159.95 236.25C159.968 234.088 159.734 231.921 159.25 229.75C157.45 221.45 152.483 213.817 144.35 206.85C139.283 202.383 134.333 199.933 129.5 199.5C126.6 199.267 123.5 199.75 120.2 200.95C117.8 201.85 114.933 203.283 111.6 205.25C103.1 210.283 95.7667 215.617 89.6 221.25C87.3667 223.25 85.6333 224.983 84.4 226.45C82.6333 228.517 81.3333 230.567 80.5 232.6C79.5 235.033 79.1 237.483 79.3 239.95C79.4082 241.374 79.7082 242.674 80.2 243.85C82.1057 245.424 84.4891 246.89 87.35 248.25C90.7167 249.75 95.3833 251.417 101.35 253.25C108.383 255.417 113.1 256.95 115.5 257.85C118.9 259.15 121.117 259.933 122.15 260.2C124.683 260.933 126.967 261.15 129 260.85C131.667 260.383 134.833 258.8 138.5 256.1C143.8 252.133 149.05 247.767 154.25 243C156.217 241.1 157.683 239.5 158.65 238.2C159.154 237.548 159.587 236.898 159.95 236.25Z" fill="#24282D" />
  <path d="M159.6 218.55C158.788 217.016 158.071 215.65 157.45 214.45C158.21 216.464 158.976 218.564 159.75 220.75C161.483 225.583 162.066 229.5 161.5 232.5C161.215 233.748 160.698 234.998 159.95 236.25C159.586 236.898 159.153 237.548 158.65 238.2C157.683 239.5 156.216 241.1 154.25 243C149.05 247.767 143.8 252.133 138.5 256.1C134.833 258.8 131.666 260.383 129 260.85C126.966 261.15 124.683 260.933 122.15 260.2C121.116 259.933 118.9 259.15 115.5 257.85C113.1 256.95 108.383 255.417 101.35 253.25C95.3829 251.417 90.7163 249.75 87.3496 248.25C84.4887 246.891 82.1053 245.424 80.1996 243.85C78.0794 242.115 76.5461 240.248 75.5996 238.25C74.3996 235.483 74.1163 232.4 74.7496 229C74.8069 228.685 74.8736 228.368 74.9496 228.05C74.5072 229.163 74.1572 230.28 73.8996 231.4C72.9663 235.333 73.283 238.783 74.8496 241.75C75.983 243.783 77.733 245.6 80.0996 247.2C81.733 248.333 84.033 249.55 86.9996 250.85C95.5996 254.617 104.183 257.917 112.75 260.75C115.916 261.817 118.6 262.533 120.8 262.9C123.836 263.433 126.553 263.666 128.95 263.6C131.372 263.535 133.472 263.185 135.25 262.55C137.06 261.948 140.66 259.215 146.05 254.35C151.479 249.517 154.929 246.384 156.4 244.95C159.866 241.55 161.983 238.017 162.75 234.35C163.65 230.017 162.6 224.75 159.6 218.55Z" fill="#51575D" />
  <path d="M145.899 190.1C143.666 187.2 141.149 185.2 138.349 184.1C133.349 182.133 126.816 183.133 118.749 187.1C108.749 192.067 99.6657 198.433 91.4991 206.2C85.701 211.694 80.601 217.644 76.1991 224.05C75.6614 225.399 75.2448 226.732 74.9491 228.05C74.873 228.368 74.8064 228.685 74.7491 229C74.1157 232.4 74.3991 235.483 75.5991 238.25C76.5456 240.248 78.0789 242.115 80.1991 243.85C79.7073 242.674 79.4073 241.374 79.2991 239.95C79.0991 237.483 79.4991 235.033 80.4991 232.6C81.3324 230.567 82.6324 228.517 84.3991 226.45C85.6324 224.983 87.3657 223.25 89.5991 221.25C95.7657 215.617 103.099 210.283 111.599 205.25C114.932 203.283 117.799 201.85 120.199 200.95C123.499 199.75 126.599 199.267 129.499 199.5C134.332 199.933 139.282 202.383 144.349 206.85C152.482 213.817 157.449 221.45 159.249 229.75C159.733 231.921 159.967 234.088 159.949 236.25C160.698 234.998 161.215 233.748 161.499 232.5C162.066 229.5 161.482 225.583 159.749 220.75C158.976 218.564 158.209 216.464 157.449 214.45C155.193 208.47 152.993 203.237 150.849 198.75C149.182 195.117 147.532 192.233 145.899 190.1Z" fill="#16191C" />
  <path d="M72.9992 140.25C72.9992 138.211 72.8492 136.311 72.5492 134.55C71.9675 131.048 70.7841 128.148 68.9992 125.85C67.3659 123.783 65.2826 122.333 62.7492 121.5C61.7376 121.171 60.7543 120.971 59.7992 120.9C52.4921 140.516 41.0921 159.832 25.5992 178.85C23.7659 181.15 22.1492 182.933 20.7492 184.2C18.7826 186 16.7826 187.267 14.7492 188C12.3159 188.8 9.89922 188.783 7.49922 187.95C7.40013 187.915 7.30013 187.882 7.19922 187.85C7.31602 187.947 7.43268 188.047 7.54922 188.15C10.4159 190.65 12.0659 192.133 12.4992 192.6C15.8992 196.333 17.7826 201.433 18.1492 207.9C18.2966 210.276 18.2133 213.11 17.8992 216.4C20.3225 214.665 23.5059 212.999 27.4492 211.4C34.2826 208.6 38.2992 206.883 39.4992 206.25C43.8992 203.883 47.7159 200.683 50.9492 196.65C54.1826 192.583 56.4826 188.15 57.8492 183.35C58.1492 182.283 58.8825 178.65 60.0492 172.45C60.8492 168.017 61.9159 164.533 63.2492 162C64.9493 158.6 67.716 155.3 71.5492 152.1C72.5159 147.222 72.9992 143.272 72.9992 140.25Z" fill="#525D67" />
  <path d="M76.0498 106.05C71.993 105.304 68.093 105.254 64.3498 105.9C64.1369 107.331 63.7702 108.948 63.2498 110.75C62.2294 114.15 61.0794 117.533 59.7998 120.9C60.7549 120.971 61.7382 121.171 62.7498 121.5C65.2831 122.333 67.3665 123.783 68.9998 125.85C70.7847 128.148 71.968 131.048 72.5498 134.55C72.8498 136.311 72.9998 138.211 72.9998 140.25C72.9998 143.272 72.5165 147.222 71.5498 152.1C71.9512 151.779 72.3512 151.462 72.7498 151.15C78.2498 147.383 82.3331 144.583 84.9998 142.75C91.7963 138.052 97.1796 133.035 101.15 127.7C99.4081 122.908 96.8915 118.791 93.5998 115.35C92.1107 113.775 90.4941 112.375 88.7498 111.15C85.0787 108.632 80.8454 106.932 76.0498 106.05Z" fill="#636E78" />
  <path d="M62.9995 96.2499C62.7874 95.9469 62.5541 95.6469 62.2995 95.3499C58.0295 95.5801 54.4295 96.1301 51.4995 96.9999C51.476 97.0066 51.4426 97.0066 51.3996 96.9999C44.2455 99.0893 37.5288 103.589 31.2495 110.5C27.4148 114.737 22.2815 121.553 15.8495 130.95C15.4081 131.728 14.9581 132.511 14.4995 133.3C11.9844 137.887 9.81778 142.67 7.99955 147.65C5.03288 155.683 3.11622 163.917 2.24955 172.35C1.74955 177.083 2.11622 180.717 3.34955 183.25C4.0834 184.626 5.31674 186.109 7.04955 187.7C7.10267 187.757 7.15267 187.807 7.19955 187.85C7.30046 187.882 7.40046 187.915 7.49955 187.95C9.89955 188.783 12.3162 188.8 14.7495 188C16.7829 187.267 18.7829 186 20.7495 184.2C22.1495 182.933 23.7662 181.15 25.5996 178.85C41.0924 159.832 52.4924 140.515 59.7995 120.9C61.0791 117.533 62.2291 114.15 63.2495 110.75C63.77 108.948 64.1367 107.331 64.3495 105.9C64.4546 105.348 64.5213 104.815 64.5496 104.3C64.6052 103.96 64.6385 103.627 64.6496 103.3C64.7829 100.5 64.2329 98.1499 62.9995 96.2499ZM48.1496 101.25C48.7567 100.956 49.3734 100.656 49.9995 100.35C51.1662 99.7832 52.2495 99.4665 53.2495 99.3999C54.4496 99.2999 55.3662 99.6165 55.9995 100.35C56.5662 101.15 56.6829 102.483 56.3495 104.35C55.8252 106.98 55.1752 109.647 54.3996 112.35C52.2391 120.096 49.1058 128.113 44.9995 136.4C40.8662 144.7 35.0662 154.517 27.5996 165.85C25.1662 169.583 23.0662 172.6 21.2995 174.9C19.7119 176.917 18.1119 178.733 16.4995 180.35C15.6238 181.244 14.7404 182.078 13.8495 182.85C11.8162 184.55 10.0329 185.267 8.49955 185C8.25241 184.938 8.01908 184.855 7.79955 184.75C6.83405 184.287 6.13405 183.403 5.69955 182.1C5.26622 180.8 5.11622 179.267 5.24955 177.5C5.84955 163.933 9.44955 150.467 16.0495 137.1C20.265 128.6 26.0317 120.217 33.3495 111.95C37.3614 107.895 42.2947 104.329 48.1496 101.25Z" fill="#D9DADA" />
  <path d="M45 136.4C49.1063 128.113 52.2396 120.096 54.4 112.35C46.2599 119.572 39.1432 127.989 33.05 137.6C24.5896 151.02 19.0729 165.27 16.5 180.35C18.1124 178.733 19.7124 176.917 21.3 174.9C23.0667 172.6 25.1667 169.583 27.6 165.85C35.0667 154.517 40.8667 144.7 45 136.4Z" fill="#3B4146" />
  <path d="M49.9992 100.35C49.373 100.656 48.7564 100.956 48.1492 101.25C42.2944 104.328 37.3611 107.895 33.3492 111.95C26.0314 120.217 20.2647 128.6 16.0492 137.1C9.44921 150.467 5.84921 163.933 5.24921 177.5C5.11587 179.267 5.26587 180.8 5.69921 182.1C6.13371 183.403 6.83371 184.287 7.79921 184.75C8.01874 184.855 8.25207 184.938 8.49921 185C10.0325 185.267 11.8159 184.55 13.8492 182.85C14.7401 182.078 15.6234 181.244 16.4992 180.35C19.0721 165.27 24.5888 151.02 33.0492 137.6C39.1424 127.989 46.2591 119.572 54.3992 112.35C55.1749 109.647 55.8249 106.98 56.3492 104.35C56.6825 102.483 56.5659 101.15 55.9992 100.35C55.3659 99.6165 54.4492 99.2998 53.2492 99.3998C52.2492 99.4665 51.1659 99.7832 49.9992 100.35Z" fill="#697076" />
  <path d="M110.8 92.4C111.027 89.991 111.36 87.7576 111.8 85.7C110.068 86.9035 108.251 88.0201 106.35 89.05C99.9165 92.4833 93.1665 94.55 86.0998 95.25C83.7998 95.4833 77.9665 95.5 68.5998 95.3C66.365 95.2582 64.265 95.2748 62.2998 95.35C62.5544 95.647 62.7877 95.947 62.9998 96.25C64.2331 98.15 64.7831 100.5 64.6498 103.3C64.6387 103.627 64.6054 103.961 64.5498 104.3C64.5216 104.815 64.4549 105.348 64.3498 105.9C68.093 105.254 71.993 105.304 76.0498 106.05C80.8454 106.932 85.0787 108.632 88.7498 111.15C90.4941 112.375 92.1107 113.775 93.5998 115.35C96.8915 118.791 99.4081 122.908 101.15 127.7C104.595 123.154 106.995 118.371 108.35 113.35C109.116 110.583 109.683 107.133 110.05 103C110.35 98.2333 110.6 94.7 110.8 92.4Z" fill="#78828A" />
  <path d="M149.599 42.8499C148.166 41.2165 145.716 40.8499 142.249 41.7499C136.016 43.5165 129.433 47.2165 122.499 52.8499C120.199 54.6832 118.783 56.3499 118.249 57.8499C118.094 58.2647 117.994 58.6814 117.949 59.0999C118.798 59.9771 120.315 60.3604 122.499 60.2499C127.699 60.0165 132.699 58.7165 137.499 56.3499C142.333 54.0165 146.449 50.8499 149.849 46.8499C150.059 46.6112 150.242 46.3779 150.399 46.1499C150.613 44.8467 150.347 43.7467 149.599 42.8499Z" fill="#919090" />
  <path d="M142.25 41.75C145.717 40.85 148.167 41.2167 149.6 42.85C150.347 43.7469 150.614 44.8469 150.4 46.15C151.902 44.2395 152.385 42.5561 151.85 41.1C151.617 40.3333 151.15 39.6833 150.45 39.15C149.817 38.6833 149.083 38.3833 148.25 38.25C147.517 38.0833 146.7 38.05 145.8 38.15C145.367 38.1833 144.55 38.3333 143.35 38.6C138.256 39.7587 133.606 41.6587 129.4 44.3C125.342 46.4756 121.909 49.2423 119.1 52.6C117.167 55.1 116.633 57.0667 117.5 58.5C117.619 58.7216 117.769 58.9216 117.95 59.1C117.994 58.6815 118.094 58.2648 118.25 57.85C118.783 56.35 120.2 54.6833 122.5 52.85C129.433 47.2167 136.017 43.5167 142.25 41.75Z" fill="#6F6D6D" />
  <path d="M256.55 45.5498C256.811 46.4942 257.228 47.5942 257.8 48.8498C260.224 52.8055 264.208 56.2222 269.75 59.0998C276.483 62.5665 284.066 64.6998 292.5 65.4998C295.227 65.7305 297.26 65.4139 298.6 64.5498C298.723 63.9762 298.773 63.3762 298.75 62.7498C298.75 59.9498 297.366 56.8665 294.6 53.4998C290.4 48.1665 284.45 43.1665 276.75 38.4998C274.75 37.3331 273.066 36.4665 271.7 35.8998C269.766 35.0665 267.95 34.5998 266.25 34.4998C264.283 34.3665 262.433 34.7331 260.7 35.5998C258.866 36.5331 257.583 37.8331 256.85 39.4998C256.083 41.2331 255.983 43.2498 256.55 45.5498Z" fill="#858585" />
  <path d="M256.249 45.7499C256.664 46.8134 257.181 47.8468 257.799 48.8499C257.227 47.5943 256.81 46.4943 256.549 45.5499C255.983 43.2499 256.083 41.2332 256.849 39.4999C257.583 37.8332 258.866 36.5332 260.699 35.5999C262.433 34.7332 264.283 34.3666 266.249 34.4999C267.949 34.5999 269.766 35.0666 271.699 35.8999C273.066 36.4666 274.749 37.3332 276.749 38.4999C284.449 43.1666 290.399 48.1666 294.599 53.4999C297.366 56.8666 298.749 59.9499 298.749 62.7499C298.772 63.3763 298.722 63.9763 298.599 64.5499C299.39 64.0606 299.94 63.3772 300.249 62.4999C300.716 61.1999 300.249 59.3999 298.849 57.0999C295.585 51.3996 291.935 45.9496 287.899 40.7499C283.894 35.5815 279.944 32.0315 276.049 30.0999C272.154 28.206 269.638 27.2394 268.499 27.1999C267.357 27.1912 266.707 27.1912 266.549 27.1999C264.549 27.3332 262.783 27.8499 261.249 28.7499C258.516 30.2499 256.699 32.7166 255.799 36.1499C254.933 39.4166 255.083 42.6166 256.249 45.7499Z" fill="#717171" />
  <path d="M392.75 406.6C391.75 407.666 390.083 408.8 387.75 410C380.983 413.5 375.1 415.25 370.1 415.25C368.366 415.25 367.116 414.866 366.35 414.1C365.816 413.666 365.433 413.016 365.2 412.15C365.066 411.716 364.95 410.916 364.85 409.75C364.829 409.199 364.812 408.649 364.8 408.1C364.789 407.674 364.772 407.241 364.75 406.8C364.683 402.355 364.816 398.022 365.15 393.8C364.31 400.085 363.926 405.235 364 409.25C364.066 410.783 364.216 411.966 364.45 412.8C364.813 414.064 365.463 415.114 366.4 415.95C367.344 416.791 369.761 417.141 373.65 417C377.572 416.858 381.839 415.258 386.45 412.2C391.087 409.136 393.887 406.186 394.85 403.35C395.281 402.03 395.415 400.563 395.25 398.95C395.249 399.044 395.249 399.128 395.25 399.2C395.283 402.166 394.45 404.633 392.75 406.6ZM333.45 345.4C333.284 345.624 333.1 345.857 332.9 346.1C332.029 347.241 330.812 348.741 329.25 350.6C324.083 356.666 319.916 361.133 316.75 364C311.783 368.5 306.783 371.7 301.75 373.6C295.416 376.133 289.533 376.433 284.1 374.5C281.666 373.6 279.066 372.05 276.3 369.85C273.233 367.15 270.916 365.15 269.35 363.85C267.723 362.448 266.44 361.315 265.5 360.45C264.639 359.688 264.072 359.154 263.8 358.85C263.146 358.174 262.563 357.49 262.05 356.8C262.963 358.364 264.129 359.914 265.55 361.45C267.084 363.053 269.717 365.736 273.45 369.5C277.211 373.295 280.378 375.645 282.95 376.55C285.528 377.479 288.244 378.362 291.1 379.2C293.983 380.038 297.133 379.538 300.55 377.7C303.964 375.902 307.548 373.602 311.3 370.8C315.053 368.027 318.42 365.11 321.4 362.05C324.414 359.021 327.13 355.871 329.55 352.6C332.005 349.322 333.939 345.972 335.35 342.55C334.8 343.478 334.167 344.428 333.45 345.4Z" fill="#565D65" />
  <path d="M378.349 379.6C375.949 377.833 373.866 377.217 372.099 377.75C370.336 378.213 369.019 379.929 368.149 382.9C367.275 385.909 366.525 389.392 365.899 393.35C365.271 397.341 364.887 401.824 364.749 406.8C364.771 407.241 364.788 407.675 364.799 408.1C364.811 408.649 364.828 409.199 364.849 409.75C364.949 410.917 365.066 411.717 365.199 412.15C365.432 413.017 365.816 413.667 366.349 414.1C367.116 414.867 368.366 415.25 370.099 415.25C375.099 415.25 380.982 413.5 387.749 410C390.082 408.8 391.749 407.667 392.749 406.6C392.778 405.991 392.778 405.375 392.749 404.75C392.416 400.083 390.449 395 386.849 389.5C384.182 385.167 381.349 381.867 378.349 379.6ZM332.899 346.1C333.02 345.665 333.136 345.215 333.249 344.75C333.949 341.883 334.166 339.25 333.899 336.85C333.599 334.017 332.632 331.683 330.999 329.85C328.566 327.217 324.516 325.8 318.849 325.6C310.582 325.367 302.066 327.117 293.299 330.85C285.699 334.117 278.132 338.75 270.599 344.75C268.866 346.15 267.549 347.383 266.649 348.45C265.349 349.983 264.499 351.533 264.099 353.1C263.632 355.2 263.949 357.367 265.049 359.6C265.192 359.9 265.342 360.183 265.499 360.45C266.439 361.315 267.723 362.448 269.349 363.85C270.916 365.15 273.232 367.15 276.299 369.85C279.066 372.05 281.666 373.6 284.099 374.5C289.532 376.433 295.416 376.133 301.749 373.6C306.782 371.7 311.782 368.5 316.749 364C319.916 361.133 324.082 356.667 329.249 350.6C330.811 348.741 332.028 347.241 332.899 346.1Z" fill="#2C3136" />
  <path d="M372.1 377.75C373.866 377.217 375.95 377.833 378.35 379.6C381.35 381.867 384.183 385.167 386.85 389.5C390.45 395 392.416 400.083 392.75 404.75C392.779 405.374 392.779 405.991 392.75 406.6C394.45 404.633 395.283 402.167 395.25 399.2C395.249 399.128 395.249 399.045 395.25 398.95C395.181 396.417 394.497 393.951 393.2 391.55C393.169 391.481 393.135 391.414 393.1 391.35C392.066 389.483 390.466 387.3 388.3 384.8C385.2 381.233 383.433 379.167 383 378.6C380.833 375.767 379.316 373.95 378.45 373.15C376.516 371.35 374.566 370.55 372.6 370.75C370.71 370.92 369.176 372.736 368 376.2C366.598 381.797 365.648 387.663 365.15 393.8C364.816 398.022 364.683 402.355 364.75 406.8C364.888 401.824 365.271 397.341 365.9 393.35C366.525 389.392 367.275 385.909 368.15 382.9C369.02 379.929 370.337 378.213 372.1 377.75ZM337.85 328.05C337.687 327.557 337.487 327.074 337.25 326.6C335.683 323.4 332.816 321.067 328.65 319.6C325.316 318.433 321.35 317.9 316.75 318C312.487 318 308.437 318.35 304.6 319.05C303.081 319.28 301.665 319.63 300.35 320.1C294.15 322.3 289.383 324.1 286.05 325.5C280.816 327.667 276.25 329.917 272.35 332.25C268.116 334.617 264.833 337.367 262.5 340.5C261.2 342.333 260.316 344.3 259.85 346.4C259.35 348.633 259.4 350.75 260 352.75C260.397 354.118 261.08 355.468 262.05 356.8C262.563 357.49 263.146 358.174 263.8 358.85C264.072 359.154 264.639 359.688 265.5 360.45C265.342 360.183 265.192 359.9 265.05 359.6C263.95 357.367 263.633 355.2 264.1 353.1C264.5 351.533 265.35 349.983 266.65 348.45C267.55 347.383 268.866 346.15 270.6 344.75C278.133 338.75 285.7 334.117 293.3 330.85C302.066 327.117 310.583 325.367 318.85 325.6C324.516 325.8 328.566 327.217 331 329.85C332.633 331.683 333.6 334.017 333.9 336.85C334.166 339.25 333.95 341.883 333.25 344.75C333.137 345.215 333.02 345.665 332.9 346.1C333.1 345.857 333.283 345.624 333.45 345.4C334.167 344.428 334.8 343.478 335.35 342.55C335.949 341.54 336.449 340.557 336.85 339.6C337.85 337.433 338.4 335.25 338.5 333.05C338.6 331.264 338.384 329.597 337.85 328.05Z" fill="#1B1E21" />
  <path d="M375.75 100.85C376.685 101.062 377.619 101.296 378.55 101.55C371.254 97.5494 362.921 96.1827 353.55 97.4499C343.416 98.7833 334.433 102.75 326.6 109.35C313.366 120.417 304.166 137.417 299 160.35C295.566 175.017 294.116 189.5 294.65 203.8C295.216 218.933 298 233.167 303 246.5C308.166 260.4 315.666 272.817 325.5 283.75C335.7 295.017 347.366 303.517 360.5 309.25C370.966 313.817 379.633 314.65 386.5 311.75C391.033 309.917 396.133 305.283 401.8 297.85C404.028 294.915 406.112 292.382 408.05 290.25C403.49 292.708 398.357 294.324 392.65 295.1C383.483 296.367 374.55 295.283 365.85 291.85C357.916 288.783 350.45 283.933 343.45 277.3C337.25 271.433 331.633 264.367 326.6 256.1C312.667 232.801 308 204.367 312.6 170.8C317.231 137.265 326.714 115.565 341.05 105.7C341.377 105.518 341.694 105.334 342 105.15C343.56 104.31 345.227 103.544 347 102.85C356.233 99.2499 365.816 98.5833 375.75 100.85Z" fill="#292E33" />
  <path d="M378.55 101.55C377.619 101.296 376.686 101.062 375.75 100.85C365.817 98.5833 356.233 99.25 347 102.85C345.227 103.544 343.56 104.31 342 105.15C341.694 105.334 341.377 105.518 341.05 105.7C326.714 115.565 317.231 137.265 312.6 170.8C308.001 204.367 312.667 232.801 326.6 256.1C331.633 264.367 337.25 271.433 343.45 277.3C350.45 283.933 357.917 288.783 365.85 291.85C374.55 295.283 383.483 296.367 392.65 295.1C398.357 294.324 403.49 292.708 408.05 290.25C411.128 288.584 413.945 286.534 416.5 284.1C420.867 279.967 424.533 274.567 427.5 267.9C429.7 263 431.783 256.7 433.75 249C442.417 215.067 442.95 185.767 435.35 161.1C430.883 146.4 423.483 133.633 413.15 122.8C402.918 112.102 391.385 105.019 378.55 101.55ZM333.85 124.35C338.25 116.85 343.3 111.85 349 109.35C355.567 106.65 363.517 106.983 372.85 110.35C388.284 115.913 401.717 126.046 413.15 140.75C424.581 155.494 431.214 171.511 433.05 188.8C433.87 198.682 433.87 208.499 433.05 218.25C432.605 223.978 431.872 229.678 430.85 235.35C429.417 243.55 427.367 250.55 424.7 256.35C421.4 263.55 417.083 269.1 411.75 273C407.25 276.267 401.883 278.45 395.65 279.55C390.117 280.55 384.233 280.65 378 279.85C370.067 278.817 362.617 276.583 355.65 273.15C348.383 269.55 342.2 264.917 337.1 259.25C329.1 250.25 323.767 238.533 321.1 224.1C319.139 213.46 318.572 200.643 319.4 185.65C319.432 185.109 319.466 184.559 319.5 184C320.233 171.767 321.483 161.483 323.25 153.15C325.583 142.117 329.117 132.517 333.85 124.35Z" fill="#898989" />
  <path d="M387.75 143C382.216 139.633 376.366 137.45 370.2 136.45C363.666 135.383 357.55 135.817 351.85 137.75C346.883 139.45 342.266 142.267 338 146.2C334.1 149.833 330.766 154.183 328 159.25C325.566 163.683 323.55 168.75 321.95 174.45C321.003 177.774 320.153 181.508 319.4 185.65C318.572 200.643 319.139 213.46 321.1 224.1C323.766 238.533 329.1 250.25 337.1 259.25C342.2 264.917 348.383 269.55 355.65 273.15C362.616 276.583 370.066 278.817 378 279.85C384.233 280.65 390.116 280.55 395.65 279.55C401.883 278.45 407.25 276.267 411.75 273C417.083 269.1 421.4 263.55 424.7 256.35C427.366 250.55 429.416 243.55 430.85 235.35C431.872 229.678 432.605 223.978 433.05 218.25C431.577 211.277 429.577 204.394 427.05 197.6C423.416 187.9 418.85 178.7 413.35 170C405.75 157.733 397.216 148.733 387.75 143Z" fill="#2B2F33" />
  <path d="M370.199 136.45C376.366 137.45 382.216 139.633 387.749 143C397.216 148.733 405.749 157.733 413.349 170C418.849 178.7 423.416 187.9 427.049 197.6C429.577 204.394 431.577 211.277 433.049 218.25C433.87 208.499 433.87 198.682 433.049 188.8C431.213 171.511 424.58 155.494 413.149 140.75C401.717 126.046 388.284 115.913 372.849 110.35C363.516 106.983 355.566 106.65 348.999 109.35C343.299 111.85 338.249 116.85 333.849 124.35C329.116 132.517 325.583 142.116 323.249 153.15C321.483 161.483 320.233 171.767 319.499 184C319.465 184.559 319.432 185.109 319.399 185.65C320.153 181.508 321.003 177.774 321.949 174.45C323.549 168.75 325.566 163.683 327.999 159.25C330.766 154.183 334.099 149.833 337.999 146.2C342.266 142.266 346.883 139.45 351.849 137.75C357.549 135.817 363.666 135.383 370.199 136.45Z" fill="#212427" />
  <path d="M442.149 70.7498C431.008 57.7419 418.941 45.7585 405.949 34.7998C405.473 35.0938 404.99 35.4438 404.499 35.8498C403.166 37.1831 402.466 37.8831 402.399 37.9498C401.566 38.7165 400.799 39.3165 400.099 39.7498C398.266 40.7498 396.099 41.2498 393.599 41.2498C391.017 41.3373 388.467 41.0873 385.949 40.4998C399.64 49.7244 412.674 60.5244 425.049 72.8998C442.821 90.6721 457.338 109.789 468.599 130.25C468.586 129.143 468.669 128.059 468.849 127C469.116 125.7 469.599 124.116 470.299 122.25C471.133 120.216 471.733 118.666 472.099 117.6C472.553 116.365 472.886 115.198 473.099 114.1C464.038 98.811 453.722 84.361 442.149 70.7498Z" fill="#B3B5B6" />
  <path d="M90.0191 286.305C86.4561 286.436 83.118 287.553 80.0046 289.656C78.9358 290.355 77.8998 291.168 76.8968 292.096C73.109 295.57 70.5196 299.782 69.1286 304.733C66.8992 313.093 67.8244 322.828 71.904 333.94C75.0953 342.815 79.4525 351.116 84.9758 358.844C88.2075 363.384 91.7538 367.605 95.6148 371.508C98.896 376.139 103.073 379.943 108.147 382.922C113.765 386.197 119.7 388.043 125.954 388.46C126.048 388.469 126.141 388.477 126.234 388.486C130.029 388.672 133.263 388.261 135.936 387.254C137.863 386.503 139.501 385.437 140.849 384.056C144.756 379.986 145.846 373.337 144.119 364.111C142.065 352.432 138.516 341.209 133.472 330.444C128.414 319.598 122.08 309.695 114.47 300.736C106.213 290.857 98.0632 286.047 90.0191 286.305ZM82.1067 295.164C84.6983 293.787 87.6692 293.327 91.0196 293.784C93.9369 294.151 96.8819 295.167 99.8544 296.834C104.094 299.202 108.022 302.492 111.637 306.705C112.871 308.163 114.063 309.732 115.212 311.413C118.619 316.33 122.006 322.736 125.373 330.629C128.889 338.796 131.498 346.244 133.2 352.973C135.3 361.199 136.223 368.971 135.969 376.289C135.849 379.988 134.982 382.527 133.366 383.906C131.489 385.456 128.571 385.74 124.61 384.758C121.609 383.964 118.6 382.775 115.584 381.191C112.923 379.828 110.259 378.157 107.589 376.178C103.324 373.056 98.5193 368.72 93.1737 363.171C88.2976 358.105 84.1452 353.312 80.7166 348.791C79.5667 346.726 78.5337 344.686 77.6179 342.672C75.1799 337.199 73.5574 331.787 72.7503 326.434C71.8324 320.55 71.9118 314.952 72.9885 309.64C73.5778 306.425 74.5642 303.615 75.9476 301.209C77.5743 298.436 79.6273 296.42 82.1067 295.164Z" fill="#898989" />
  <path d="M95.8068 305.546C93.8022 306.752 92.0609 308.361 90.583 310.375C88.1528 313.791 86.6687 318.216 86.1305 323.649C85.5982 329.256 86.105 335.009 87.6509 340.906C89.067 346.402 91.3094 351.759 94.3779 356.978C99.2412 365.123 106.31 373.194 115.584 381.191C118.6 382.775 121.609 383.964 124.61 384.758C128.571 385.741 131.49 385.457 133.367 383.906C134.982 382.527 135.85 379.988 135.969 376.289C136.224 368.971 135.3 361.2 133.2 352.973C131.498 346.244 128.89 338.796 125.374 330.629C122.006 322.736 118.619 316.33 115.212 311.413C114.063 309.732 112.872 308.163 111.637 306.705C108.627 304.587 105.582 303.55 102.504 303.595C100.227 303.59 97.9941 304.24 95.8068 305.546Z" fill="#2B2F33" />
  <path d="M91.0191 293.784C87.6688 293.327 84.6979 293.787 82.1063 295.164C79.6269 296.42 77.5739 298.436 75.9472 301.209C74.5638 303.615 73.5774 306.425 72.9881 309.64C71.9114 314.952 71.832 320.55 72.7498 326.434C73.557 331.787 75.1795 337.199 77.6175 342.672C78.5333 344.686 79.5662 346.726 80.7162 348.791C84.1448 353.312 88.2972 358.105 93.1733 363.171C98.5189 368.72 103.324 373.056 107.589 376.178C110.258 378.157 112.923 379.828 115.583 381.191C106.309 373.194 99.2406 365.123 94.3773 356.978C91.3088 351.759 89.0664 346.401 87.6503 340.906C86.1044 335.008 85.5977 329.256 86.1299 323.649C86.6681 318.216 88.1522 313.791 90.5824 310.375C92.0603 308.361 93.8016 306.752 95.8062 305.545C97.9935 304.24 100.226 303.59 102.504 303.595C105.582 303.55 108.626 304.587 111.637 306.705C108.021 302.492 104.093 299.202 99.854 296.834C96.8814 295.167 93.9365 294.151 91.0191 293.784Z" fill="#212427" />
  <path d="M81.7797 288.028C80.9039 288.592 80.312 289.135 80.0042 289.657C83.1175 287.553 86.4557 286.436 90.0186 286.305C98.0627 286.047 106.213 290.857 114.469 300.736C122.079 309.695 128.413 319.598 133.472 330.444C138.516 341.209 142.065 352.432 144.118 364.111C145.846 373.337 144.756 379.986 140.848 384.056C139.5 385.438 137.863 386.503 135.936 387.254C133.262 388.261 130.028 388.672 126.234 388.486C131.243 389.549 136.291 390.222 141.379 390.505C143.662 390.684 145.607 390.648 147.214 390.396C149.364 390.057 151.141 389.329 152.544 388.213C154.037 386.989 155.129 385.244 155.82 382.978C156.366 381.263 156.701 379.103 156.822 376.496C156.905 374.796 156.944 373.017 156.939 371.158C157.208 368.767 157.34 366.287 157.335 363.719C157.297 354.285 155.382 343.978 151.591 332.799C149.082 325.563 146.34 319.148 143.363 313.554C139.877 306.966 135.948 301.224 131.577 296.327C126.783 290.922 121.44 286.494 115.549 283.043C110.18 279.9 104.699 277.777 99.1078 276.675C98.1589 277.485 97.0939 278.3 95.9129 279.118C94.9477 279.789 93.4347 280.758 91.374 282.024C89.1678 283.458 85.9697 285.459 81.7797 288.028Z" fill="#292E33" />
  <path d="M426.2 74.05C425.814 73.6642 425.431 73.2809 425.05 72.9C422.156 70.006 419.223 67.1893 416.25 64.45C409.189 57.9779 401.922 51.9779 394.45 46.45C381.171 36.6913 367.254 28.4579 352.7 21.75C332.374 12.4155 310.791 6.08216 287.95 2.75C275.356 0.916667 262.372 0 249 0C247.262 0 245.528 0.0166667 243.8 0.05C178.13 1.22982 121.78 24.8965 74.7502 71.05C74.1291 71.6715 73.5124 72.2882 72.9002 72.9C65.3265 80.4789 58.3432 88.2956 51.9502 96.35C53.5885 95.9732 55.3051 95.6565 57.1002 95.4C60.3294 94.9431 64.9127 94.6431 70.8502 94.5C71.5247 93.7941 72.208 93.0941 72.9002 92.4C73.5002 91.8 74.1169 91.2 74.7502 90.6C121.784 44.4 178.134 20.7167 243.8 19.55C245.534 19.5167 247.267 19.5 249 19.5C262.367 19.5 275.367 20.4167 288 22.25C310.8 25.5833 332.367 31.9333 352.7 41.3C367.267 47.9667 381.184 56.2 394.45 66C401.917 71.5 409.184 77.5 416.25 84C419.217 86.7 422.15 89.5 425.05 92.4C425.417 92.7667 425.8 93.15 426.2 93.55C434.8 102.25 442.65 111.283 449.75 120.65C453.65 125.85 457.333 131.15 460.8 136.55C468.034 147.883 474.217 159.683 479.35 171.95C488.25 193.117 493.967 215.633 496.5 239.5C497.167 245.633 497.617 251.883 497.85 258.25C497.95 255.186 498 252.102 498 249C498 245.552 497.934 242.119 497.8 238.7C497.585 232.381 497.151 226.131 496.5 219.95C493.966 196.13 488.249 173.614 479.35 152.4C474.217 140.183 468.017 128.399 460.75 117.05C457.321 111.654 453.638 106.354 449.7 101.15C442.649 91.7978 434.816 82.7645 426.2 74.05Z" fill="url(#paint2_linear_162_6458)" />
  <path d="M426.2 74.05C425.814 73.6642 425.431 73.2809 425.05 72.9C422.156 70.006 419.223 67.1893 416.25 64.45C409.189 57.9779 401.922 51.9779 394.45 46.45C381.17 36.6913 367.254 28.4579 352.7 21.75C332.374 12.4155 310.791 6.08216 287.95 2.75C275.355 0.916667 262.372 0 249 0C247.261 0 245.528 0.0166667 243.8 0.05C178.13 1.22982 121.78 24.8965 74.75 71.05C74.1289 71.6715 73.5122 72.2882 72.9 72.9C61.3513 84.4566 51.168 96.5733 42.35 109.25C39.6518 113.181 37.0685 117.147 34.6 121.15C32.2109 125.109 29.9276 129.109 27.75 133.15C26.6557 135.237 25.5891 137.337 24.55 139.45C17.1194 154.49 11.3694 170.224 7.3 186.65C5.67018 193.33 4.30352 200.113 3.2 207C2.7263 210.093 2.29297 213.209 1.9 216.35C0.633333 226.969 0 237.852 0 249C0 268.508 1.95 287.208 5.85 305.1C6.44935 307.766 7.08268 310.416 7.75 313.05C10.6823 324.561 14.449 335.727 19.05 346.55C20.3263 349.554 21.6596 352.521 23.05 355.45C26.0432 361.721 29.3099 367.855 32.85 373.85C34.6115 376.83 36.4281 379.764 38.3 382.65C48.0048 397.555 59.5382 411.688 72.9 425.05C73.003 425.153 73.103 425.253 73.2 425.35C77.7936 429.929 82.477 434.279 87.25 438.4C104.299 453.235 122.482 465.302 141.8 474.6C149.409 478.239 157.175 481.455 165.1 484.25C171.597 486.529 178.197 488.513 184.9 490.2C192.762 492.225 200.779 493.842 208.95 495.05C213.782 495.794 218.666 496.394 223.6 496.85C231.913 497.617 240.38 498 249 498C270.026 498 290.109 495.717 309.25 491.15C311.406 490.655 313.539 490.121 315.65 489.55C336.605 483.959 356.388 475.593 375 464.45C382.574 459.92 389.941 454.936 397.1 449.5C402.814 445.173 408.398 440.557 413.85 435.65C414.288 435.273 414.721 434.889 415.15 434.5C415.378 434.293 415.595 434.076 415.8 433.85C418.934 431.018 422.018 428.084 425.05 425.05C446.233 403.881 462.8 380.798 474.75 355.8C488.581 326.902 496.231 295.435 497.7 261.4C497.9 257.31 498 253.176 498 249C498 245.552 497.933 242.119 497.8 238.7C497.585 232.381 497.151 226.131 496.5 219.95C493.966 196.13 488.249 173.614 479.35 152.4C474.217 140.183 468.017 128.399 460.75 117.05C457.321 111.654 453.638 106.354 449.7 101.15C442.649 91.7978 434.816 82.7645 426.2 74.05Z" fill="url(#paint3_radial_162_6458)" />
  <defs>
    <linearGradient id="paint0_linear_162_6458" x1="249" y1="249" x2="249" y2="903" gradientUnits="userSpaceOnUse">
      <stop />
      <stop offset="1" stop-opacity="0" />
    </linearGradient>
    <radialGradient id="paint1_radial_162_6458" cx="0" cy="0" r="1" gradientUnits="userSpaceOnUse" gradientTransform="translate(250 375) scale(369.95 374.45)">
      <stop offset="0.686275" stop-color="#34393D" />
      <stop offset="1" stop-color="#EEEEEE" />
    </radialGradient>
    <linearGradient id="paint2_linear_162_6458" x1="236.538" y1="-23.45" x2="243.463" y2="199.35" gradientUnits="userSpaceOnUse">
      <stop stop-color="white" stop-opacity="0.6" />
      <stop offset="1" stop-color="white" stop-opacity="0" />
    </linearGradient>
    <radialGradient id="paint3_radial_162_6458" cx="0" cy="0" r="1" gradientUnits="userSpaceOnUse" gradientTransform="translate(221 27.05) scale(256.95 161.638)">
      <stop stop-color="white" stop-opacity="0.6" />
      <stop offset="1" stop-color="white" stop-opacity="0" />
    </radialGradient>
  </defs>
</svg>