<svg width="41" height="44" viewBox="0 0 41 44" fill="none" xmlns="http://www.w3.org/2000/svg">
  <path d="M20.4052 22.4269L27.5802 12.3497C28.359 11.2559 28.1036 9.73787 27.0098 8.95909V8.95909C25.916 8.18031 24.398 8.43568 23.6192 9.52947L14.7853 21.9367" stroke="#1EEEAE" stroke-linecap="round" />
  <path d="M24.6151 24.8975L26.9791 21.5773C27.7579 20.4835 27.5025 18.9655 26.4087 18.1867V18.1867C25.3149 17.4079 23.7969 17.6633 23.0181 18.7571L20.4053 22.4268" stroke="#1EEEAE" stroke-linecap="round" />
  <path d="M28.5759 27.7177L30.1104 25.5625C30.8892 24.4687 30.6339 22.9506 29.5401 22.1719V22.1719C28.4463 21.3931 26.9282 21.6484 26.1495 22.7422L25.1956 24.082" stroke="#1EEEAE" stroke-linecap="round" />
  <path d="M27.56 37.528L27.1527 37.238L27.1469 37.2461L27.1415 37.2545L27.56 37.528ZM17.5669 39.2347L17.8039 38.7944L17.5669 39.2347ZM10.5334 30.189L10.0416 30.2791L10.5334 30.189ZM8.46692 18.6669L8.95921 18.5794L8.95921 18.5794L8.46692 18.6669ZM10.165 14.7409L10.1425 15.2404L10.165 14.7409ZM31.8583 26.8063L32.0913 26.9722L32.6713 26.1576L32.4383 25.9917L31.8583 26.8063ZM32.5443 29.6655L27.1527 37.238L27.9674 37.818L33.3589 30.2455L32.5443 29.6655ZM27.1415 37.2545C26.6254 38.0443 25.5284 39.1001 23.9488 39.6225C22.3888 40.1384 20.318 40.1476 17.8039 38.7944L17.33 39.675C20.0703 41.15 22.4252 41.1796 24.2628 40.5719C26.0807 39.9707 27.353 38.759 27.9786 37.8015L27.1415 37.2545ZM17.8039 38.7944C14.5464 37.041 13.038 35.689 12.2483 34.4104C11.4526 33.1221 11.35 31.8722 11.0252 30.0989L10.0416 30.2791C10.3454 31.9378 10.4756 33.4432 11.3975 34.9359C12.3254 36.4383 14.0195 37.8931 17.33 39.675L17.8039 38.7944ZM11.0252 30.0989C10.5226 27.3548 9.43854 21.2764 8.95921 18.5794L7.97464 18.7544C8.45386 21.4508 9.53839 27.5319 10.0416 30.2791L11.0252 30.0989ZM8.95921 18.5794C8.76273 17.474 8.66251 16.5802 8.82458 15.9837C8.89926 15.7088 9.02053 15.5351 9.18843 15.424C9.36422 15.3078 9.65438 15.2184 10.1425 15.2404L10.1875 14.2414C9.57003 14.2136 9.04689 14.3187 8.6367 14.59C8.21862 14.8666 7.98123 15.2737 7.85956 15.7215C7.62895 16.5703 7.78531 17.6893 7.97464 18.7544L8.95921 18.5794ZM10.1425 15.2404C10.763 15.2684 11.2379 15.4152 11.6266 15.6657C12.0177 15.9177 12.356 16.2969 12.6671 16.8432C13.3031 17.9602 13.7674 19.6632 14.3575 22.0959L15.3293 21.8602C14.7484 19.4652 14.2555 17.612 13.5361 16.3484C13.1694 15.7045 12.7305 15.1874 12.1683 14.8251C11.6036 14.4612 10.9491 14.2757 10.1875 14.2414L10.1425 15.2404ZM32.0913 26.9722C32.9601 27.5908 33.163 28.7966 32.5443 29.6655L33.3589 30.2455C34.2979 28.9267 33.99 27.0965 32.6713 26.1576L32.0913 26.9722ZM32.4383 25.9917C31.2482 25.1444 29.5966 25.4222 28.7492 26.6123L29.5639 27.1923C30.0909 26.4521 31.1181 26.2793 31.8583 26.8063L32.4383 25.9917Z" fill="#1EEEAE" />
  <path d="M17.5907 1.52356L21.5688 3.27948M21.5688 3.27948L19.8129 7.25755M21.5688 3.27948L12.9011 6.63854" stroke="#1EEEAE" stroke-linecap="round" />
  <path d="M6.51037 5.81751L4.75445 9.79558M4.75445 9.79558L8.73252 11.5515M4.75445 9.79558L13.4221 6.43652" stroke="#1EEEAE" stroke-linecap="round" />
</svg>