<svg width="41" height="38" viewBox="0 0 41 38" fill="none" xmlns="http://www.w3.org/2000/svg">
  <path d="M20.9484 20.9487V8.57812C20.9484 7.2354 19.8599 6.14691 18.5171 6.14691V6.14691C17.1744 6.14691 16.0859 7.2354 16.0859 8.57812V23.8089" stroke="#1EEEAE" stroke-linecap="round" />
  <path d="M25.8107 20.5196V16.4438C25.8107 15.1011 24.7222 14.0126 23.3794 14.0126V14.0126C22.0367 14.0126 20.9482 15.1011 20.9482 16.4438V20.9487" stroke="#1EEEAE" stroke-linecap="round" />
  <path d="M30.673 20.5196V17.8739C30.673 16.5312 29.5845 15.4427 28.2418 15.4427V15.4427C26.899 15.4427 25.8105 16.5312 25.8105 17.8739V19.5186" stroke="#1EEEAE" stroke-linecap="round" />
  <path d="M35.5354 29.1004H35.0354V29.1104L35.0358 29.1204L35.5354 29.1004ZM28.3848 36.2867L28.3225 35.7906L28.3848 36.2867ZM17.4086 32.9975L17.0602 33.3561L17.4086 32.9975ZM9.0424 24.81L9.39268 24.4532L9.39267 24.4532L9.0424 24.81ZM8.14858 20.6269L8.41993 21.0469L8.14858 20.6269ZM32.8182 17.8734H33.1042V16.8734H32.8182V17.8734ZM35.0354 19.8046V29.1004H36.0354V19.8046H35.0354ZM35.0358 29.1204C35.0735 30.0631 34.7922 31.5594 33.8084 32.9011C32.8368 34.2262 31.1554 35.4348 28.3225 35.7906L28.4471 36.7828C31.5349 36.395 33.4705 35.0532 34.6149 33.4924C35.7471 31.9483 36.0807 30.2233 36.035 29.0804L35.0358 29.1204ZM28.3225 35.7906C24.6519 36.2517 22.6389 36.0252 21.254 35.4416C19.8586 34.8536 19.0501 33.895 17.757 32.6388L17.0602 33.3561C18.2698 34.5311 19.249 35.6819 20.8657 36.3632C22.4931 37.0489 24.7168 37.2514 28.4471 36.7828L28.3225 35.7906ZM17.757 32.6388C15.756 30.6949 11.3474 26.3722 9.39268 24.4532L8.69213 25.1668C10.6464 27.0854 15.0569 31.41 17.0602 33.3561L17.757 32.6388ZM9.39267 24.4532C8.59149 23.6667 7.99141 22.9967 7.77745 22.4168C7.67887 22.1495 7.67692 21.9377 7.74927 21.7498C7.82502 21.5532 8.00954 21.312 8.41993 21.0469L7.87722 20.207C7.35803 20.5424 6.99285 20.9315 6.81608 21.3904C6.63592 21.8582 6.67865 22.3275 6.83927 22.7629C7.14371 23.5881 7.92013 24.409 8.69213 25.1668L9.39267 24.4532ZM8.41993 21.0469C8.94163 20.7098 9.41367 20.5539 9.87558 20.5325C10.3404 20.511 10.8359 20.6237 11.4062 20.8883C12.5721 21.4293 13.9381 22.5473 15.8298 24.1868L16.4847 23.4311C14.6223 21.817 13.146 20.5932 11.8271 19.9812C11.1549 19.6693 10.4974 19.5026 9.82928 19.5336C9.15827 19.5647 8.51749 19.7932 7.87722 20.207L8.41993 21.0469ZM33.1042 17.8734C34.1708 17.8734 35.0354 18.738 35.0354 19.8046H36.0354C36.0354 18.1857 34.7231 16.8734 33.1042 16.8734V17.8734ZM32.8182 16.8734C31.3573 16.8734 30.173 18.0577 30.173 19.5186H31.173C31.173 18.61 31.9096 17.8734 32.8182 17.8734V16.8734Z" fill="#1EEEAE" />
  <path d="M28.4583 1.46326L31.5331 4.53802M31.5331 4.53802L28.4583 7.61278M31.5331 4.53802H22.2373" stroke="#1EEEAE" stroke-linecap="round" />
  <path d="M8.57536 1.46326L5.5006 4.53802M5.5006 4.53802L8.57536 7.61278M5.5006 4.53802H14.7964" stroke="#1EEEAE" stroke-linecap="round" />
</svg>