<svg width="41" height="41" viewBox="0 0 41 41" fill="none" xmlns="http://www.w3.org/2000/svg">
  <path d="M20.0992 23.9487V11.5781C20.0992 10.2354 19.0107 9.14691 17.668 9.14691V9.14691C16.3253 9.14691 15.2368 10.2354 15.2368 11.5781V26.8089" stroke="#1EEEAE" stroke-linecap="round" />
  <path d="M24.9615 23.5196V19.4438C24.9615 18.1011 23.873 17.0126 22.5303 17.0126V17.0126C21.1876 17.0126 20.0991 18.1011 20.0991 19.4438V23.9487" stroke="#1EEEAE" stroke-linecap="round" />
  <path d="M29.8238 23.5196V20.8739C29.8238 19.5312 28.7354 18.4427 27.3926 18.4427V18.4427C26.0499 18.4427 24.9614 19.5312 24.9614 20.8739V22.5185" stroke="#1EEEAE" stroke-linecap="round" />
  <path d="M34.6863 32.1003H34.1863V32.1103L34.1867 32.1203L34.6863 32.1003ZM27.5357 39.2867L27.4734 38.7906L27.5357 39.2867ZM16.5595 35.9974L16.2111 36.3561L16.5595 35.9974ZM8.19328 27.81L8.54356 27.4532L8.54355 27.4532L8.19328 27.81ZM7.29945 23.6269L7.57081 24.0468L7.29945 23.6269ZM31.969 20.8734H32.2551V19.8734H31.969V20.8734ZM34.1863 22.8046V32.1003H35.1863V22.8046H34.1863ZM34.1867 32.1203C34.2244 33.063 33.9431 34.5594 32.9593 35.9011C31.9877 37.2262 30.3062 38.4348 27.4734 38.7906L27.598 39.7828C30.6858 39.395 32.6213 38.0532 33.7657 36.4924C34.898 34.9482 35.2316 33.2233 35.1859 32.0804L34.1867 32.1203ZM27.4734 38.7906C23.8028 39.2516 21.7898 39.0251 20.4049 38.4416C19.0095 37.8536 18.201 36.895 16.9079 35.6388L16.2111 36.3561C17.4207 37.5311 18.3998 38.6819 20.0166 39.3631C21.644 40.0488 23.8677 40.2513 27.598 39.7828L27.4734 38.7906ZM16.9079 35.6388C14.9068 33.6949 10.4983 29.3721 8.54356 27.4532L7.84301 28.1668C9.79729 30.0853 14.2078 34.41 16.2111 36.3561L16.9079 35.6388ZM8.54355 27.4532C7.74237 26.6667 7.14229 25.9967 6.92833 25.4167C6.82975 25.1495 6.82779 24.9377 6.90014 24.7498C6.9759 24.5531 7.16042 24.312 7.57081 24.0468L7.0281 23.2069C6.50891 23.5424 6.14372 23.9315 5.96696 24.3904C5.7868 24.8582 5.82953 25.3275 5.99015 25.7629C6.29459 26.5881 7.07101 27.4089 7.84301 28.1668L8.54355 27.4532ZM7.57081 24.0468C8.09251 23.7097 8.56455 23.5539 9.02646 23.5325C9.49127 23.511 9.9868 23.6236 10.557 23.8883C11.723 24.4293 13.089 25.5473 14.9807 27.1867L15.6356 26.4311C13.7732 24.817 12.2969 23.5932 10.978 22.9812C10.3058 22.6692 9.64827 22.5026 8.98016 22.5336C8.30914 22.5647 7.66837 22.7932 7.0281 23.2069L7.57081 24.0468ZM32.2551 20.8734C33.3216 20.8734 34.1863 21.738 34.1863 22.8046H35.1863C35.1863 21.1857 33.8739 19.8734 32.2551 19.8734V20.8734ZM31.969 19.8734C30.5082 19.8734 29.3239 21.0576 29.3239 22.5185H30.3239C30.3239 21.6099 31.0604 20.8734 31.969 20.8734V19.8734Z" fill="#1EEEAE" />
  <path d="M12.7817 16C9.62302 14.9699 7.34961 12.0919 7.34961 8.7027C7.34961 4.44862 10.9313 1 15.3496 1C19.7679 1 23.3496 4.44862 23.3496 8.7027C23.3496 10.1902 22.9117 11.5792 22.1532 12.7568" stroke="#1EEEAE" stroke-linecap="round" />
</svg>