<svg width="101" height="35" viewBox="0 0 101 35" fill="none" xmlns="http://www.w3.org/2000/svg">
  <g clip-path="url(#clip0_301_9725)">
    <path d="M13.4026 34.9488H12.5831C1.70748 34.9488 0.170898 29.9122 0.170898 26.6V25.9256C0.170898 22.5622 1.60504 17.6622 12.5831 17.6622H13.4026C24.0307 17.6622 25.4477 22.2805 25.4648 24.5768V24.7049C25.4648 24.8073 25.3794 24.8927 25.2685 24.8927H17.8843C17.7989 24.8927 17.7392 24.8329 17.7136 24.7646C17.5258 24.1756 16.8002 22.5963 12.8989 22.5963C8.99773 22.5963 7.94773 24.4317 7.94773 26.0622V26.3268C7.94773 27.9146 8.85261 29.9719 12.9246 29.9719C17.005 29.9719 17.5855 28.2646 17.7221 27.6585C17.7392 27.5732 17.8246 27.5134 17.9014 27.5134H25.2855C25.388 27.5134 25.4733 27.5988 25.4733 27.7012V27.9915C25.4733 30.2707 24.0221 34.9488 13.4197 34.9488H13.4026ZM43.0587 28.5378H33.9758C33.8648 28.5378 33.7794 28.6232 33.7794 28.7341V34.4536C33.7794 34.5561 33.6941 34.65 33.5831 34.65H26.4636C26.4115 34.65 26.3616 34.6293 26.3247 34.5925C26.2879 34.5557 26.2672 34.5057 26.2672 34.4536V18.1829C26.2672 18.0805 26.3526 17.9951 26.4636 17.9951H33.5746C33.677 17.9951 33.7709 18.0805 33.7709 18.1829V23.4927C33.7709 23.5951 33.8563 23.6805 33.9672 23.6805H43.0587C43.1697 23.6805 43.255 23.5951 43.255 23.4927V18.1829C43.255 18.0805 43.3404 17.9951 43.4514 17.9951H50.5794C50.6819 17.9951 50.7672 18.0805 50.7672 18.1829V34.4536C50.7672 34.5561 50.6819 34.65 50.5794 34.65H43.4514C43.3993 34.65 43.3494 34.6293 43.3125 34.5925C43.2757 34.5557 43.255 34.5057 43.255 34.4536V28.7341C43.255 28.6317 43.1697 28.5378 43.0587 28.5378ZM69.8465 32.3366H60.6099C60.5731 32.3385 60.5376 32.3507 60.5074 32.3718C60.4772 32.3929 60.4536 32.4221 60.4392 32.4561L59.4489 34.5305C59.434 34.5657 59.409 34.5958 59.3772 34.617C59.3453 34.6383 59.308 34.6497 59.2697 34.65H51.5611C51.416 34.65 51.305 34.5049 51.3904 34.3854L59.7563 18.1146C59.7737 18.0844 59.7985 18.0592 59.8284 18.0413C59.8582 18.0233 59.8922 18.0133 59.927 18.0122H70.8197C70.8965 18.0122 70.9733 18.0549 70.9989 18.1146L79.9026 34.3854C79.988 34.5134 79.877 34.6671 79.7319 34.6671H71.238C71.2031 34.6659 71.1692 34.6559 71.1393 34.638C71.1095 34.6201 71.0846 34.5948 71.0672 34.5646L70.0429 32.4817C70.0172 32.4134 69.9404 32.3793 69.8721 32.3793L69.838 32.3366H69.8465ZM67.5758 27.4793L65.3563 22.9976C65.288 22.8524 65.066 22.8524 64.9892 22.9976L62.8209 27.4793C62.7611 27.5988 62.8721 27.7524 63.0002 27.7524H67.3965C67.5416 27.7524 67.6526 27.5988 67.5672 27.4793H67.5758ZM75.4636 17.9951H100.066C100.177 17.9951 100.262 18.0805 100.262 18.1829V22.7244C100.262 22.8354 100.177 22.9207 100.066 22.9207H91.7343C91.6233 22.9207 91.538 23.0061 91.538 23.1171V34.4536C91.538 34.5561 91.4526 34.65 91.3416 34.65H84.1538C84.1032 34.6478 84.0555 34.6261 84.0205 34.5896C83.9855 34.553 83.966 34.5043 83.966 34.4536V23.1171C83.966 23.0146 83.8807 22.9207 83.7697 22.9207H75.4294C75.3789 22.9185 75.3311 22.8969 75.2961 22.8603C75.2611 22.8237 75.2416 22.775 75.2416 22.7244V18.1829C75.2416 18.0805 75.327 17.9951 75.4294 17.9951H75.4636ZM12.916 4.97682C16.8258 4.97682 17.5428 6.5817 17.7221 7.14511C17.7563 7.22194 17.8331 7.2817 17.9014 7.2817H25.2855C25.388 7.2817 25.4819 7.19633 25.4819 7.08535V6.96584C25.4648 4.66096 24.0477 0.0512085 13.4197 0.0512085H12.6002C1.62212 0.0512085 0.187972 4.95121 0.187972 8.31462V8.98048C0.187972 12.3012 1.72456 17.3378 12.6002 17.3378H13.4197C15.8441 17.3378 17.8331 16.7573 19.3953 15.8866C20.966 15.0158 19.6855 15.9207 19.6855 16.0573V16.8171C19.6855 16.9195 19.7709 17.0049 19.8733 17.0049H25.2428C25.3453 17.0049 25.4307 16.9195 25.4307 16.8085V7.85365H14.5294C14.427 7.85365 14.3331 7.94755 14.3331 8.04999V10.5768C14.3331 10.6793 14.4185 10.7732 14.5294 10.7732H17.0221C17.1928 10.7732 17.2782 10.961 17.1758 11.0805C16.5782 11.7122 15.366 12.361 12.9416 12.361C8.86968 12.361 7.97334 10.2951 7.97334 8.70731V8.44267C7.97334 6.81218 8.77578 4.97682 12.916 4.97682ZM100.561 16.7317L92.5794 0.478038C92.5641 0.447961 92.5409 0.422574 92.5124 0.404547C92.4839 0.38652 92.451 0.37652 92.4172 0.375599H82.6514C82.6162 0.374955 82.5815 0.384218 82.5513 0.402331C82.5211 0.420444 82.4967 0.446677 82.4807 0.478038L75.566 15.4768V7.87926H65.0319C64.9294 7.87926 64.8611 7.96462 64.8611 8.06706V10.5939C64.8611 10.6963 64.9465 10.7817 65.0319 10.7817H67.4392C67.6099 10.7817 67.6953 10.978 67.5758 11.0975C66.9953 11.7293 65.8428 12.3695 63.4953 12.3695C59.5685 12.3695 58.6977 10.3036 58.6977 8.72438V8.45121C58.6977 6.82926 59.4746 4.98535 63.4697 4.98535C67.4563 4.98535 67.9514 6.59023 68.1136 7.15365C68.1392 7.23048 68.1989 7.29023 68.2843 7.29023H75.4209C75.5233 7.29023 75.5916 7.20487 75.5916 7.09389V6.97438C75.5831 4.6695 74.2087 0.0597451 63.9563 0.0597451H63.1709C52.5599 0.0512085 51.1855 4.95121 51.1855 8.31462V8.98048C51.1855 12.3012 52.6794 17.3378 63.1709 17.3378H63.9563C66.2868 17.3378 68.2246 16.7573 69.727 15.8866C69.8465 15.8097 69.9916 15.9207 69.9916 16.0573V16.8171C69.9916 16.9195 70.077 17.0049 70.1709 17.0049H82.0026C82.088 17.0049 82.1392 16.9622 82.1733 16.8854L83.0697 14.811C83.0953 14.7341 83.155 14.6915 83.2319 14.6915H91.5124C91.5807 14.6915 91.6404 14.7341 91.6746 14.7939L92.5794 16.8768C92.6136 16.9451 92.6648 16.9793 92.7502 16.9793H100.348C100.484 16.9793 100.578 16.8256 100.518 16.689L100.561 16.7402V16.7317ZM89.3441 10.1158H85.4172C85.2807 10.1158 85.1868 9.97072 85.2465 9.85121L87.1928 5.3695C87.2041 5.33534 87.2258 5.3056 87.2549 5.28452C87.284 5.26343 87.3191 5.25208 87.355 5.25208C87.391 5.25208 87.426 5.26343 87.4552 5.28452C87.4843 5.3056 87.506 5.33534 87.5172 5.3695L89.5063 9.85121C89.566 9.97072 89.4721 10.1158 89.3355 10.1158H89.3441ZM50.7672 5.07926V0.554867C50.7672 0.452428 50.6819 0.358526 50.5709 0.358526H26.4807C26.3697 0.358526 26.2843 0.443891 26.2843 0.554867V5.07926C26.2843 5.19023 26.3697 5.2756 26.4807 5.2756H34.616C34.727 5.2756 34.8124 5.36096 34.8124 5.47194V11.9427C34.8124 12.0451 34.727 12.1305 34.616 12.1305H26.4807C26.3697 12.1305 26.2843 12.2158 26.2843 12.3268V16.8427C26.2843 16.9451 26.3697 17.0305 26.4807 17.0305H50.5709C50.6819 17.0305 50.7672 16.9451 50.7672 16.8427V12.3268C50.7672 12.2244 50.6819 12.1305 50.5709 12.1305H42.5209C42.4703 12.1305 42.4216 12.111 42.385 12.076C42.3484 12.041 42.3268 11.9933 42.3246 11.9427V5.4634C42.3246 5.36096 42.4099 5.26706 42.5209 5.26706H50.5709C50.6819 5.26706 50.7672 5.1817 50.7672 5.07072V5.07926Z" fill="white" />
  </g>
  <defs>
    <clipPath id="clip0_301_9725">
      <rect width="100.732" height="35" fill="white" />
    </clipPath>
  </defs>
</svg>