<svg width="289" height="289" viewBox="0 0 289 289" fill="none" xmlns="http://www.w3.org/2000/svg">
<g filter="url(#filter0_dd_166_6911)">
<circle cx="144.151" cy="144.151" r="99.1507" fill="url(#paint0_radial_166_6911)"/>
</g>
<g filter="url(#filter1_f_166_6911)">
<path d="M54 124C62.7466 118.719 72.8712 158.688 85.4314 179.491C97.9916 200.294 134.747 223.719 126 229C117.253 234.281 78.3021 212.182 65.7419 191.379C53.1817 170.576 45.2534 129.281 54 124Z" fill="url(#paint1_radial_166_6911)"/>
</g>
<g filter="url(#filter2_f_166_6911)">
<path d="M93.4118 201.516C91.6025 186.847 136.276 198.815 162.487 195.582C188.698 192.35 235.271 153.088 237.08 167.757C238.89 182.427 209.58 220.052 166.56 228.604C130.58 235.757 95.2211 216.186 93.4118 201.516Z" fill="url(#paint2_radial_166_6911)"/>
</g>
<circle cx="144" cy="144" r="83.5" stroke="url(#paint3_radial_166_6911)" stroke-width="3"/>
<circle cx="144" cy="144" r="87.5" transform="rotate(60 144 144)" stroke="url(#paint4_radial_166_6911)" stroke-width="7"/>
<g style="mix-blend-mode:color-dodge" opacity="0.8" filter="url(#filter3_f_166_6911)">
<circle cx="144" cy="144" r="81.409" transform="rotate(60 144 144)" stroke="url(#paint5_radial_166_6911)" stroke-width="15"/>
</g>
<path d="M202.937 68.4562C218.05 79.869 225.306 98.7881 224.757 120.22C224.208 141.65 215.851 165.549 199.789 186.818C183.727 208.087 163.028 222.667 142.566 229.06C122.103 235.453 101.92 233.651 86.8069 222.238C71.6937 210.825 64.4371 191.906 64.9861 170.474C65.535 149.044 73.8929 125.145 89.9546 103.876C106.016 82.6066 126.715 68.0274 147.177 61.6345C167.641 55.2413 187.823 57.0433 202.937 68.4562Z" stroke="url(#paint6_linear_166_6911)"/>
<path d="M181.764 48.6828C197.031 52.824 207.999 67.4678 213.304 87.995C218.604 108.506 218.212 134.784 210.842 161.956C203.471 189.128 190.531 212.002 175.592 227.023C160.642 242.056 143.777 249.15 128.51 245.009C113.243 240.868 102.274 226.224 96.9696 205.697C91.6693 185.186 92.0612 158.908 99.4317 131.736C106.802 104.564 119.743 81.6898 134.681 66.6685C149.631 51.6355 166.496 44.5416 181.764 48.6828Z" stroke="url(#paint7_linear_166_6911)"/>
<path d="M222.736 98.3027C239.344 134.503 216.22 181.224 170.141 202.364C124.063 223.505 73.565 210.561 56.9565 174.361C40.3479 138.16 63.4724 91.4391 109.551 70.2988C155.629 49.1585 206.127 62.102 222.736 98.3027Z" stroke="url(#paint8_linear_166_6911)" stroke-width="3"/>
<g style="mix-blend-mode:lighten">
<circle cx="112.5" cy="98.5" r="16.5" fill="url(#paint9_radial_166_6911)"/>
</g>
<g style="mix-blend-mode:lighten">
<circle cx="148.5" cy="223.5" r="22.5" fill="url(#paint10_radial_166_6911)"/>
</g>
<g style="mix-blend-mode:lighten">
<circle cx="67.5" cy="149.5" r="22.5" fill="url(#paint11_radial_166_6911)"/>
</g>
<g style="mix-blend-mode:lighten">
<circle cx="110.5" cy="127.5" r="8.5" fill="url(#paint12_radial_166_6911)"/>
</g>
<g style="mix-blend-mode:lighten">
<circle cx="136.5" cy="196.5" r="8.5" fill="url(#paint13_radial_166_6911)"/>
</g>
<g style="mix-blend-mode:lighten">
<circle cx="95.5" cy="110.5" r="4.5" fill="url(#paint14_radial_166_6911)"/>
</g>
<g style="mix-blend-mode:lighten">
<circle cx="156.5" cy="73.5" r="4.5" fill="url(#paint15_radial_166_6911)"/>
</g>
<g style="mix-blend-mode:lighten">
<circle cx="110.5" cy="188.5" r="4.5" fill="url(#paint16_radial_166_6911)"/>
</g>
<g style="mix-blend-mode:lighten">
<circle cx="121.5" cy="208.5" r="4.5" fill="url(#paint17_radial_166_6911)"/>
</g>
<g filter="url(#filter4_f_166_6911)">
<path d="M188 71.5C188 81.7173 168.301 76 144 76C119.699 76 100 81.7173 100 71.5C100 61.2827 119.699 53 144 53C168.301 53 188 61.2827 188 71.5Z" fill="url(#paint18_linear_166_6911)"/>
</g>
<defs>
<filter id="filter0_dd_166_6911" x="0" y="0" width="288.301" height="288.301" filterUnits="userSpaceOnUse" color-interpolation-filters="sRGB">
<feFlood flood-opacity="0" result="BackgroundImageFix"/>
<feColorMatrix in="SourceAlpha" type="matrix" values="0 0 0 0 0 0 0 0 0 0 0 0 0 0 0 0 0 0 127 0" result="hardAlpha"/>
<feOffset/>
<feGaussianBlur stdDeviation="22.5"/>
<feComposite in2="hardAlpha" operator="out"/>
<feColorMatrix type="matrix" values="0 0 0 0 0.117647 0 0 0 0 0.933333 0 0 0 0 0.682353 0 0 0 0.55 0"/>
<feBlend mode="normal" in2="BackgroundImageFix" result="effect1_dropShadow_166_6911"/>
<feColorMatrix in="SourceAlpha" type="matrix" values="0 0 0 0 0 0 0 0 0 0 0 0 0 0 0 0 0 0 127 0" result="hardAlpha"/>
<feOffset/>
<feGaussianBlur stdDeviation="8"/>
<feComposite in2="hardAlpha" operator="out"/>
<feColorMatrix type="matrix" values="0 0 0 0 1 0 0 0 0 1 0 0 0 0 1 0 0 0 0.5 0"/>
<feBlend mode="normal" in2="effect1_dropShadow_166_6911" result="effect2_dropShadow_166_6911"/>
<feBlend mode="normal" in="SourceGraphic" in2="effect2_dropShadow_166_6911" result="shape"/>
</filter>
<filter id="filter1_f_166_6911" x="28.3032" y="101.524" width="121.028" height="150.268" filterUnits="userSpaceOnUse" color-interpolation-filters="sRGB">
<feFlood flood-opacity="0" result="BackgroundImageFix"/>
<feBlend mode="normal" in="SourceGraphic" in2="BackgroundImageFix" result="shape"/>
<feGaussianBlur stdDeviation="11" result="effect1_foregroundBlur_166_6911"/>
</filter>
<filter id="filter2_f_166_6911" x="71.3584" y="142.488" width="187.801" height="109.639" filterUnits="userSpaceOnUse" color-interpolation-filters="sRGB">
<feFlood flood-opacity="0" result="BackgroundImageFix"/>
<feBlend mode="normal" in="SourceGraphic" in2="BackgroundImageFix" result="shape"/>
<feGaussianBlur stdDeviation="11" result="effect1_foregroundBlur_166_6911"/>
</filter>
<filter id="filter3_f_166_6911" x="47.0762" y="47.0762" width="193.848" height="193.848" filterUnits="userSpaceOnUse" color-interpolation-filters="sRGB">
<feFlood flood-opacity="0" result="BackgroundImageFix"/>
<feBlend mode="normal" in="SourceGraphic" in2="BackgroundImageFix" result="shape"/>
<feGaussianBlur stdDeviation="4" result="effect1_foregroundBlur_166_6911"/>
</filter>
<filter id="filter4_f_166_6911" x="78" y="31" width="132" height="68.5945" filterUnits="userSpaceOnUse" color-interpolation-filters="sRGB">
<feFlood flood-opacity="0" result="BackgroundImageFix"/>
<feBlend mode="normal" in="SourceGraphic" in2="BackgroundImageFix" result="shape"/>
<feGaussianBlur stdDeviation="11" result="effect1_foregroundBlur_166_6911"/>
</filter>
<radialGradient id="paint0_radial_166_6911" cx="0" cy="0" r="1" gradientUnits="userSpaceOnUse" gradientTransform="translate(144 174) rotate(90) scale(131.5 145.067)">
<stop offset="0.456731" stop-color="#033123"/>
<stop offset="0.711538" stop-color="#026B4B"/>
<stop offset="0.980769" stop-color="#C6FFED"/>
</radialGradient>
<radialGradient id="paint1_radial_166_6911" cx="0" cy="0" r="1" gradientUnits="userSpaceOnUse" gradientTransform="translate(66.5 190) rotate(-33.8714) scale(35.6795 105.834)">
<stop stop-color="#5378FF"/>
<stop offset="1" stop-color="#5378FF" stop-opacity="0"/>
</radialGradient>
<radialGradient id="paint2_radial_166_6911" cx="0" cy="0" r="1" gradientUnits="userSpaceOnUse" gradientTransform="translate(165.469 226.754) rotate(-103.506) scale(50.9047 129.874)">
<stop stop-color="#7806E3"/>
<stop offset="1" stop-color="#C953FF" stop-opacity="0"/>
</radialGradient>
<radialGradient id="paint3_radial_166_6911" cx="0" cy="0" r="1" gradientUnits="userSpaceOnUse" gradientTransform="translate(90.5 64.5) rotate(54.8061) scale(174.375 128.022)">
<stop stop-color="white" stop-opacity="0.25"/>
<stop offset="1" stop-color="white" stop-opacity="0"/>
</radialGradient>
<radialGradient id="paint4_radial_166_6911" cx="0" cy="0" r="1" gradientUnits="userSpaceOnUse" gradientTransform="translate(86.7233 58.8882) rotate(54.8061) scale(186.683 137.059)">
<stop stop-color="white" stop-opacity="0.25"/>
<stop offset="1" stop-color="white" stop-opacity="0"/>
</radialGradient>
<radialGradient id="paint5_radial_166_6911" cx="0" cy="0" r="1" gradientUnits="userSpaceOnUse" gradientTransform="translate(12.4266 120.2) rotate(26.3948) scale(201.769 148.134)">
<stop stop-color="#D2A1FF"/>
<stop offset="1" stop-color="#D187F7" stop-opacity="0"/>
</radialGradient>
<linearGradient id="paint6_linear_166_6911" x1="89.5556" y1="103.575" x2="200.188" y2="187.119" gradientUnits="userSpaceOnUse">
<stop stop-color="#D2A1FF" stop-opacity="0.65"/>
<stop offset="1" stop-color="#7E6199" stop-opacity="0"/>
</linearGradient>
<linearGradient id="paint7_linear_166_6911" x1="98.9491" y1="131.605" x2="211.324" y2="162.087" gradientUnits="userSpaceOnUse">
<stop stop-color="#D2A1FF" stop-opacity="0.65"/>
<stop offset="1" stop-color="#7E6199" stop-opacity="0"/>
</linearGradient>
<linearGradient id="paint8_linear_166_6911" x1="108.925" y1="68.9354" x2="170.767" y2="203.728" gradientUnits="userSpaceOnUse">
<stop stop-color="#D2A1FF" stop-opacity="0.65"/>
<stop offset="1" stop-color="#7E6199" stop-opacity="0"/>
</linearGradient>
<radialGradient id="paint9_radial_166_6911" cx="0" cy="0" r="1" gradientUnits="userSpaceOnUse" gradientTransform="translate(112.5 98.5) rotate(90) scale(16.5)">
<stop stop-color="#D2A1FF"/>
<stop offset="1" stop-color="#7806E3" stop-opacity="0"/>
</radialGradient>
<radialGradient id="paint10_radial_166_6911" cx="0" cy="0" r="1" gradientUnits="userSpaceOnUse" gradientTransform="translate(148.5 223.5) rotate(90) scale(22.5)">
<stop stop-color="#D2A1FF"/>
<stop offset="1" stop-color="#7806E3" stop-opacity="0"/>
</radialGradient>
<radialGradient id="paint11_radial_166_6911" cx="0" cy="0" r="1" gradientUnits="userSpaceOnUse" gradientTransform="translate(67.5 149.5) rotate(90) scale(22.5)">
<stop stop-color="#D2A1FF"/>
<stop offset="1" stop-color="#7806E3" stop-opacity="0"/>
</radialGradient>
<radialGradient id="paint12_radial_166_6911" cx="0" cy="0" r="1" gradientUnits="userSpaceOnUse" gradientTransform="translate(110.5 127.5) rotate(90) scale(8.5)">
<stop stop-color="#D2A1FF"/>
<stop offset="1" stop-color="#7806E3" stop-opacity="0"/>
</radialGradient>
<radialGradient id="paint13_radial_166_6911" cx="0" cy="0" r="1" gradientUnits="userSpaceOnUse" gradientTransform="translate(136.5 196.5) rotate(90) scale(8.5)">
<stop stop-color="#D2A1FF"/>
<stop offset="1" stop-color="#7806E3" stop-opacity="0"/>
</radialGradient>
<radialGradient id="paint14_radial_166_6911" cx="0" cy="0" r="1" gradientUnits="userSpaceOnUse" gradientTransform="translate(95.5 110.5) rotate(90) scale(4.5)">
<stop stop-color="#D2A1FF"/>
<stop offset="1" stop-color="#7806E3" stop-opacity="0"/>
</radialGradient>
<radialGradient id="paint15_radial_166_6911" cx="0" cy="0" r="1" gradientUnits="userSpaceOnUse" gradientTransform="translate(156.5 73.5) rotate(90) scale(4.5)">
<stop stop-color="#D2A1FF"/>
<stop offset="1" stop-color="#7806E3" stop-opacity="0"/>
</radialGradient>
<radialGradient id="paint16_radial_166_6911" cx="0" cy="0" r="1" gradientUnits="userSpaceOnUse" gradientTransform="translate(110.5 188.5) rotate(90) scale(4.5)">
<stop stop-color="#D2A1FF"/>
<stop offset="1" stop-color="#7806E3" stop-opacity="0"/>
</radialGradient>
<radialGradient id="paint17_radial_166_6911" cx="0" cy="0" r="1" gradientUnits="userSpaceOnUse" gradientTransform="translate(121.5 208.5) rotate(90) scale(4.5)">
<stop stop-color="#D2A1FF"/>
<stop offset="1" stop-color="#7806E3" stop-opacity="0"/>
</radialGradient>
<linearGradient id="paint18_linear_166_6911" x1="144" y1="45" x2="146.5" y2="90" gradientUnits="userSpaceOnUse">
<stop stop-color="#6EFFD2"/>
<stop offset="1" stop-color="#1EEEAE" stop-opacity="0"/>
</linearGradient>
</defs>
</svg>
