<svg width="269" height="269" viewBox="0 0 269 269" fill="none" xmlns="http://www.w3.org/2000/svg">
<g filter="url(#filter0_dd_166_6966)">
<circle cx="134.151" cy="134.151" r="99.1507" fill="url(#paint0_radial_166_6966)"/>
</g>
<path d="M199.672 76.28C210.032 87.6665 211.624 105.442 205.309 125.321C199.008 145.158 184.905 166.778 164.435 185.402C143.965 204.026 121.113 216.029 100.77 220.434C80.3842 224.848 62.838 221.588 52.4783 210.201C42.1186 198.815 40.5264 181.039 46.8415 161.16C53.1431 141.323 67.2462 119.703 87.7161 101.079C108.186 82.4554 131.038 70.4521 151.38 66.0476C171.767 61.6336 189.313 64.8935 199.672 76.28Z" stroke="url(#paint1_linear_166_6966)" stroke-width="3"/>
<path d="M198.522 45.683C209.039 51.1447 214.131 65.6623 213.152 85.6293C212.181 105.453 205.223 130.04 192.445 154.645C179.667 179.25 163.554 199.083 147.897 211.279C132.125 223.564 117.321 227.748 106.804 222.286C96.2878 216.825 91.1959 202.307 92.1742 182.34C93.1454 162.517 100.103 137.929 112.882 113.324C125.66 88.7196 141.772 68.8861 157.43 56.6901C173.201 44.4058 188.006 40.2214 198.522 45.683Z" stroke="url(#paint2_linear_166_6966)" stroke-width="3"/>
<path d="M95.6062 243.364C92.6818 242.292 90.5309 238.619 89.4996 232.131C88.4834 225.739 88.6236 217.009 89.8828 206.528C92.3993 185.582 99.3561 157.868 110.171 128.365C120.986 98.8627 133.59 73.2183 145.208 55.6087C151.021 46.7972 156.556 40.0451 161.463 35.8243C166.443 31.5404 170.458 30.1274 173.383 31.1995C176.307 32.2715 178.458 35.945 179.489 42.4325C180.505 48.8246 180.365 57.5544 179.106 68.0354C176.589 88.9811 169.633 116.696 158.818 146.198C148.002 175.701 135.398 201.345 123.781 218.955C117.968 227.766 112.433 234.518 107.526 238.739C102.546 243.023 98.5306 244.436 95.6062 243.364Z" stroke="url(#paint3_linear_166_6966)" stroke-width="2"/>
<path d="M129.582 247.985C108.169 247.14 88.9851 234.303 75.3539 213.682C61.7259 193.066 53.8133 164.865 55.0327 133.97C56.2521 103.076 66.3628 75.586 81.5734 56.1084C96.7875 36.6263 116.924 25.3413 138.337 26.1865C159.749 27.0316 178.934 39.8687 192.565 60.4893C206.193 81.1051 214.106 109.307 212.886 140.201C211.667 171.095 201.556 198.585 186.345 218.063C171.131 237.545 150.995 248.83 129.582 247.985Z" stroke="url(#paint4_linear_166_6966)" stroke-width="6"/>
<path d="M230.823 177.475C221.478 192.931 203.174 201.438 180.478 202.181C157.815 202.922 131.183 195.868 106.061 180.677C80.939 165.487 62.3205 145.18 52.4495 124.767C42.5639 104.323 41.595 84.1616 50.9403 68.7062C60.2857 53.2508 78.5896 44.7432 101.286 44.0006C123.949 43.259 150.58 50.3135 175.702 65.5039C200.825 80.6943 219.443 101.001 229.314 121.415C239.2 141.858 240.169 162.02 230.823 177.475Z" stroke="url(#paint5_linear_166_6966)" stroke-width="6"/>
<g style="mix-blend-mode:lighten">
<circle cx="98.5" cy="92.5" r="16.5" fill="url(#paint6_radial_166_6966)"/>
</g>
<g style="mix-blend-mode:lighten">
<circle cx="178.5" cy="65.5" r="16.5" fill="url(#paint7_radial_166_6966)"/>
</g>
<g style="mix-blend-mode:lighten">
<circle cx="211.5" cy="106.5" r="16.5" fill="url(#paint8_radial_166_6966)"/>
</g>
<g style="mix-blend-mode:lighten">
<circle cx="182.5" cy="100.5" r="8.5" fill="url(#paint9_radial_166_6966)"/>
</g>
<g style="mix-blend-mode:lighten">
<circle cx="110.5" cy="56.5" r="8.5" fill="url(#paint10_radial_166_6966)"/>
</g>
<g style="mix-blend-mode:lighten">
<circle cx="127.5" cy="65.5" r="8.5" fill="url(#paint11_radial_166_6966)"/>
</g>
<g style="mix-blend-mode:lighten">
<circle cx="56.5" cy="114.5" r="8.5" fill="url(#paint12_radial_166_6966)"/>
</g>
<g style="mix-blend-mode:lighten">
<circle cx="65.5" cy="156.5" r="8.5" fill="url(#paint13_radial_166_6966)"/>
</g>
<g style="mix-blend-mode:lighten">
<circle cx="48" cy="133" r="4" fill="url(#paint14_radial_166_6966)"/>
</g>
<g style="mix-blend-mode:lighten">
<circle cx="98" cy="65" r="4" fill="url(#paint15_radial_166_6966)"/>
</g>
<g style="mix-blend-mode:lighten">
<circle cx="149" cy="41" r="4" fill="url(#paint16_radial_166_6966)"/>
</g>
<g style="mix-blend-mode:lighten">
<circle cx="188.5" cy="125.5" r="2.5" fill="url(#paint17_radial_166_6966)"/>
</g>
<g style="mix-blend-mode:lighten">
<circle cx="219.5" cy="156.5" r="2.5" fill="url(#paint18_radial_166_6966)"/>
</g>
<g style="mix-blend-mode:lighten">
<circle cx="108.5" cy="71.5" r="2.5" fill="url(#paint19_radial_166_6966)"/>
</g>
<g style="mix-blend-mode:lighten">
<circle cx="155.5" cy="118.5" r="2.5" fill="url(#paint20_radial_166_6966)" fill-opacity="0.45"/>
</g>
<g style="mix-blend-mode:lighten">
<circle cx="79.5" cy="125.5" r="2.5" fill="url(#paint21_radial_166_6966)" fill-opacity="0.45"/>
</g>
<g style="mix-blend-mode:lighten">
<circle cx="142.5" cy="94.5" r="2.5" fill="url(#paint22_radial_166_6966)" fill-opacity="0.45"/>
</g>
<g style="mix-blend-mode:lighten">
<circle cx="110.5" cy="147.5" r="6.5" fill="url(#paint23_radial_166_6966)" fill-opacity="0.45"/>
</g>
<g style="mix-blend-mode:lighten">
<circle cx="73.5" cy="141.5" r="6.5" fill="url(#paint24_radial_166_6966)" fill-opacity="0.45"/>
</g>
<g style="mix-blend-mode:lighten">
<circle cx="75.5" cy="196.5" r="6.5" fill="url(#paint25_radial_166_6966)" fill-opacity="0.45"/>
</g>
<g style="mix-blend-mode:lighten">
<circle cx="202.5" cy="178.5" r="13.5" fill="url(#paint26_radial_166_6966)" fill-opacity="0.45"/>
</g>
<g style="mix-blend-mode:lighten">
<circle cx="204.5" cy="125.5" r="13.5" fill="url(#paint27_radial_166_6966)" fill-opacity="0.45"/>
</g>
<defs>
<filter id="filter0_dd_166_6966" x="0" y="0" width="268.301" height="268.301" filterUnits="userSpaceOnUse" color-interpolation-filters="sRGB">
<feFlood flood-opacity="0" result="BackgroundImageFix"/>
<feColorMatrix in="SourceAlpha" type="matrix" values="0 0 0 0 0 0 0 0 0 0 0 0 0 0 0 0 0 0 127 0" result="hardAlpha"/>
<feOffset/>
<feGaussianBlur stdDeviation="17.5"/>
<feComposite in2="hardAlpha" operator="out"/>
<feColorMatrix type="matrix" values="0 0 0 0 1 0 0 0 0 0.498039 0 0 0 0 0.184314 0 0 0 1 0"/>
<feBlend mode="normal" in2="BackgroundImageFix" result="effect1_dropShadow_166_6966"/>
<feColorMatrix in="SourceAlpha" type="matrix" values="0 0 0 0 0 0 0 0 0 0 0 0 0 0 0 0 0 0 127 0" result="hardAlpha"/>
<feOffset/>
<feGaussianBlur stdDeviation="7.5"/>
<feComposite in2="hardAlpha" operator="out"/>
<feColorMatrix type="matrix" values="0 0 0 0 1 0 0 0 0 0.863628 0 0 0 0 0.778395 0 0 0 0.5 0"/>
<feBlend mode="normal" in2="effect1_dropShadow_166_6966" result="effect2_dropShadow_166_6966"/>
<feBlend mode="normal" in="SourceGraphic" in2="effect2_dropShadow_166_6966" result="shape"/>
</filter>
<radialGradient id="paint0_radial_166_6966" cx="0" cy="0" r="1" gradientUnits="userSpaceOnUse" gradientTransform="translate(134.15 170) rotate(90) scale(140 154.444)">
<stop offset="0.326923" stop-color="#600000"/>
<stop offset="0.490385" stop-color="#880303"/>
<stop offset="0.677885" stop-color="#D35100"/>
<stop offset="0.980769" stop-color="#FFE8D9"/>
</radialGradient>
<linearGradient id="paint1_linear_166_6966" x1="-88" y1="69" x2="165.444" y2="186.511" gradientUnits="userSpaceOnUse">
<stop stop-color="#FFB78A"/>
<stop offset="1" stop-color="#FFB78A" stop-opacity="0"/>
</linearGradient>
<linearGradient id="paint2_linear_166_6966" x1="-37.1299" y1="157.545" x2="187.772" y2="193.203" gradientUnits="userSpaceOnUse">
<stop stop-color="#FFB78A"/>
<stop offset="1" stop-color="#FFB78A" stop-opacity="0"/>
</linearGradient>
<linearGradient id="paint3_linear_166_6966" x1="262.52" y1="53.9361" x2="127.377" y2="29.1376" gradientUnits="userSpaceOnUse">
<stop stop-color="#FFB78A"/>
<stop offset="1" stop-color="#FFB78A" stop-opacity="0"/>
</linearGradient>
<linearGradient id="paint4_linear_166_6966" x1="216" y1="36" x2="70.8488" y2="156.512" gradientUnits="userSpaceOnUse">
<stop stop-color="#FDFF81"/>
<stop offset="0.355769" stop-color="#FFB78A" stop-opacity="0.55"/>
<stop offset="1" stop-color="#FFB78A" stop-opacity="0"/>
</linearGradient>
<linearGradient id="paint5_linear_166_6966" x1="165.328" y1="-141.541" x2="131.674" y2="186.035" gradientUnits="userSpaceOnUse">
<stop stop-color="#FFB78A"/>
<stop offset="1" stop-color="#FFB78A" stop-opacity="0"/>
</linearGradient>
<radialGradient id="paint6_radial_166_6966" cx="0" cy="0" r="1" gradientUnits="userSpaceOnUse" gradientTransform="translate(98.5 92.5) rotate(90) scale(16.5)">
<stop stop-color="#FFE3A1"/>
<stop offset="1" stop-color="#FFB78A" stop-opacity="0"/>
</radialGradient>
<radialGradient id="paint7_radial_166_6966" cx="0" cy="0" r="1" gradientUnits="userSpaceOnUse" gradientTransform="translate(178.5 65.5) rotate(90) scale(16.5)">
<stop stop-color="#FFE3A1"/>
<stop offset="1" stop-color="#FFB78A" stop-opacity="0"/>
</radialGradient>
<radialGradient id="paint8_radial_166_6966" cx="0" cy="0" r="1" gradientUnits="userSpaceOnUse" gradientTransform="translate(211.5 106.5) rotate(90) scale(16.5)">
<stop stop-color="#FFE3A1"/>
<stop offset="1" stop-color="#FFB78A" stop-opacity="0"/>
</radialGradient>
<radialGradient id="paint9_radial_166_6966" cx="0" cy="0" r="1" gradientUnits="userSpaceOnUse" gradientTransform="translate(182.5 100.5) rotate(90) scale(8.5)">
<stop stop-color="#FFE3A1"/>
<stop offset="1" stop-color="#FFB78A" stop-opacity="0"/>
</radialGradient>
<radialGradient id="paint10_radial_166_6966" cx="0" cy="0" r="1" gradientUnits="userSpaceOnUse" gradientTransform="translate(110.5 56.5) rotate(90) scale(8.5)">
<stop stop-color="#FFE3A1"/>
<stop offset="1" stop-color="#FFB78A" stop-opacity="0"/>
</radialGradient>
<radialGradient id="paint11_radial_166_6966" cx="0" cy="0" r="1" gradientUnits="userSpaceOnUse" gradientTransform="translate(127.5 65.5) rotate(90) scale(8.5)">
<stop stop-color="#FFE3A1"/>
<stop offset="1" stop-color="#FFB78A" stop-opacity="0"/>
</radialGradient>
<radialGradient id="paint12_radial_166_6966" cx="0" cy="0" r="1" gradientUnits="userSpaceOnUse" gradientTransform="translate(56.5 114.5) rotate(90) scale(8.5)">
<stop stop-color="#FFE3A1"/>
<stop offset="1" stop-color="#FFB78A" stop-opacity="0"/>
</radialGradient>
<radialGradient id="paint13_radial_166_6966" cx="0" cy="0" r="1" gradientUnits="userSpaceOnUse" gradientTransform="translate(65.5 156.5) rotate(90) scale(8.5)">
<stop stop-color="#FFE3A1"/>
<stop offset="1" stop-color="#FFB78A" stop-opacity="0"/>
</radialGradient>
<radialGradient id="paint14_radial_166_6966" cx="0" cy="0" r="1" gradientUnits="userSpaceOnUse" gradientTransform="translate(48 133) rotate(90) scale(4)">
<stop stop-color="#FFE3A1"/>
<stop offset="1" stop-color="#FFB78A" stop-opacity="0"/>
</radialGradient>
<radialGradient id="paint15_radial_166_6966" cx="0" cy="0" r="1" gradientUnits="userSpaceOnUse" gradientTransform="translate(98 65) rotate(90) scale(4)">
<stop stop-color="#FFE3A1"/>
<stop offset="1" stop-color="#FFB78A" stop-opacity="0"/>
</radialGradient>
<radialGradient id="paint16_radial_166_6966" cx="0" cy="0" r="1" gradientUnits="userSpaceOnUse" gradientTransform="translate(149 41) rotate(90) scale(4)">
<stop stop-color="#FFE3A1"/>
<stop offset="1" stop-color="#FFB78A" stop-opacity="0"/>
</radialGradient>
<radialGradient id="paint17_radial_166_6966" cx="0" cy="0" r="1" gradientUnits="userSpaceOnUse" gradientTransform="translate(188.5 125.5) rotate(90) scale(2.5)">
<stop stop-color="#FFE3A1"/>
<stop offset="1" stop-color="#FFB78A" stop-opacity="0"/>
</radialGradient>
<radialGradient id="paint18_radial_166_6966" cx="0" cy="0" r="1" gradientUnits="userSpaceOnUse" gradientTransform="translate(219.5 156.5) rotate(90) scale(2.5)">
<stop stop-color="#FFE3A1"/>
<stop offset="1" stop-color="#FFB78A" stop-opacity="0"/>
</radialGradient>
<radialGradient id="paint19_radial_166_6966" cx="0" cy="0" r="1" gradientUnits="userSpaceOnUse" gradientTransform="translate(108.5 71.5) rotate(90) scale(2.5)">
<stop stop-color="#FFE3A1"/>
<stop offset="1" stop-color="#FFB78A" stop-opacity="0"/>
</radialGradient>
<radialGradient id="paint20_radial_166_6966" cx="0" cy="0" r="1" gradientUnits="userSpaceOnUse" gradientTransform="translate(155.5 118.5) rotate(90) scale(2.5)">
<stop stop-color="#FFE3A1"/>
<stop offset="1" stop-color="#FFB78A" stop-opacity="0"/>
</radialGradient>
<radialGradient id="paint21_radial_166_6966" cx="0" cy="0" r="1" gradientUnits="userSpaceOnUse" gradientTransform="translate(79.5 125.5) rotate(90) scale(2.5)">
<stop stop-color="#FFE3A1"/>
<stop offset="1" stop-color="#FFB78A" stop-opacity="0"/>
</radialGradient>
<radialGradient id="paint22_radial_166_6966" cx="0" cy="0" r="1" gradientUnits="userSpaceOnUse" gradientTransform="translate(142.5 94.5) rotate(90) scale(2.5)">
<stop stop-color="#FFE3A1"/>
<stop offset="1" stop-color="#FFB78A" stop-opacity="0"/>
</radialGradient>
<radialGradient id="paint23_radial_166_6966" cx="0" cy="0" r="1" gradientUnits="userSpaceOnUse" gradientTransform="translate(110.5 147.5) rotate(90) scale(6.5)">
<stop stop-color="#FFE3A1"/>
<stop offset="1" stop-color="#FFB78A" stop-opacity="0"/>
</radialGradient>
<radialGradient id="paint24_radial_166_6966" cx="0" cy="0" r="1" gradientUnits="userSpaceOnUse" gradientTransform="translate(73.5 141.5) rotate(90) scale(6.5)">
<stop stop-color="#FFE3A1"/>
<stop offset="1" stop-color="#FFB78A" stop-opacity="0"/>
</radialGradient>
<radialGradient id="paint25_radial_166_6966" cx="0" cy="0" r="1" gradientUnits="userSpaceOnUse" gradientTransform="translate(75.5 196.5) rotate(90) scale(6.5)">
<stop stop-color="#FFE3A1"/>
<stop offset="1" stop-color="#FFB78A" stop-opacity="0"/>
</radialGradient>
<radialGradient id="paint26_radial_166_6966" cx="0" cy="0" r="1" gradientUnits="userSpaceOnUse" gradientTransform="translate(202.5 178.5) rotate(90) scale(13.5)">
<stop stop-color="#FFE3A1"/>
<stop offset="1" stop-color="#FFB78A" stop-opacity="0"/>
</radialGradient>
<radialGradient id="paint27_radial_166_6966" cx="0" cy="0" r="1" gradientUnits="userSpaceOnUse" gradientTransform="translate(204.5 125.5) rotate(90) scale(13.5)">
<stop stop-color="#FFE3A1"/>
<stop offset="1" stop-color="#FFB78A" stop-opacity="0"/>
</radialGradient>
</defs>
</svg>
