<svg width="171" height="25" viewBox="0 0 171 25" fill="none" xmlns="http://www.w3.org/2000/svg">
  <g clip-path="url(#clip0_301_9727)">
    <path d="M163.99 9.77999C165.453 7.5934 167.536 6.44854 170.242 6.34537V9.13072C167.55 9.23612 165.549 10.2779 164.239 12.2558V22.378H166.716V24.4703H159.24V22.3679H161.097V8.88181H159.24V6.77931H162.8L163.99 9.77999ZM146.791 10.1534C146.181 11.037 145.845 12.3825 145.782 14.1901H154.479C154.419 12.3938 154.095 11.0516 153.52 10.1534C152.945 9.2552 151.818 8.8078 150.156 8.8078C148.493 8.8078 147.407 9.25182 146.791 10.1534ZM146.454 24.3257C145.502 23.9808 144.683 23.3409 144.119 22.4991C143.554 21.6288 143.164 20.6563 142.972 19.6363C142.732 18.3147 142.619 16.973 142.636 15.6299C142.636 14.5377 142.676 13.5936 142.757 12.7975C142.854 11.9472 143.051 11.1115 143.346 10.3081C143.605 9.52303 144.034 8.80431 144.601 8.20229C145.227 7.59964 145.977 7.14044 146.798 6.85671C147.879 6.48326 149.018 6.30556 150.163 6.33191C151.299 6.30515 152.432 6.4829 153.507 6.85671C154.319 7.14106 155.058 7.60042 155.673 8.20229C156.227 8.80587 156.64 9.52521 156.881 10.3081C157.156 11.1153 157.342 11.9499 157.436 12.7975C157.527 13.7388 157.568 14.6842 157.561 15.6299V16.4338H145.761C145.802 18.6451 146.138 20.1981 146.771 21.0929C147.403 21.9877 148.605 22.4363 150.374 22.4385C151.987 22.4385 153.096 22.1391 153.702 21.5403C154.311 20.9415 154.657 20.0669 154.741 18.9097L157.309 19.0342C157.253 19.8058 157.112 20.5687 156.884 21.3082C156.662 21.9734 156.32 22.5924 155.875 23.1348C155.321 23.7811 154.589 24.2492 153.769 24.4804C152.653 24.8031 151.495 24.9539 150.334 24.9278C149.029 24.9675 147.728 24.7679 146.495 24.3391L146.454 24.3257ZM136.156 21.029V9.59158C134.935 9.10353 133.632 8.8513 132.317 8.84818C131.647 8.83451 130.98 8.9487 130.352 9.18456C129.849 9.36882 129.398 9.67105 129.036 10.0659C128.675 10.4942 128.411 10.9958 128.263 11.536C128.078 12.1411 127.953 12.7631 127.893 13.3928C127.83 14.023 127.798 14.781 127.798 15.6669C127.792 16.4103 127.824 17.1535 127.893 17.8938C127.954 18.5178 128.072 19.1348 128.246 19.7373C128.387 20.2784 128.64 20.7839 128.989 21.2207C129.342 21.6271 129.789 21.9412 130.291 22.1358C130.918 22.3751 131.586 22.4893 132.256 22.4721C133.682 22.464 135.06 21.961 136.156 21.0492V21.029ZM136.829 22.9364C135.349 24.2172 133.463 24.9323 131.506 24.9547C130.466 24.9791 129.43 24.8009 128.458 24.4299C127.692 24.1394 127.002 23.6794 126.439 23.0844C125.913 22.4732 125.527 21.7545 125.308 20.9785C125.051 20.1684 124.875 19.3345 124.784 18.4892C124.617 16.6046 124.617 14.709 124.784 12.8243C124.876 11.9779 125.058 11.1435 125.325 10.335C125.552 9.55956 125.942 8.84153 126.469 8.22921C127.033 7.63498 127.723 7.1751 128.488 6.88363C129.476 6.51206 130.527 6.33389 131.583 6.35884C133.139 6.37625 134.68 6.67011 136.132 7.22672V3.61386H134.275V1.5114H139.258V22.3679H141.115V24.4703H137.185L136.829 22.9364ZM118.479 3.95026C118.226 3.77029 118.045 3.50706 117.967 3.20683C117.907 2.86483 117.882 2.51779 117.89 2.17073C117.881 1.8136 117.907 1.45647 117.967 1.10437C118.045 0.804137 118.226 0.540899 118.479 0.360924C118.837 0.100541 119.275 -0.0256771 119.717 0.00434694C120.074 -0.00884975 120.432 0.0494793 120.766 0.175912C121.014 0.270614 121.215 0.459146 121.325 0.700686C121.422 0.91499 121.49 1.14124 121.527 1.37348C121.562 1.64002 121.577 1.9087 121.574 2.17746C121.577 2.43058 121.561 2.68358 121.527 2.93435C121.488 3.16615 121.42 3.39217 121.325 3.60714C121.274 3.73068 121.198 3.84244 121.102 3.93557C121.005 4.0287 120.892 4.10124 120.766 4.14873C120.432 4.27516 120.074 4.33349 119.717 4.3203C119.275 4.35032 118.837 4.2241 118.479 3.96372V3.95026ZM116.278 6.79615H121.264V22.3948H123.121V24.4703H116.278V22.3679H118.135V8.88181H116.278V6.79615ZM113.506 6.79615V13.1708H111.487C111.386 11.3969 110.999 10.2308 110.326 9.67235C109.653 9.11393 108.483 8.83581 106.814 8.83805C105.692 8.83805 104.877 9.07017 104.367 9.53441C104.112 9.76575 103.91 10.0504 103.776 10.3684C103.642 10.6864 103.58 11.0298 103.594 11.3745C103.574 11.6734 103.62 11.9731 103.73 12.2518C103.84 12.5305 104.011 12.7812 104.23 12.9858C104.839 13.4432 105.542 13.7603 106.289 13.9142L109.317 14.7182C110.99 15.1533 112.208 15.7364 112.971 16.4675C113.734 17.1986 114.115 18.2975 114.115 19.7642C114.115 23.2088 112.041 24.9312 107.894 24.9312C105.501 24.9312 103.716 24.1777 102.541 22.6706L102.601 24.4972H100.465V18.1057H102.446C102.743 21.0032 104.365 22.452 107.315 22.452C109.771 22.452 110.999 21.6065 110.999 19.9155C111.01 19.6379 110.963 19.361 110.862 19.1022C110.76 18.8435 110.607 18.6085 110.411 18.4118C110.02 18.0317 109.337 17.7054 108.368 17.4397L105.34 16.666C103.624 16.1681 102.39 15.5637 101.639 14.8528C100.888 14.1419 100.5 12.9746 100.475 11.3509C100.451 10.6738 100.574 9.99943 100.836 9.37453C101.098 8.74958 101.493 8.18898 101.993 7.73134C103.001 6.80286 104.518 6.33867 106.541 6.33867C108.728 6.33867 110.349 6.95764 111.403 8.19553L111.373 6.77261L113.506 6.79615ZM80.1567 6.79615H83.7163L84.6753 8.55889C86.6936 7.09667 88.7988 6.36445 90.9902 6.36221C94.5611 6.36221 96.3456 8.22921 96.3435 11.9632V22.3914H98.2007V24.4703H91.4544V22.3679H93.1873V12.1314C93.1873 10.9383 92.9628 10.0872 92.5142 9.57812C92.0656 9.06908 91.3166 8.81679 90.2672 8.82126C88.4723 8.82126 86.7601 9.4604 85.1296 10.7387V22.378H86.862V24.4703H80.1734V22.3679H82.0306V8.88181H80.1734L80.1567 6.79615ZM70.433 1.90498H77.707V4.01081H75.6647V22.3948H77.707V24.4703H70.433V22.3679H72.4789V3.99399H70.433V1.90498ZM50.0945 1.53495H55.0774V8.26284C56.7948 7.06221 58.8329 6.40478 60.9282 6.37568C64.497 6.37568 66.2815 8.24267 66.2815 11.9766V22.4048H68.1387V24.4703H61.4095V22.3679H63.1419V12.1314C63.1419 10.9383 62.9179 10.0872 62.4693 9.57812C62.0208 9.06908 61.2728 8.81679 60.2249 8.82126C58.4306 8.82126 56.7179 9.4604 55.0873 10.7387V22.378H56.8203V24.4703H50.0911V22.3679H51.9483V3.61386H50.0945V1.53495ZM48.0421 6.79615V13.2953H46.0234C45.734 10.3238 44.2178 8.83805 41.4745 8.83805C40.6705 8.80816 39.8733 8.99527 39.1665 9.37968C38.5547 9.74428 38.0859 10.3068 37.8375 10.9742C37.5656 11.6494 37.378 12.3555 37.279 13.0767C37.1791 13.9296 37.1331 14.7879 37.141 15.6467C37.141 16.5146 37.1612 17.2423 37.2016 17.8299C37.252 18.4475 37.3647 19.0583 37.5381 19.6532C37.6717 20.1999 37.9193 20.7124 38.2648 21.1569C38.6217 21.5608 39.0658 21.8783 39.5635 22.0853C40.2033 22.3477 40.8909 22.4736 41.5822 22.4553C43.1523 22.4553 44.2211 22.1716 44.7886 21.6043C45.3539 21.0358 45.6701 20.1342 45.7307 18.8963L48.2372 19.0207C48.2025 19.8535 48.0681 20.6791 47.8369 21.4798C47.6194 22.1478 47.2666 22.7638 46.8006 23.2896C46.2416 23.8926 45.521 24.3223 44.7247 24.5275C43.6283 24.8223 42.4952 24.9583 41.3602 24.9312C40.2229 24.9577 39.0902 24.7799 38.0158 24.4064C37.2127 24.1601 36.4851 23.7144 35.9008 23.1108C35.3166 22.5073 34.8948 21.7656 34.6748 20.955C34.4012 20.1529 34.2195 19.3222 34.1331 18.4792C34.0591 17.7054 34.0255 16.7601 34.0255 15.6467C34.0255 14.5332 34.0659 13.6048 34.1466 12.8008C34.2409 11.9504 34.434 11.1139 34.7219 10.3081C34.9735 9.53181 35.3902 8.81918 35.9432 8.21913C36.5494 7.62095 37.2784 7.1618 38.0797 6.87354C39.1219 6.5012 40.2235 6.32329 41.3299 6.34875C43.3127 6.34875 44.8503 7.0092 45.9426 8.33009L45.909 6.78269L48.0421 6.79615ZM21.1562 10.1601C20.546 11.0437 20.2096 12.3893 20.1468 14.1968H28.8475C28.7846 12.4027 28.4639 11.0572 27.8852 10.1601C27.3099 9.27204 26.1828 8.8145 24.5207 8.8145C22.8586 8.8145 21.7685 9.25858 21.1562 10.1601ZM20.8197 24.3324C19.8659 23.9875 19.0468 23.3477 18.4814 22.5058C17.9168 21.6353 17.5281 20.6628 17.3374 19.643C17.0954 18.3217 16.9827 16.9798 17.001 15.6366C16.9936 14.691 17.0352 13.7455 17.1255 12.8042C17.2205 11.9536 17.4181 11.1178 17.7143 10.3149C17.9744 9.53077 18.4014 8.81232 18.9659 8.20899C19.5931 7.60634 20.3439 7.14724 21.1662 6.86346C22.2476 6.48971 23.387 6.31201 24.5308 6.33867C25.6669 6.31211 26.7985 6.48986 27.8717 6.86346C28.6843 7.14688 29.4242 7.60634 30.0385 8.20899C30.5937 8.81169 31.0065 9.53134 31.2464 10.3149C31.5222 11.1219 31.7094 11.9566 31.8049 12.8042C31.8857 13.5981 31.9294 14.5433 31.9294 15.6366V16.4406H20.1199C20.1602 18.6518 20.4967 20.2048 21.1292 21.0996C21.7618 21.9944 22.964 22.443 24.736 22.4452C26.3443 22.4452 27.4534 22.1458 28.0635 21.547C28.6725 20.9483 29.0191 20.0736 29.0998 18.9164L31.6703 19.0409C31.6088 19.8125 31.4633 20.575 31.2363 21.3149C31.0135 21.98 30.6714 22.599 30.2269 23.1416C29.6741 23.7877 28.9425 24.2559 28.1241 24.4872C26.9976 24.806 25.8289 24.9501 24.6586 24.9143C23.3538 24.9543 22.0526 24.7548 20.8197 24.3257V24.3324ZM14.4271 7.39828V4.37075H9.96909V22.3847H12.5059V24.4703H4.24267V22.3679H6.77951V4.36403H2.35517V7.39158H0V1.88816H16.7486V7.39828H14.4271Z" fill="white" />
  </g>
  <defs>
    <clipPath id="clip0_301_9727">
      <rect width="170.283" height="25" fill="white" />
    </clipPath>
  </defs>
</svg>