<svg width="498rem" height="903rem" viewBox="0 0 498 903" fill="none" xmlns="http://www.w3.org/2000/svg">
  <rect y="249" width="498" height="654" fill="url(#paint0_linear_162_6339)" />
  <path d="M498 249C498 180.233 473.683 121.533 425.05 72.9C376.45 24.3 317.767 0 249 0C180.233 0 121.533 24.3 72.9 72.9C24.3 121.533 0 180.233 0 249C0 317.767 24.3 376.45 72.9 425.05C121.533 473.683 180.233 498 249 498C317.767 498 376.45 473.683 425.05 425.05C473.683 376.45 498 317.767 498 249Z" fill="url(#paint1_radial_162_6339)" />
  <path d="M309.25 491.2C311.417 490.667 313.567 490.117 315.7 489.55C336.634 483.95 356.417 475.583 375.05 464.45C382.584 459.917 389.95 454.933 397.15 449.5C397.084 449.033 396.984 448.567 396.85 448.1C396.317 446.233 395.367 444.783 394 443.75C392.067 442.35 389.267 441.8 385.6 442.1C383.834 442.2 382.05 442.383 380.25 442.65C374.117 443.45 367.784 445.017 361.25 447.35C354.284 449.883 346.7 453.433 338.5 458C332 461.533 326.734 464.95 322.7 468.25C317.367 472.55 313.334 477.217 310.6 482.25C310.567 482.35 310.517 482.45 310.45 482.55C308.917 485.483 308.384 487.967 308.85 490C308.95 490.4 309.084 490.8 309.25 491.2ZM290.3 309.35C289.967 309.45 289.65 309.567 289.35 309.7C287.284 311.1 284.75 313.267 281.75 316.2C278.017 319.867 275.017 322.333 272.75 323.6C271.017 324.633 269.1 325.467 267 326.1C265.5 326.5 263.917 326.817 262.25 327.05C261.784 327.117 261.317 327.167 260.85 327.2C257.184 327.533 252.934 327.383 248.1 326.75C242.567 325.817 238.4 325.15 235.6 324.75C230.7 324.017 226.5 323.717 223 323.85C219.3 323.95 215.984 324.617 213.05 325.85C210.717 326.817 208.8 328.1 207.3 329.7C206.6 330.4 206 331.167 205.5 332C203.434 335.167 202.95 338.783 204.05 342.85C204.95 346.217 206.667 348.783 209.2 350.55C209.7 350.883 210.25 351.2 210.85 351.5C213.717 352.933 217.034 353.367 220.8 352.8C224 352.3 227.317 351.117 230.75 349.25C231.55 348.817 234.467 346.95 239.5 343.65C243.034 341.35 246.067 339.717 248.6 338.75C252.367 337.25 256.95 336.35 262.35 336.05C262.884 336.017 263.667 336 264.7 336H264.75C267.25 336 271.25 336.017 276.75 336.05C280.417 336.083 283.617 336 286.35 335.8C287.95 335.667 289.4 335.483 290.7 335.25C295.567 334.35 299.7 332.633 303.1 330.1C305.334 328.433 307.034 326.45 308.2 324.15C309.5 321.583 309.85 319.117 309.25 316.75C308.584 314.117 306.917 312 304.25 310.4C301.784 308.9 299.067 308.183 296.1 308.25C294.267 308.317 292.334 308.683 290.3 309.35ZM57.8002 352.85C57.4669 352.85 57.1502 352.85 56.8502 352.85C46.2502 353.05 36.8002 352.05 28.5002 349.85C27.3002 349.517 26.1335 349.167 25.0002 348.8C22.9335 348.133 20.9502 347.383 19.0502 346.55C20.3169 349.55 21.6669 352.533 23.1002 355.5C25.2335 356.333 27.4835 357.1 29.8502 357.8C32.3835 358.5 35.0502 359.1 37.8502 359.6C43.1835 360.533 50.1502 361.183 58.7502 361.55C59.9502 361.617 61.1835 361.667 62.4502 361.7C75.4502 362.133 83.8169 362.533 87.5502 362.9C96.8835 363.767 104.9 365.467 111.6 368C113.934 368.867 116.067 369.833 118 370.9C123.034 373.7 126.617 377.183 128.75 381.35C129.55 382.983 130.017 384.583 130.15 386.15C130.317 387.95 130.017 389.517 129.25 390.85C128.517 392.183 127.35 393.267 125.75 394.1C125.517 394.233 125.267 394.367 125 394.5C123.9 395 122.567 395.45 121 395.85C110.6 398.45 98.6335 398.833 85.1002 397C77.9335 396 70.9002 394.517 64.0002 392.55C57.0335 390.55 50.2002 388.067 43.5002 385.1C41.7669 384.333 40.0502 383.533 38.3502 382.7C48.0169 397.567 59.5335 411.683 72.9002 425.05C73.0002 425.15 73.1002 425.25 73.2002 425.35C77.8002 429.917 82.4835 434.283 87.2502 438.45C96.1835 441.217 104.967 442.233 113.6 441.5C117.5 441.2 124.517 439.883 134.65 437.55C135.417 437.383 136.184 437.217 136.95 437.05C144.65 435.383 150.867 434.617 155.6 434.75C156.834 434.783 158.184 434.883 159.65 435.05C164.684 435.617 170.9 437.033 178.3 439.3C188.934 442.567 196.45 444.467 200.85 445C207.85 445.933 214.8 445.567 221.7 443.9C221.834 443.867 221.984 443.833 222.15 443.8C222.484 443.7 222.85 443.6 223.25 443.5C223.484 443.433 223.734 443.367 224 443.3C224.867 443.033 225.734 442.767 226.6 442.5C228.767 441.767 230.934 440.9 233.1 439.9C243.634 435.067 251.967 428.05 258.1 418.85C262.5 412.25 264.834 405.2 265.1 397.7C265.4 389.5 262.95 383.05 257.75 378.35C256.317 377.05 254.717 375.967 252.95 375.1C249.75 373.5 246.05 372.6 241.85 372.4C236.317 372.1 230.367 373 224 375.1C219.434 376.833 215.567 378.3 212.4 379.5C210.434 380.233 208.734 380.85 207.3 381.35C205.8 381.883 204.367 382.383 203 382.85C202.567 382.95 202.167 383.067 201.8 383.2C197.434 384.467 193.534 385.183 190.1 385.35C180.2 385.917 168.367 382.2 154.6 374.2C152.734 373.067 151 372.017 149.4 371.05C148.3 370.383 147.25 369.75 146.25 369.15C142.75 367.05 139.884 365.35 137.65 364.05C130.984 360.25 125.1 357.483 120 355.75C117.9 355.05 115.667 354.433 113.3 353.9C106.267 352.333 98.1169 351.6 88.8502 351.7C75.2502 352.367 64.9002 352.75 57.8002 352.85ZM180.85 415C180.884 414.833 180.934 414.667 181 414.5C181.467 412.733 182.45 411.167 183.95 409.8C185.317 408.5 186.917 407.517 188.75 406.85C190.35 406.25 192.184 405.833 194.25 405.6C195.584 405.433 197.45 405.317 199.85 405.25L210.85 404.75C210.917 404.75 210.967 404.75 211 404.75C212.134 404.85 213.25 404.967 214.35 405.1C214.85 405.167 215.334 405.233 215.8 405.3C220.6 405.867 224.5 406.533 227.5 407.3C231.967 408.433 235.784 409.983 238.95 411.95C239.184 412.083 239.4 412.217 239.6 412.35C242.667 414.45 244.3 416.617 244.5 418.85C244.567 420.817 243.65 422.983 241.75 425.35C238.384 429.517 234.3 432.817 229.5 435.25C227.8 436.117 226 436.883 224.1 437.55C223.534 437.75 222.967 437.95 222.4 438.15C222.334 438.15 222.284 438.167 222.25 438.2C221.784 438.3 221.334 438.417 220.9 438.55C218.634 439.15 216.384 439.55 214.15 439.75C210.317 440.083 206.517 439.833 202.75 439C198.084 437.967 193.934 436.083 190.3 433.35C186.367 430.45 183.55 426.95 181.85 422.85C180.617 419.917 180.284 417.3 180.85 415ZM148.85 266.95C147.484 267.217 146.367 267.767 145.5 268.6C144.4 269.667 143.734 271.05 143.5 272.75C143.267 274.383 143.467 275.967 144.1 277.5C145.067 279.733 147.117 282.1 150.25 284.6C153.95 287.567 157.367 289.15 160.5 289.35C162 289.483 163.417 289.317 164.75 288.85C165.217 288.683 165.667 288.483 166.1 288.25C167.934 287.25 169.15 285.867 169.75 284.1C170.517 281.467 169.75 278.333 167.45 274.7C165.117 273.3 162.5 271.733 159.6 270C159.3 269.833 159 269.667 158.7 269.5C156.134 268.133 154.1 267.3 152.6 267C151.334 266.733 150.084 266.717 148.85 266.95ZM53.8502 166.75C56.0169 165.883 61.3502 164.55 69.8502 162.75C73.2169 162.05 76.1835 161.2 78.7502 160.2C81.1835 159.267 83.2169 158.2 84.8502 157C86.8835 155.533 88.3669 153.783 89.3002 151.75C90.3335 149.45 90.3502 147.367 89.3502 145.5C88.3835 143.6 86.6502 142.383 84.1502 141.85C83.9502 141.817 83.7669 141.783 83.6002 141.75C81.7002 141.417 79.5335 141.45 77.1002 141.85C70.1002 143.483 64.8502 144.633 61.3502 145.3C55.1502 146.533 49.9502 146.633 45.7502 145.6C44.0169 145.133 41.5502 144.2 38.3502 142.8C36.1835 141.833 34.3669 141.1 32.9002 140.6C32.1669 140.333 31.5335 140.133 31.0002 140C28.7669 139.367 26.6169 139.183 24.5502 139.45C17.1169 154.483 11.3835 170.233 7.3502 186.7C13.7169 187.1 19.8002 186.067 25.6002 183.6C25.7669 183.5 25.9335 183.417 26.1002 183.35C29.0335 181.983 33.6169 179.133 39.8502 174.8C45.5835 170.8 50.2502 168.117 53.8502 166.75ZM120.25 83.1C116.817 84.4667 113.767 85.1 111.1 85C109.4 84.9667 106.45 84.3167 102.25 83.05C98.5502 81.9501 95.6335 81.55 93.5002 81.85C92.1669 82.0834 91.0335 82.5667 90.1002 83.3C89.4335 83.8 88.9835 84.3667 88.7502 85C88.5835 85.4001 88.5002 85.8167 88.5002 86.25C88.5002 87.3834 88.9669 88.4 89.9002 89.3C90.3335 89.7334 90.8669 90.1334 91.5002 90.5C94.0002 92.0667 97.1169 92.9167 100.85 93.05C103.384 93.15 106.717 92.8834 110.85 92.25C117.484 91.2834 122.3 90.4667 125.3 89.8C128 89.2001 130.534 88.5167 132.9 87.75C134.4 86.65 135.434 85.6834 136 84.85C136.467 83.9834 136.7 83.1001 136.7 82.2001C136.734 81.2001 136.45 80.3834 135.85 79.75C135.384 79.2167 134.8 78.85 134.1 78.65C132.8 78.3167 131.1 78.55 129 79.35C125.134 81.0834 122.217 82.3334 120.25 83.1ZM293.85 157.1C292.417 154.667 290.1 153.133 286.9 152.5C283.867 151.9 280.95 152.233 278.15 153.5H278.1C277.6 153.733 277.1 153.983 276.6 154.25C276.5 154.383 276.417 154.5 276.35 154.6C275.117 156.7 273.934 159.483 272.8 162.95C270.967 168.683 270.034 171.567 270 171.6C268.134 176.633 265.467 181.317 262 185.65C258.6 189.917 254.634 193.567 250.1 196.6C248.534 197.6 247.4 198.467 246.7 199.2C245.634 200.367 245.15 201.583 245.25 202.85C245.284 203.983 245.834 204.95 246.9 205.75C247.867 206.517 248.984 206.933 250.25 207C251.284 207 252.434 206.767 253.7 206.3C254.467 206 255.567 205.483 257 204.75C264.2 200.65 270.734 195.883 276.6 190.45C281.534 185.817 286 180.7 290 175.1C292.267 171.967 293.8 168.983 294.6 166.15C295.6 162.617 295.35 159.6 293.85 157.1ZM280 72.15C279.7 72.1834 279.417 72.2001 279.15 72.2001C271.217 72.6667 265 73.9334 260.5 76C260 76.2334 259.534 76.4667 259.1 76.7001C256.434 78.1334 254.65 79.9001 253.75 82C253.15 83.7667 253.184 85.1834 253.85 86.25C253.884 86.3167 253.934 86.4 254 86.5C254.6 87.3667 255.684 88.1167 257.25 88.75C261.217 90.2167 265.834 90.7334 271.1 90.3C274.667 90.0334 279.384 89.1834 285.25 87.75C286.15 87.5167 286.984 87.3 287.75 87.1001C288.25 86.9334 288.717 86.7834 289.15 86.65C289.717 86.4834 290.217 86.3167 290.65 86.15C292.584 85.45 294.2 84.5667 295.5 83.5C297.134 81.8667 297.834 80.2834 297.6 78.75C297.267 77.1501 295.984 75.9334 293.75 75.1C293.084 74.8 292.284 74.5334 291.35 74.3C290.25 73.9667 288.984 73.6667 287.55 73.4C286.617 73.2 285.634 73.0167 284.6 72.85C282.934 72.5834 281.4 72.35 280 72.15ZM299.8 54.4C299.267 54.6 298.75 54.8167 298.25 55.05C296.35 55.85 294.467 56.7834 292.6 57.85C291.6 58.45 290.85 59.0334 290.35 59.6C290.084 60 289.917 60.4501 289.85 60.9501C289.784 61.4834 289.867 61.95 290.1 62.35C291.367 63.1167 293.084 63.2334 295.25 62.7001C295.684 62.5667 296.134 62.4167 296.6 62.25C299 61.1501 300.967 60.0667 302.5 59C303.967 57.9001 304.55 56.85 304.25 55.85C303.85 54.85 302.967 54.35 301.6 54.35C301.1 54.2834 300.5 54.3 299.8 54.4ZM400.95 393.65C391.417 395.117 386.2 395.933 385.3 396.1C384.4 396.267 383.517 396.433 382.65 396.6C371.484 398.7 362.55 401.75 355.85 405.75C350.517 408.883 345.167 413.333 339.8 419.1C339.534 419.367 339.267 419.65 339 419.95C336.234 422.983 331.467 428.817 324.7 437.45C319.434 444.183 314.984 449.4 311.35 453.1C310.95 453.533 310.55 453.933 310.15 454.3C307.517 456.9 304.834 459.183 302.1 461.15C298.9 463.483 295.65 465.383 292.35 466.85C286.884 469.317 280.467 470.95 273.1 471.75C268.434 472.25 261.734 472.5 253 472.5L226.85 472.6C226.15 472.6 225.45 472.617 224.75 472.65C221.35 472.683 218.084 472.767 214.95 472.9C201.384 473.533 190.1 475.133 181.1 477.7C179.734 478.1 178.417 478.517 177.15 478.95C172.75 480.417 168.75 482.183 165.15 484.25C171.617 486.517 178.217 488.517 184.95 490.25C192.784 492.25 200.784 493.867 208.95 495.1C209.284 494.1 209.75 493.083 210.35 492.05C211.45 490.15 212.75 488.533 214.25 487.2C216.25 485.367 218.617 484.083 221.35 483.35C222.484 483.017 223.667 482.783 224.9 482.65C225.334 482.583 225.8 482.533 226.3 482.5C229 482.267 231.967 482.4 235.2 482.9C237.8 483.3 242.434 484.417 249.1 486.25C254.7 487.783 259.4 488.633 263.2 488.8C268.4 489.033 272.867 488.133 276.6 486.1C279.834 484.4 283.734 480.7 288.3 475C292.867 469.267 296.717 465.55 299.85 463.85C300.65 463.417 301.584 463 302.65 462.6C304.25 462 306.134 461.45 308.3 460.95C313.467 459.75 316.367 459.05 317 458.85C323.434 456.917 331.067 452.15 339.9 444.55C350.134 435.717 357.5 430.15 362 427.85C368.234 424.683 374.934 423 382.1 422.8C382.967 422.767 383.85 422.767 384.75 422.8C392.95 422.967 400.484 424.983 407.35 428.85C408.717 429.65 410.034 430.5 411.3 431.4C412.634 432.367 413.917 433.4 415.15 434.5C415.384 434.3 415.617 434.1 415.85 433.9C418.95 431.033 422.017 428.083 425.05 425.05C446.217 403.883 462.784 380.8 474.75 355.8C472.95 357.8 471.05 359.75 469.05 361.65C458.117 372.15 446.084 380.1 432.95 385.5C427.65 387.667 422.167 389.417 416.5 390.75C414.234 391.283 411.634 391.833 408.7 392.4C406.334 392.8 403.75 393.217 400.95 393.65ZM403 351.6C403.134 350.667 403.05 350 402.75 349.6C402.25 348.833 401.25 348.383 399.75 348.25C399.35 348.25 398.95 348.267 398.55 348.3C394.984 350.1 392.25 351.833 390.35 353.5C388.017 355.533 386.85 357.567 386.85 359.6C386.717 360.267 386.85 360.767 387.25 361.1C387.484 361.433 388.067 361.6 389 361.6C391.567 361.4 394.6 360.033 398.1 357.5C400.967 355.5 402.6 353.533 403 351.6ZM368 357.85C371.234 357.55 373.767 356.433 375.6 354.5C376.434 353.5 376.85 352.5 376.85 351.5C376.85 350.367 376.15 349.233 374.75 348.1C373.284 346.9 371.367 345.967 369 345.3C365.734 345.367 362.267 345.933 358.6 347C355.667 347.833 354 349.117 353.6 350.85C353.367 352.25 353.95 353.583 355.35 354.85C356.35 355.583 357.734 356.167 359.5 356.6C362.967 357.533 365.8 357.95 368 357.85ZM479.35 152.45C478.884 158.15 478.117 163.717 477.05 169.15C474.317 182.65 469.75 194.767 463.35 205.5C456.384 217.067 447.45 226.517 436.55 233.85C429.45 238.617 422.134 242.067 414.6 244.2C409.9 245.5 405.117 246.3 400.25 246.6C397.35 246.767 393.584 246.767 388.95 246.6C382.484 246.367 378.7 246.25 377.6 246.25C372.967 246.217 368.8 246.55 365.1 247.25C361.7 247.883 358.7 248.833 356.1 250.1C351.867 252.167 346.65 256.383 340.45 262.75C334.184 269.15 329.25 273.467 325.65 275.7C325.45 275.8 325.267 275.9 325.1 276C320.167 278.867 314.284 280.667 307.45 281.4C304.15 281.733 299.884 281.85 294.65 281.75C292.65 281.717 290.517 281.65 288.25 281.55C281.984 281.25 277.017 281.1 273.35 281.1C271.55 281.067 270.05 281.083 268.85 281.15C261.717 281.517 255.6 282.8 250.5 285C250.467 285.033 250.434 285.05 250.4 285.05C248 286.083 245.984 287.35 244.35 288.85C242.384 290.617 241.134 292.583 240.6 294.75C239.534 299.417 241.517 303.233 246.55 306.2C250.05 308.3 253.634 309.283 257.3 309.15C258.634 309.083 259.984 308.867 261.35 308.5C263.65 307.9 266.767 306.633 270.7 304.7C272.067 304.033 273.534 303.267 275.1 302.4C280.934 299.267 285.517 297.333 288.85 296.6C290.017 296.367 291.2 296.217 292.4 296.15C300.167 295.583 308.617 298.267 317.75 304.2C320.917 306.233 325.367 309.5 331.1 314C331.7 314.467 332.284 314.917 332.85 315.35C337.95 319.317 341.75 322.15 344.25 323.85C354.55 330.817 365.85 335.25 378.15 337.15C386.317 338.417 394.917 338.567 403.95 337.6C406.784 337.3 409.584 336.9 412.35 336.4C430.75 333.067 447.134 325.35 461.5 313.25C477 300.117 488.934 283.2 497.3 262.5C497.434 262.133 497.584 261.783 497.75 261.45C497.917 257.317 498 253.167 498 249C498 245.567 497.95 242.15 497.85 238.75C497.084 241.683 496.384 244.217 495.75 246.35C493.284 254.717 490.484 262.017 487.35 268.25C483.617 275.75 479.217 282.217 474.15 287.65C468.45 293.75 462.184 298.317 455.35 301.35C452.484 302.65 447.567 304.3 440.6 306.3C434.167 308.133 429.3 309.9 426 311.6C424.5 312.367 420.55 314.867 414.15 319.1C413.884 319.3 413.617 319.483 413.35 319.65C408.917 322.483 405.084 324.35 401.85 325.25C396.617 326.617 390.85 326.467 384.55 324.8C381.95 324.1 379.15 323.117 376.15 321.85C373.584 320.717 370.867 319.383 368 317.85C362.034 314.617 359.4 311.117 360.1 307.35C360.4 305.917 361.217 304.683 362.55 303.65C363.75 302.717 365.15 302.083 366.75 301.75C368.684 301.35 370.867 301.4 373.3 301.9C375.034 302.233 376.884 302.817 378.85 303.65C381.517 304.75 385.517 306.45 390.85 308.75C397.184 310.817 403.884 310.6 410.95 308.1C411.984 307.733 412.984 307.333 413.95 306.9C419.35 304.533 424.117 301.067 428.25 296.5C428.95 295.733 431.234 292.883 435.1 287.95C437.834 284.45 440.3 281.8 442.5 280C444.7 278.167 447.817 276.267 451.85 274.3C457.684 271.433 461.017 269.75 461.85 269.25C468.617 265.45 474.7 260.117 480.1 253.25C484.934 247.083 489.017 239.95 492.35 231.85C493.85 228.217 495.234 224.267 496.5 220C493.967 196.133 488.25 173.617 479.35 152.45ZM394.35 68C396.017 61.1 396.067 54.0167 394.5 46.75C394.467 46.65 394.45 46.5667 394.45 46.5C381.184 36.7 367.267 28.4667 352.7 21.8C351 22.5 348.9 23.2834 346.4 24.15C341.667 25.7834 338.45 27.1834 336.75 28.35C334.017 30.2834 332.934 32.7 333.5 35.6C333.8 37.3334 334.917 39.1 336.85 40.9C337.917 41.9334 339.584 43.4167 341.85 45.35C345.284 48.95 346.8 53.6 346.4 59.3C346.034 64.6334 344.15 69.4 340.75 73.6C337.817 77.2 333.85 80.4001 328.85 83.2001C325.417 85.1001 320.667 87.2 314.6 89.5C312.734 90.2 310.884 90.8667 309.05 91.5C304.284 93.1667 299.734 94.6334 295.4 95.9C293.767 96.3667 292.167 96.8167 290.6 97.25C288.734 97.7167 286.9 98.1667 285.1 98.6001C282.934 99.1001 280.817 99.55 278.75 99.9501C268.717 101.883 259.25 102.683 250.35 102.35C247.45 102.217 244.617 101.967 241.85 101.6C236.884 100.967 229.85 99.5834 220.75 97.4501C217.484 96.6834 214.534 96.0167 211.9 95.4501C206.434 94.2167 202.3 93.3834 199.5 92.9501C186.3 90.8501 175.334 91.6667 166.6 95.4C164.434 96.3334 162.4 97.45 160.5 98.75C158.234 100.317 154.05 104.133 147.95 110.2C142.917 115.167 138.467 118.467 134.6 120.1C129.134 122.467 121.267 123 111 121.7C110.234 121.6 109.5 121.517 108.8 121.45C103.167 120.717 99.8002 120.3 98.7002 120.2C95.0669 119.933 91.8002 119.967 88.9002 120.3C88.1002 120.367 87.3335 120.467 86.6002 120.6C83.3002 121.233 79.1169 122.65 74.0502 124.85C67.8835 127.55 63.7835 129.217 61.7502 129.85C57.1169 131.383 52.6669 131.883 48.4002 131.35C43.5002 130.75 39.7335 128.833 37.1002 125.6C37.0002 125.5 36.9169 125.4 36.8502 125.3C35.8835 124.033 35.1502 122.667 34.6502 121.2C32.2169 125.133 29.9335 129.117 27.8002 133.15C29.5669 133.283 31.7669 133.65 34.4002 134.25C35.4335 134.45 36.5335 134.7 37.7002 135C42.5335 136.233 46.1335 136.933 48.5002 137.1C52.4669 137.3 57.1002 136.633 62.4002 135.1C62.7335 135 67.3169 133.45 76.1502 130.45C80.4835 128.983 84.2002 128 87.3002 127.5C88.0669 127.367 88.8169 127.267 89.5502 127.2C94.2835 126.767 98.5169 127.533 102.25 129.5C103.217 130.033 104.2 130.7 105.2 131.5C107.334 133.2 109.584 135.55 111.95 138.55C116.417 144.217 119.35 147.7 120.75 149C127.884 155.733 137.334 158.667 149.1 157.8C151.634 157.6 154.167 157.25 156.7 156.75C164.334 155.25 172.05 152.333 179.85 148C185.884 144.667 194.8 139.317 206.6 131.95C206.834 131.817 207.067 131.667 207.3 131.5C218.1 125.4 227.867 121.85 236.6 120.85C239.434 120.55 246.517 120.583 257.85 120.95C258.617 120.983 259.384 121 260.15 121C267.75 121.1 273.867 120.35 278.5 118.75C279.5 118.383 280.6 117.917 281.8 117.35C283.234 116.65 284.784 115.783 286.45 114.75C288.35 113.617 290.417 112.267 292.65 110.7C298.917 106.3 303.534 103.433 306.5 102.1C307.5 101.633 308.534 101.2 309.6 100.8C314.267 99.0667 319.767 97.9167 326.1 97.3501C328.534 97.1167 335.484 96.8501 346.95 96.55C355.384 96.3167 362.05 95.6334 366.95 94.5C373.85 92.9 379.567 90.0667 384.1 86C389.167 81.4334 392.584 75.4334 394.35 68ZM434.05 93.6001C432.15 87.9667 429.534 81.4501 426.2 74.05C425.8 73.65 425.417 73.2667 425.05 72.9C422.15 70 419.217 67.2001 416.25 64.5C417.85 74.9334 416.45 85.6667 412.05 96.7001C406.684 110.1 398.4 120.1 387.2 126.7C385.567 127.633 383.867 128.517 382.1 129.35C377.467 131.483 370.384 133.767 360.85 136.2C360.75 136.2 360.65 136.217 360.55 136.25C350.65 138.75 343.467 141 339 143C329.567 147.1 319.567 154.65 309 165.65C307.3 167.417 305.584 169.267 303.85 171.2C303.417 171.667 303 172.133 302.6 172.6C295.667 180.833 290.417 186.967 286.85 191C283.117 195.2 279.6 198.917 276.3 202.15C274.067 204.317 271.917 206.267 269.85 208C260.85 215.567 250.767 221.483 239.6 225.75C237.1 226.717 234.584 227.583 232.05 228.35C223.284 230.983 214.35 232.45 205.25 232.75C204.384 232.783 203.5 232.817 202.6 232.85C201.367 232.85 200.117 232.833 198.85 232.8C191.617 232.633 183.55 231.8 174.65 230.3C163.817 228.167 155.167 226.467 148.7 225.2C148 225.067 147.35 224.95 146.75 224.85C145.917 224.65 145.117 224.483 144.35 224.35C143.95 224.283 143.567 224.217 143.2 224.15C137.967 223.217 133.617 222.65 130.15 222.45C124.917 222.183 120.2 222.617 116 223.75C112 224.817 107.234 227 101.7 230.3C98.1002 232.467 95.2002 234.2 93.0002 235.5C90.4002 237 88.7335 237.917 88.0002 238.25C79.7002 242.35 70.9002 244.267 61.6002 244C57.5669 243.9 53.4335 243.383 49.2002 242.45C38.3335 240.05 29.1669 235.45 21.7002 228.65C19.5669 226.717 17.5835 224.617 15.7502 222.35C15.7169 222.317 13.8502 219.833 10.1502 214.9C7.91686 211.9 5.9002 209.55 4.1002 207.85C3.8002 207.55 3.51686 207.267 3.2502 207C2.7502 210.1 2.31686 213.217 1.9502 216.35C6.01686 218.717 10.0335 222.6 14.0002 228C15.6669 230.3 18.1002 233.767 21.3002 238.4C21.3669 238.5 21.4335 238.6 21.5002 238.7C24.5002 242.7 27.5002 245.75 30.5002 247.85C33.6669 250.15 37.8335 252.033 43.0002 253.5C45.9669 254.333 50.4669 255.417 56.5002 256.75C57.6335 257.05 58.7335 257.35 59.8002 257.65C69.5002 260.617 75.9002 265.183 79.0002 271.35C80.9002 275.25 81.4502 279.617 80.6502 284.45C79.8835 288.917 78.1169 293.1 75.3502 297C70.6502 303.733 64.2335 308.617 56.1002 311.65C54.0335 312.383 51.8669 313.017 49.6002 313.55C40.8002 315.55 32.2169 315.45 23.8502 313.25C21.8835 312.717 19.9335 312.083 18.0002 311.35C13.8002 309.717 9.76686 307.633 5.9002 305.1C6.46686 307.767 7.08353 310.417 7.7502 313.05C12.9835 315.417 17.8169 317.317 22.2502 318.75C22.9835 318.983 23.7169 319.217 24.4502 319.45C32.6835 321.917 40.4835 323.1 47.8502 323C50.6835 322.967 53.4502 322.75 56.1502 322.35C62.1835 321.417 67.9002 319.5 73.3002 316.6C81.6669 312.1 87.6502 306.017 91.2502 298.35C92.4502 295.783 93.9669 290.983 95.8002 283.95C96.2669 282.15 96.7502 280.483 97.2502 278.95C98.4502 275.15 99.7335 272.117 101.1 269.85C103.8 265.417 107.6 261.783 112.5 258.95C117.2 256.217 122.284 254.6 127.75 254.1C131.417 253.767 135.184 253.917 139.05 254.55C140.517 254.783 142.017 255.1 143.55 255.5C143.684 255.533 143.817 255.567 143.95 255.6C148.05 256.7 152.117 258.3 156.15 260.4C156.884 260.8 157.617 261.2 158.35 261.6C161.984 263.667 167.367 267 174.5 271.6C180.534 275.033 186.05 276.933 191.05 277.3C191.317 277.333 191.584 277.35 191.85 277.35C195.784 277.517 199.767 276.8 203.8 275.2C205.234 274.6 206.684 273.9 208.15 273.1C212.784 270.567 217.35 266.95 221.85 262.25C227.05 256.517 230.95 252.233 233.55 249.4C235.017 247.8 236.434 246.333 237.8 245C240.8 242.033 243.617 239.65 246.25 237.85C254.15 232.417 263.95 229.15 275.65 228.05C278.517 227.75 281.484 227.6 284.55 227.6C289.684 227.6 295.717 227.95 302.65 228.65C303.584 228.75 304.534 228.85 305.5 228.95C308.3 229.25 311.884 229.667 316.25 230.2C319.25 230.567 322.617 231 326.35 231.5C339.85 233.133 352.117 233.617 363.15 232.95C364.484 232.85 365.784 232.75 367.05 232.65C381.617 231.35 394.467 227.883 405.6 222.25C408.167 220.95 410.65 219.55 413.05 218.05C422.084 212.317 430.134 204.9 437.2 195.8C445.734 184.8 451.95 172.45 455.85 158.75C459.584 145.883 461.234 132.2 460.8 117.7C460.8 117.5 460.8 117.283 460.8 117.05C457.334 111.65 453.65 106.35 449.75 101.15C449.917 102.783 450.067 104.433 450.2 106.1C451.4 120.967 450.417 135.55 447.25 149.85C442.917 169.283 435.167 185.167 424 197.5C420.367 201.533 416.417 205.067 412.15 208.1C409.15 210.167 406.017 212 402.75 213.6C394.384 217.733 385.834 219.817 377.1 219.85C374.034 219.95 371.334 219.567 369 218.7C366.2 217.633 364.284 215.983 363.25 213.75C362.417 211.85 362.3 209.783 362.9 207.55C363.5 205.417 364.617 203.567 366.25 202C367.584 200.6 369.334 199.35 371.5 198.25C372.934 197.55 374.934 196.75 377.5 195.85C382.334 194.183 389.667 191.733 399.5 188.5C402.934 187.2 406.1 185.817 409 184.35C413.067 182.283 416.567 180.033 419.5 177.6C427 171.467 432.567 163.317 436.2 153.15C439.567 143.717 440.917 133.7 440.25 123.1C439.684 113.9 437.617 104.067 434.05 93.6001Z" fill="url(#paint2_radial_162_6339)" />
  <path d="M426.2 74.05C425.814 73.6642 425.431 73.2809 425.05 72.9C422.156 70.006 419.223 67.1893 416.25 64.45C409.189 57.9779 401.922 51.9779 394.45 46.45C381.17 36.6913 367.254 28.4579 352.7 21.75C332.374 12.4155 310.791 6.08216 287.95 2.75C275.355 0.916667 262.372 0 249 0C247.261 0 245.528 0.0166667 243.8 0.05C178.13 1.22982 121.78 24.8965 74.75 71.05C74.1289 71.6715 73.5122 72.2882 72.9 72.9C61.3513 84.4566 51.168 96.5733 42.35 109.25C39.6518 113.181 37.0685 117.147 34.6 121.15C32.2109 125.109 29.9276 129.109 27.75 133.15C26.6557 135.237 25.5891 137.337 24.55 139.45C17.1194 154.49 11.3694 170.224 7.3 186.65C5.67018 193.33 4.30352 200.113 3.2 207C2.7263 210.093 2.29297 213.209 1.9 216.35C0.633333 226.969 0 237.852 0 249C0 252.287 0.05 255.554 0.15 258.8C0.430339 251.023 1.03034 243.373 1.95 235.85C2.31667 232.717 2.75 229.6 3.25 226.5C4.31667 219.6 5.68333 212.833 7.35 206.2C11.3833 189.733 17.1167 173.983 24.55 158.95C25.5833 156.85 26.6667 154.75 27.8 152.65C29.9333 148.617 32.2167 144.633 34.65 140.7C37.0833 136.667 39.6667 132.7 42.4 128.8C51.2 116.1 61.3667 103.967 72.9 92.4C73.5 91.8 74.1167 91.2 74.75 90.6C121.783 44.4 178.133 20.7167 243.8 19.55C245.533 19.5167 247.267 19.5 249 19.5C262.367 19.5 275.367 20.4167 288 22.25C310.8 25.5833 332.367 31.9333 352.7 41.3C367.267 47.9667 381.183 56.2 394.45 66C401.917 71.5 409.183 77.5 416.25 84C419.217 86.7 422.15 89.5 425.05 92.4C425.417 92.7667 425.8 93.15 426.2 93.55C434.8 102.25 442.65 111.283 449.75 120.65C453.65 125.85 457.333 131.15 460.8 136.55C468.033 147.883 474.217 159.683 479.35 171.95C488.25 193.117 493.967 215.633 496.5 239.5C497.167 245.633 497.617 251.883 497.85 258.25C497.95 255.186 498 252.102 498 249C498 245.552 497.933 242.119 497.8 238.7C497.585 232.381 497.151 226.131 496.5 219.95C493.966 196.13 488.249 173.614 479.35 152.4C474.217 140.183 468.017 128.399 460.75 117.05C457.321 111.654 453.638 106.354 449.7 101.15C442.649 91.7978 434.816 82.7645 426.2 74.05Z" fill="url(#paint3_linear_162_6339)" />
  <path d="M426.2 74.05C425.814 73.6642 425.431 73.2809 425.05 72.9C422.156 70.006 419.223 67.1893 416.25 64.45C409.189 57.9779 401.922 51.9779 394.45 46.45C381.17 36.6913 367.254 28.4579 352.7 21.75C332.374 12.4155 310.791 6.08216 287.95 2.75C275.355 0.916667 262.372 0 249 0C247.261 0 245.528 0.0166667 243.8 0.05C178.13 1.22982 121.78 24.8965 74.75 71.05C74.1289 71.6715 73.5122 72.2882 72.9 72.9C61.3513 84.4566 51.168 96.5733 42.35 109.25C39.6518 113.181 37.0685 117.147 34.6 121.15C32.2109 125.109 29.9276 129.109 27.75 133.15C26.6557 135.237 25.5891 137.337 24.55 139.45C17.1194 154.49 11.3694 170.224 7.3 186.65C5.67018 193.33 4.30352 200.113 3.2 207C2.7263 210.093 2.29297 213.209 1.9 216.35C0.633333 226.969 0 237.852 0 249C0 268.508 1.95 287.208 5.85 305.1C6.44935 307.766 7.08268 310.416 7.75 313.05C10.6823 324.561 14.449 335.727 19.05 346.55C20.3263 349.554 21.6596 352.521 23.05 355.45C26.0432 361.721 29.3099 367.855 32.85 373.85C34.6115 376.83 36.4281 379.764 38.3 382.65C48.0048 397.555 59.5382 411.688 72.9 425.05C73.003 425.153 73.103 425.253 73.2 425.35C77.7936 429.929 82.477 434.279 87.25 438.4C104.299 453.235 122.482 465.302 141.8 474.6C149.409 478.239 157.175 481.455 165.1 484.25C171.597 486.529 178.197 488.513 184.9 490.2C192.762 492.225 200.779 493.842 208.95 495.05C213.782 495.794 218.666 496.394 223.6 496.85C231.913 497.617 240.38 498 249 498C270.026 498 290.109 495.717 309.25 491.15C311.406 490.655 313.539 490.121 315.65 489.55C336.605 483.959 356.388 475.593 375 464.45C382.574 459.92 389.941 454.936 397.1 449.5C402.814 445.173 408.398 440.557 413.85 435.65C414.288 435.273 414.721 434.889 415.15 434.5C415.378 434.293 415.595 434.076 415.8 433.85C418.934 431.018 422.018 428.084 425.05 425.05C446.233 403.881 462.8 380.798 474.75 355.8C488.581 326.902 496.231 295.435 497.7 261.4C497.9 257.31 498 253.176 498 249C498 245.552 497.933 242.119 497.8 238.7C497.585 232.381 497.151 226.131 496.5 219.95C493.966 196.13 488.249 173.614 479.35 152.4C474.217 140.183 468.017 128.399 460.75 117.05C457.321 111.654 453.638 106.354 449.7 101.15C442.649 91.7978 434.816 82.7645 426.2 74.05Z" fill="url(#paint4_radial_162_6339)" />
  <g style="mix-blend-mode:overlay" opacity="0.5">
    <path d="M166.85 229.6C168.817 229.233 170.483 228.667 171.85 227.9C174.05 226.633 175.517 224.833 176.25 222.5C177.217 219.3 176.483 216.117 174.05 212.95C171.883 210.183 168.983 208.033 165.35 206.5C160.95 204.633 156.183 203.5 151.05 203.1C145.583 202.633 139.683 203.017 133.35 204.25C125.283 205.783 114.583 209.283 101.25 214.75C88.0833 220.05 77.3667 223.433 69.1 224.9C56.8667 227.033 46.25 226.067 37.25 222C30.95 219.1 25.5 214.7 20.9 208.8C16.5 203.167 13.4 196.817 11.6 189.75C10.5667 185.85 9.96667 181.8 9.8 177.6C8.9 180.6 8.08333 183.633 7.35 186.7C5.68333 193.333 4.31667 200.1 3.25 207C2.75 210.1 2.31667 213.217 1.95 216.35C0.65 226.983 0 237.867 0 249C0 256.1 0.266667 263.083 0.8 269.95C2.86667 271.35 5.06667 272.65 7.4 273.85C7.43333 273.85 7.48333 273.867 7.55 273.9C19.45 279.9 31.4667 281.467 43.6 278.6C53.1 276.333 64.2167 270.283 76.95 260.45C83.7833 255.05 88.95 251.05 92.45 248.45C98.45 243.983 103.883 240.5 108.75 238C108.983 237.9 109.2 237.8 109.4 237.7C115.967 234.4 122.883 232.05 130.15 230.65C137.683 229.217 145.217 228.867 152.75 229.6C158.75 230.2 163.45 230.2 166.85 229.6ZM203.1 58.1C204.533 58.0333 205.817 57.6167 206.95 56.85C207.983 56.1167 208.633 55.2333 208.9 54.2C208.933 54 208.967 53.8 209 53.6C209.233 51.9667 208.533 50.4833 206.9 49.15C205.567 48.05 203.85 47.2 201.75 46.6C196.383 45.2333 190.883 44.5833 185.25 44.65C179.65 44.7167 174.183 45.5 168.85 47C165.45 48.0333 161.017 49.7667 155.55 52.2C149.017 55.1333 144.617 57.0167 142.35 57.85C140.483 58.5833 138.667 59.2 136.9 59.7C128.3 62.2 120.833 62.3333 114.5 60.1C111.633 59.1333 109.15 57.7167 107.05 55.85C104.75 53.8167 103.15 51.4833 102.25 48.85C102.117 48.4833 102 48.1 101.9 47.7C92.5333 54.7333 83.4833 62.5333 74.75 71.1C74.1167 71.7 73.5 72.3 72.9 72.9C68.7333 77.1 64.7333 81.3667 60.9 85.7C61.3333 86.1333 61.8 86.55 62.3 86.95C63.6333 88.0167 65.1333 88.9667 66.8 89.8C70.1 91.4333 73.7833 92.45 77.85 92.85C87.0833 93.9167 97.15 92.0667 108.05 87.3C114.217 84.6 123.533 79.3333 136 71.5C138.167 70.1667 140.283 68.9 142.35 67.7C150.717 62.8333 158.183 59.35 164.75 57.25C175.95 53.65 186.067 53.3167 195.1 56.25C196 56.5167 197.317 56.9167 199.05 57.45C200.617 57.8833 201.967 58.1 203.1 58.1ZM251.6 128.1C250.167 128.533 248.333 129.15 246.1 129.95C243.867 131.583 241.583 133.117 239.25 134.55C230.15 140.117 220.767 143.683 211.1 145.25C202.8 146.583 191.75 146.467 177.95 144.9C176.45 144.733 175.017 144.583 173.65 144.45C159.05 142.817 149.333 142.033 144.5 142.1C139.233 142.1 135.017 142.85 131.85 144.35C129.85 145.417 128.25 146.85 127.05 148.65C126.15 149.983 125.617 151.367 125.45 152.8C125.317 153.433 125.283 154.083 125.35 154.75C125.55 157.317 126.833 159.667 129.2 161.8C131.133 163.533 133.65 164.967 136.75 166.1C141.55 167.8 147.017 168.933 153.15 169.5C157.65 169.9 163.267 170.017 170 169.85C170.4 169.85 170.817 169.85 171.25 169.85C188.883 169.317 204.317 167.183 217.55 163.45C233.283 158.983 246.317 152.167 256.65 143C257.283 142.433 257.9 141.85 258.5 141.25C260.4 139.383 261.733 137.5 262.5 135.6C263.433 133.267 263.3 131.267 262.1 129.6C261.167 128.233 259.617 127.483 257.45 127.35C255.783 127.25 253.833 127.5 251.6 128.1ZM348 180.85C346.767 180.017 345.017 179.767 342.75 180.1C338.717 180.7 333.933 182.633 328.4 185.9C325.867 187.033 323.417 188.433 321.05 190.1C320.35 190.567 319.667 191.05 319 191.55C310.3 197.417 301.05 202.067 291.25 205.5C286.583 207.033 283.1 208.2 280.8 209C276.633 210.4 273.233 211.817 270.6 213.25C267.133 215.317 265.217 217.433 264.85 219.6C264.75 220.133 264.733 220.65 264.8 221.15C264.933 222.35 265.467 223.5 266.4 224.6C267.633 226.067 269.2 227.033 271.1 227.5C272.667 227.9 274.467 227.933 276.5 227.6C277.867 227.4 279.65 226.95 281.85 226.25C293.317 222.85 305.133 218.517 317.3 213.25C317.467 213.15 317.65 213.067 317.85 213C325.017 209.833 330.783 206.7 335.15 203.6C337.85 201.7 340.217 199.683 342.25 197.55C344.65 195.017 346.6 192.333 348.1 189.5C348.967 187.933 349.433 186.4 349.5 184.9C349.6 183.133 349.1 181.783 348 180.85ZM426.2 74.05C425.8 73.65 425.417 73.2667 425.05 72.9C423.217 71.0667 421.383 69.2833 419.55 67.55C418.883 69.5167 418.117 71.45 417.25 73.35C414.617 79.15 411.117 84.25 406.75 88.65C402.183 93.2833 397.1 96.7333 391.5 99C386.333 101.133 381.833 101.583 378 100.35C375.667 99.5833 373.817 98.1833 372.45 96.15C370.983 94.05 370.5 91.8667 371 89.6C371.367 87.9 372.367 86.2 374 84.5C374.933 83.5 376.467 82.0833 378.6 80.25C381.4 77.5833 383.683 74.3333 385.45 70.5C387.15 66.8667 388.25 62.9833 388.75 58.85C389.45 53.85 389.417 48.3333 388.65 42.3C385.717 40.3 382.783 38.3667 379.85 36.5C380.917 39.6 381.633 42.95 382 46.55C382.9 55.3167 381.433 63.6667 377.6 71.6C374.167 78.9 369.033 85.55 362.2 91.55C358.4 94.8833 354.15 97.95 349.45 100.75C346.683 102.383 343.783 103.917 340.75 105.35C335.383 107.95 329.083 110.433 321.85 112.8C320.25 113.333 318.583 113.867 316.85 114.4C305.917 117.567 297.717 119.933 292.25 121.5C287.983 122.8 284.55 124.5 281.95 126.6C278.65 129.333 277.333 132.333 278 135.6C278.4 137.467 279.467 139.083 281.2 140.45C282 141.117 282.883 141.667 283.85 142.1C284.717 142.467 285.633 142.717 286.6 142.85C290.467 143.45 294.817 142.383 299.65 139.65C302.417 138.117 306.45 135.517 311.75 131.85C312.617 131.317 313.517 130.817 314.45 130.35C320.45 127.317 327.317 125.417 335.05 124.65C341.417 124.017 349.85 124.15 360.35 125.05C374.883 126.283 383.533 126.933 386.3 127C396.067 127.3 404.467 126.467 411.5 124.5C424.9 120.767 435.8 112.7 444.2 100.3C444.264 100.236 444.314 100.153 444.35 100.05C445.083 98.9833 445.767 97.9167 446.4 96.85C446.1 96.45 445.8 96.0667 445.5 95.7C439.567 88.2667 433.133 81.05 426.2 74.05Z" fill="#7ADDFF" />
    <path d="M171.6 228.1C171.667 228.033 171.75 227.967 171.85 227.9C170.483 228.667 168.817 229.233 166.85 229.6C163.45 230.2 158.75 230.2 152.75 229.6C145.217 228.867 137.683 229.217 130.15 230.65C122.883 232.05 115.967 234.4 109.4 237.7C109.2 237.8 108.983 237.9 108.75 238C103.883 240.5 98.4499 243.983 92.4499 248.45C88.9499 251.05 83.7832 255.05 76.9499 260.45C64.2166 270.283 53.0999 276.333 43.5999 278.6C31.4666 281.467 19.4499 279.9 7.5499 273.9C7.48324 273.867 7.43324 273.85 7.3999 273.85C13.0332 278.25 19.5999 281.283 27.0999 282.95C37.4332 285.183 46.9832 284.2 55.7499 280C61.6166 277.2 69.0666 271.3 78.0999 262.3C87.3332 253.133 94.7166 247.117 100.25 244.25C101.883 243.417 103.683 242.65 105.65 241.95C111.917 239.717 119.867 238.2 129.5 237.4C132.9 237.133 138.033 236.75 144.9 236.25C150.833 235.683 155.9 234.883 160.1 233.85C164.7 232.817 168.533 230.9 171.6 228.1ZM208.6 56.35C208.867 55.65 208.967 54.9333 208.9 54.2C208.633 55.2333 207.983 56.1166 206.95 56.85C205.817 57.6166 204.533 58.0333 203.1 58.1C201.967 58.1 200.617 57.8833 199.05 57.45C197.317 56.9166 196 56.5166 195.1 56.25C186.067 53.3166 175.95 53.65 164.75 57.25C158.183 59.35 150.717 62.8333 142.35 67.7C140.283 68.9 138.167 70.1666 136 71.5C123.533 79.3333 114.217 84.5999 108.05 87.2999C97.1499 92.0666 87.0832 93.9166 77.8499 92.8499C73.7832 92.4499 70.0999 91.4333 66.7999 89.7999C65.1332 88.9666 63.6332 88.0166 62.2999 86.95C66.2999 90.5833 71.0666 93.2333 76.5999 94.9C81.8666 96.5333 87.3332 97.15 92.9999 96.75C103.2 96.0499 113.533 92.4166 124 85.8499C124.7 85.3833 130.8 80.9833 142.3 72.65C143.067 72.0833 143.817 71.5499 144.55 71.0499C150.917 66.5833 156.6 63.4333 161.6 61.6C166.133 60 170.833 59.05 175.7 58.75C180.5 58.4833 185.267 58.85 190 59.85C191.133 60.1166 192.817 60.5166 195.05 61.0499C197.05 61.4499 198.783 61.6 200.25 61.5C202.117 61.4333 203.783 60.9666 205.25 60.1C206.883 59.1666 208 57.9166 208.6 56.35ZM171.25 169.85C170.817 169.85 170.4 169.85 170 169.85C163.267 170.017 157.65 169.9 153.15 169.5C147.017 168.933 141.55 167.8 136.75 166.1C133.65 164.967 131.133 163.533 129.2 161.8C126.833 159.667 125.55 157.317 125.35 154.75C125.283 154.083 125.317 153.433 125.45 152.8C125.35 153 125.267 153.217 125.2 153.45C124.233 156.883 124.583 160.067 126.25 163C128.917 167.6 134.25 171.017 142.25 173.25C150.383 175.55 159.333 176.683 169.1 176.65C170.067 176.65 171.033 176.633 172 176.6C180.8 176.333 190.8 175.083 202 172.85C212.533 170.75 221.45 168.167 228.75 165.1C238.083 161.167 245.7 156.133 251.6 150C253.767 147.733 255.45 145.4 256.65 143C246.317 152.167 233.283 158.983 217.55 163.45C204.317 167.183 188.883 169.317 171.25 169.85ZM342.25 197.55C340.217 199.683 337.85 201.7 335.15 203.6C330.783 206.7 325.017 209.833 317.85 213C317.65 213.067 317.467 213.15 317.3 213.25C305.133 218.517 293.317 222.85 281.85 226.25C279.65 226.95 277.867 227.4 276.5 227.6C274.467 227.933 272.667 227.9 271.1 227.5C269.2 227.033 267.633 226.067 266.4 224.6C265.467 223.5 264.933 222.35 264.8 221.15C264.467 222.417 264.567 223.817 265.1 225.35C265.9 227.817 267.4 229.65 269.6 230.85C273 232.65 277.667 232.9 283.6 231.6C291.133 230.067 298.983 227.217 307.15 223.05C309.917 221.617 312.9 219.933 316.1 218C319.967 215.633 324.133 212.917 328.6 209.85C331.367 207.983 333.517 206.417 335.05 205.15C337.317 203.317 339.217 201.467 340.75 199.6C341.283 198.933 341.783 198.25 342.25 197.55ZM437.75 111.8C440.813 108.004 443.013 104.087 444.35 100.05C444.314 100.153 444.264 100.236 444.2 100.3C435.8 112.7 424.9 120.767 411.5 124.5C404.467 126.467 396.067 127.3 386.3 127C383.533 126.933 374.883 126.283 360.35 125.05C349.85 124.15 341.417 124.017 335.05 124.65C327.317 125.417 320.45 127.317 314.45 130.35C313.517 130.817 312.617 131.317 311.75 131.85C306.45 135.517 302.417 138.117 299.65 139.65C294.817 142.383 290.467 143.45 286.6 142.85C285.633 142.717 284.717 142.467 283.85 142.1C284.05 142.233 284.267 142.367 284.5 142.5C287.133 144.067 289.967 144.65 293 144.25C295.367 143.883 298.067 142.933 301.1 141.4C302.833 140.533 305.417 139.183 308.85 137.35C310.417 136.583 312.033 135.867 313.7 135.2C319.867 132.8 326.883 131.267 334.75 130.6C341.717 130 350.8 130.05 362 130.75C375.1 131.55 384.167 131.883 389.2 131.75C399.333 131.517 408.133 130.05 415.6 127.35C424.567 124.183 431.95 119 437.75 111.8Z" fill="#1F3F8F" />
  </g>
  <defs>
    <linearGradient id="paint0_linear_162_6339" x1="249" y1="249" x2="249" y2="903" gradientUnits="userSpaceOnUse">
      <stop />
      <stop offset="1" stop-opacity="0" />
    </linearGradient>
    <radialGradient id="paint1_radial_162_6339" cx="0" cy="0" r="1" gradientUnits="userSpaceOnUse" gradientTransform="translate(250 375) scale(369.95 374.45)">
      <stop offset="0.686275" stop-color="#0D0E11" />
      <stop offset="1" stop-color="#1C3882" />
    </radialGradient>
    <radialGradient id="paint2_radial_162_6339" cx="0" cy="0" r="1" gradientUnits="userSpaceOnUse" gradientTransform="translate(155.9 29.7501) rotate(-23.837) scale(366.336 473.314)">
      <stop stop-color="#487AFF" stop-opacity="0.6" />
      <stop offset="1" stop-color="#487AFF" stop-opacity="0" />
    </radialGradient>
    <linearGradient id="paint3_linear_162_6339" x1="236.537" y1="-23.45" x2="243.462" y2="199.35" gradientUnits="userSpaceOnUse">
      <stop stop-color="#B7CBFF" stop-opacity="0.6" />
      <stop offset="1" stop-color="#487AFF" stop-opacity="0" />
    </linearGradient>
    <radialGradient id="paint4_radial_162_6339" cx="0" cy="0" r="1" gradientUnits="userSpaceOnUse" gradientTransform="translate(221 27.05) scale(256.95 161.638)">
      <stop stop-color="#B7CBFF" stop-opacity="0.6" />
      <stop offset="1" stop-color="#487AFF" stop-opacity="0" />
    </radialGradient>
  </defs>
</svg>