<svg width="498rem" height="903rem" viewBox="0 0 498 903" fill="none" xmlns="http://www.w3.org/2000/svg">
  <rect y="249" width="498" height="654" fill="url(#paint0_linear_443_7957)" />
  <path d="M498 249C498 180.233 473.683 121.533 425.05 72.9C376.45 24.3 317.767 0 249 0C180.233 0 121.533 24.3 72.9 72.9C24.3 121.533 0 180.233 0 249C0 317.767 24.3 376.45 72.9 425.05C121.533 473.683 180.233 498 249 498C317.767 498 376.45 473.683 425.05 425.05C473.683 376.45 498 317.767 498 249Z" fill="url(#paint1_radial_443_7957)" />
  <g style="mix-blend-mode:plus-lighter">
    <path d="M472.35 360.65C452.525 376.877 430.742 387.577 407 392.75C364.833 401.783 316.5 392.983 262 366.35C258.9 364.85 246.233 358.283 224 346.65C208.667 338.65 195.783 332.55 185.35 328.35C154.217 316.017 126.35 312.567 101.75 318C91.4832 320.3 82.5165 324.2 74.8498 329.7C66.2165 335.867 60.3832 343.3 57.3498 352C55.2832 357.933 54.5165 364.583 55.0498 371.95C55.4498 377.917 56.7665 384.6 58.9998 392C62.5146 403.686 67.3146 414.87 73.3998 425.55C121.937 473.85 180.47 498 249 498C317.767 498 376.45 473.683 425.05 425.05C444.847 405.266 460.614 383.8 472.35 360.65ZM324.6 173.75C343.6 162.117 359.883 153.5 373.45 147.9C392.15 140.233 409.783 136.267 426.35 136C445.396 135.669 462.83 140.603 478.65 150.8C466.514 122.464 448.647 96.4976 425.05 72.9001C398.582 46.4325 369.116 27.1659 336.65 15.1001C318.425 17.5138 300.458 21.3138 282.75 26.5001C257.017 34.0334 234.15 44.0001 214.15 56.4001C191.55 70.4001 173.417 87.0168 159.75 106.25C147.683 123.183 141.033 141.367 139.8 160.8C138.467 182.233 144.617 198.917 158.25 210.85C166.717 218.25 177.417 222.833 190.35 224.6C201.65 226.133 213.7 225.433 226.5 222.5C242.033 218.933 258.95 212.183 277.25 202.25C283.317 198.95 299.1 189.45 324.6 173.75Z" fill="url(#paint2_linear_443_7957)" />
  </g>
  <path d="M308.249 439.5C305.949 440.933 304.166 442.3 302.899 443.6C301.199 445.333 300.149 447.167 299.749 449.1C299.349 451.3 300.083 453.3 301.949 455.1C302.114 455.262 302.281 455.411 302.449 455.55C303.103 455.619 303.803 455.652 304.549 455.65C312.042 455.125 319.642 453.692 327.349 451.35C335.716 448.783 344.333 445.1 353.199 440.3C354.594 439.552 356.01 438.769 357.449 437.95C363.584 434.436 370.134 430.236 377.099 425.35C380.666 422.817 383.349 420.633 385.149 418.8C387.245 416.652 388.795 414.435 389.799 412.15C389.77 411.627 389.686 411.11 389.549 410.6C389.183 409.133 388.449 408.017 387.349 407.25C386.349 406.517 385.066 406.15 383.499 406.15C382.399 406.15 380.983 406.35 379.249 406.75C374.549 407.983 369.433 409.733 363.899 412C360.199 413.5 355.233 415.7 348.999 418.6C340.841 422.357 334.641 425.257 330.399 427.3C329.623 427.705 328.906 428.071 328.249 428.4C320.583 432.2 313.916 435.9 308.249 439.5Z" fill="#054629" />
  <path d="M312.2 434.2C308.907 436.143 305.84 438.076 303 440C299.068 442.5 296.818 445.183 296.25 448.05C295.713 450.945 296.23 452.929 297.8 454C298.97 454.831 300.52 455.347 302.45 455.55C302.281 455.411 302.114 455.262 301.95 455.1C300.083 453.3 299.35 451.3 299.75 449.1C300.15 447.167 301.2 445.333 302.9 443.6C304.167 442.3 305.95 440.933 308.25 439.5C313.917 435.9 320.583 432.2 328.25 428.4C328.907 428.071 329.623 427.705 330.4 427.3C334.642 425.257 340.842 422.357 349 418.6C355.233 415.7 360.2 413.5 363.9 412C369.433 409.733 374.55 407.983 379.25 406.75C380.983 406.35 382.4 406.15 383.5 406.15C385.067 406.15 386.35 406.517 387.35 407.25C388.45 408.017 389.183 409.133 389.55 410.6C389.687 411.11 389.77 411.627 389.8 412.15C390.074 411.518 390.307 410.885 390.5 410.25C390.967 408.783 391.133 407.417 391 406.15C390.833 404.683 390.283 403.5 389.35 402.6C387.183 400.433 383.567 400.517 378.5 402.85C371.672 405.935 365.705 408.619 360.6 410.9C355.611 413.151 351.444 415.017 348.1 416.5C345.003 417.896 342.153 419.196 339.55 420.4C334.979 422.494 331.146 424.277 328.05 425.75C326.943 426.317 325.926 426.834 325 427.3C320.412 429.612 316.145 431.912 312.2 434.2ZM69.8999 341.7C70.2917 342.576 70.6917 343.443 71.0999 344.3C70.2351 341.722 69.5351 339.072 68.9999 336.35C67.5999 330.05 67.8499 324.883 69.7499 320.85C71.1166 317.917 72.9832 316.217 75.3499 315.75C77.5832 315.25 80.3832 316.333 83.7499 319C87.3832 322.009 90.5999 325.392 93.3999 329.15C94.8072 331.007 96.1072 332.957 97.2999 335C98.2485 336.634 99.1151 338.284 99.8999 339.95C99.8188 339.707 99.7355 339.457 99.6499 339.2C98.3444 335.323 96.7778 331.607 94.9499 328.05C93.6279 325.458 92.1612 322.942 90.5499 320.5C88.8069 317.902 86.9069 315.402 84.8499 313C82.548 310.035 80.1646 308.135 77.6999 307.3C75.2391 306.493 72.5558 307.41 69.6499 310.05C66.7778 312.726 65.4944 316.943 65.7999 322.7C66.1327 328.488 66.816 332.921 67.8499 336C68.8921 339.083 69.5754 340.983 69.8999 341.7Z" fill="#002D19" />
  <path d="M284.3 425.8C284.116 425.784 283.916 425.767 283.7 425.75C283.566 425.75 282.833 425.75 281.5 425.75C276.2 426.083 272.283 426.533 269.75 427.1C267.85 427.633 266.6 428.3 266 429.1C265.4 429.9 265.183 430.866 265.35 432C265.424 432.574 265.574 433.107 265.8 433.6C266.246 433.912 266.73 434.195 267.25 434.45C268.612 435.123 270.512 435.639 272.95 436C274.757 436.261 276.54 436.228 278.3 435.9C278.952 435.771 279.602 435.605 280.25 435.4C280.869 435.192 281.469 434.959 282.05 434.7C282.936 434.309 283.786 433.859 284.6 433.35C285.821 432.678 286.871 431.778 287.75 430.65C287.774 430.078 287.708 429.512 287.55 428.95C287.25 427.783 286.65 426.916 285.75 426.35C285.355 426.103 284.872 425.92 284.3 425.8ZM150.15 360.4C149.495 359.159 148.779 357.942 148 356.75C146.033 353.45 143.866 351.116 141.5 349.75C140.3 349.116 139.116 348.733 137.95 348.6C136.583 348.433 135.433 348.65 134.5 349.25C133.333 349.983 132.55 351.15 132.15 352.75C131.816 354.083 131.766 355.583 132 357.25C132.087 358.079 132.204 358.896 132.35 359.7C132.454 360.359 132.571 361.009 132.7 361.65C132.777 361.763 132.844 361.88 132.9 362C134.253 364.921 135.787 367.471 137.5 369.65C137.687 369.826 138.403 370.609 139.65 372C140.893 373.395 142.16 374.479 143.45 375.25C144.766 376.019 145.983 376.369 147.1 376.3C148.256 376.232 149.19 375.632 149.9 374.5C150.636 373.4 151.003 372.233 151 371C151.015 370.835 151.032 370.668 151.05 370.5C151.126 369.536 151.159 368.569 151.15 367.6C151.145 367.317 151.128 367.017 151.1 366.7C151.018 364.572 150.701 362.471 150.15 360.4Z" fill="#032D1B" />
  <path d="M283.7 425.75C283.917 425.767 284.117 425.784 284.3 425.8C284.872 425.92 285.356 426.103 285.75 426.35C286.65 426.917 287.25 427.783 287.55 428.95C287.708 429.512 287.775 430.079 287.75 430.65C287.838 430.556 287.922 430.456 288 430.35C288.9 428.85 289.067 427.4 288.5 426C288.256 425.176 287.439 424.626 286.05 424.35C284.976 424.147 283.542 424.114 281.75 424.25H272.1C270.567 424.35 269.683 424.4 269.45 424.4C268.417 424.533 267.55 424.733 266.85 425C264.883 425.733 263.717 426.933 263.35 428.6C263.329 428.701 263.313 428.801 263.3 428.9C263.168 429.931 263.452 430.948 264.15 431.95C264.584 432.568 265.134 433.118 265.8 433.6C265.574 433.107 265.424 432.574 265.35 432C265.183 430.867 265.4 429.9 266 429.1C266.6 428.3 267.85 427.633 269.75 427.1C272.283 426.533 276.2 426.083 281.5 425.75C282.833 425.75 283.567 425.75 283.7 425.75ZM138.75 344.5C137.485 343.668 136.001 343.352 134.3 343.55C132.628 343.743 131.445 344.843 130.75 346.85C130.06 348.862 129.91 351.162 130.3 353.75C130.577 355.6 131.094 357.533 131.85 359.55C132.117 360.242 132.401 360.942 132.7 361.65C132.571 361.009 132.455 360.359 132.35 359.7C132.205 358.896 132.088 358.079 132 357.25C131.767 355.583 131.817 354.083 132.15 352.75C132.55 351.15 133.333 349.983 134.5 349.25C135.433 348.65 136.583 348.433 137.95 348.6C139.117 348.733 140.3 349.117 141.5 349.75C143.867 351.117 146.033 353.45 148 356.75C148.779 357.942 149.496 359.159 150.15 360.4C149.737 358.88 149.203 357.38 148.55 355.9C147.922 354.504 147.206 353.204 146.4 352C144.391 348.893 141.842 346.393 138.75 344.5Z" fill="#00150C" />
  <path d="M75.35 315.75C72.9833 316.217 71.1167 317.917 69.75 320.85C67.85 324.883 67.6 330.05 69 336.35C69.5351 339.072 70.2351 341.722 71.1 344.3C71.5565 345.219 72.0232 346.119 72.5 347C75.2174 352.172 78.4008 356.989 82.05 361.45C83.796 363.578 85.646 365.628 87.6 367.6C89.3333 369.333 90.8833 370.667 92.25 371.6C94.0833 372.867 95.9167 373.667 97.75 374C99.9167 374.333 101.5 373.95 102.5 372.85C103.1 372.15 103.467 370.867 103.6 369C103.835 365.271 103.801 361.555 103.5 357.85C103.354 356.067 103.137 354.283 102.85 352.5C102.223 348.296 101.24 344.112 99.9 339.95C99.1152 338.284 98.2486 336.633 97.3 335C96.1073 332.957 94.8073 331.007 93.4 329.15C90.6 325.392 87.3833 322.009 83.75 319C80.3833 316.333 77.5833 315.25 75.35 315.75ZM54.35 176.3C54.27 176.495 54.1867 176.678 54.1 176.85C48.4461 190.919 46.0794 205.253 47 219.85C47.203 222.511 47.4863 224.878 47.85 226.95C48.0247 227.093 48.1914 227.226 48.35 227.35C50.9833 229.383 54.2333 230.133 58.1 229.6C61.3667 229.167 64.7 227.883 68.1 225.75C72.6667 222.917 77.0167 219.117 81.15 214.35C84.45 210.517 87.85 205.767 91.35 200.1C93.1001 197.321 94.7835 194.505 96.4 191.65C99.2228 186.701 101.839 181.635 104.25 176.45C106.029 172.697 107.696 168.88 109.25 165C111.183 160.333 112.55 156.25 113.35 152.75C114.252 148.707 114.552 144.957 114.25 141.5C113.7 140.371 113.05 139.288 112.3 138.25C109.667 134.65 106.433 132.4 102.6 131.5C95.8 129.733 88.2167 132.6 79.85 140.1C68.7167 149.967 60.2167 162.033 54.35 176.3ZM189.55 141.95C189.222 141.481 188.872 141.031 188.5 140.6C186.4 138.2 183.983 136.783 181.25 136.35C178.95 136.017 176.467 136.417 173.8 137.55C171.933 138.35 169.667 139.7 167 141.6C158.7 147.7 151.267 154.8 144.7 162.9C139.807 168.886 135.524 175.236 131.85 181.95C130.621 184.262 129.455 186.612 128.35 189C126.007 194.016 124.624 198.616 124.2 202.8C124.722 204.672 125.655 205.939 127 206.6C128.567 207.333 130.85 207.133 133.85 206C137.618 204.484 141.268 202.65 144.8 200.5C152.042 196.128 158.826 190.445 165.15 183.45C165.809 182.72 166.459 181.97 167.1 181.2C174.547 172.514 181.047 162.28 186.6 150.5C188.118 147.332 189.101 144.482 189.55 141.95ZM358.35 241.35C354.95 238.583 350.683 237.2 345.55 237.2C341.05 237.2 336.483 238.217 331.85 240.25C324.529 243.453 318.196 248.319 312.85 254.85C312.755 254.985 312.655 255.119 312.55 255.25C307.217 261.817 303.567 269.15 301.6 277.25C301.464 277.798 301.33 278.348 301.2 278.9C299.595 286.289 299.428 293.939 300.7 301.85C301.07 304.124 301.553 306.357 302.15 308.55C303.938 311.016 306.055 313.083 308.5 314.75C314.1 318.55 320.683 319.8 328.25 318.5C335.417 317.267 341.667 314.133 347 309.1C351.733 304.667 355.65 298.967 358.75 292C361.25 286.3 363.283 279.55 364.85 271.75C365.88 266.956 366.48 262.589 366.65 258.65C366.6 258.387 366.55 258.12 366.5 257.85C365.755 253.885 364.655 250.485 363.2 247.65C361.889 245.068 360.272 242.968 358.35 241.35ZM456.25 279.5C453.613 282.628 451.213 285.828 449.05 289.1C448.25 290.67 447.467 292.186 446.7 293.65C445.317 296.297 444.017 298.797 442.8 301.15C442.291 302.106 441.791 303.039 441.3 303.95C440.31 307.532 439.827 310.882 439.85 314C439.95 315.767 440.283 317.267 440.85 318.5C441.583 320.033 442.633 320.95 444 321.25C445 321.483 446.083 321.25 447.25 320.55C447.983 320.083 448.9 319.317 450 318.25C453.264 314.843 456.197 311.227 458.8 307.4C460.285 305.297 461.652 303.114 462.9 300.85C463.622 299.611 464.306 298.344 464.95 297.05C467.906 291.064 470.023 284.964 471.3 278.75C471.135 278.437 470.952 278.137 470.75 277.85C469.983 276.783 469.05 275.917 467.95 275.25C466.783 274.583 465.583 274.25 464.35 274.25C461.817 274.317 459.117 276.067 456.25 279.5ZM403 117.2C400.067 114.4 397.067 112.283 394 110.85C390.433 109.25 386.783 108.567 383.05 108.8C379.017 109 375.667 110.267 373 112.6C370.067 115.133 368.1 118.767 367.1 123.5C366.773 125.087 366.54 126.887 366.4 128.9C367.795 140.371 370.079 152.738 373.25 166C374.107 169.626 375.074 173.509 376.15 177.65C378.224 185.437 380.707 194.137 383.6 203.75C386.9 214.683 389.817 223.1 392.35 229C396.183 238.067 400.65 245.65 405.75 251.75C409.483 256.183 413.583 259.383 418.05 261.35C423.283 263.683 428.017 263.767 432.25 261.6C432.675 261.39 433.091 261.156 433.5 260.9C436.207 259.206 438.374 256.572 440 253C441.4 249.867 442.433 245.9 443.1 241.1C443.149 240.75 443.199 240.4 443.25 240.05C444.229 225.161 443.379 210.344 440.7 195.6C440.423 194.052 440.123 192.502 439.8 190.95C434.633 166.117 424.817 144.333 410.35 125.6C407.683 122.133 405.233 119.333 403 117.2Z" fill="#2E664D" />
  <path d="M46.4496 178.05C45.8646 180.082 45.3313 182.116 44.8496 184.15C42.4496 194.217 41.6996 204.033 42.5996 213.6C43.233 219.964 44.983 224.414 47.8496 226.95C47.486 224.878 47.2026 222.511 46.9996 219.85C46.0791 205.253 48.4457 190.919 54.0996 176.85C54.1863 176.678 54.2697 176.495 54.3496 176.3C60.2163 162.033 68.7163 149.967 79.8496 140.1C88.2163 132.6 95.7996 129.733 102.6 131.5C106.433 132.4 109.666 134.65 112.3 138.25C113.05 139.288 113.7 140.371 114.25 141.5C114.218 140.993 114.168 140.493 114.1 140C113.929 138.658 113.663 137.358 113.3 136.1C112.435 133.212 111.035 130.579 109.1 128.2C106.133 124.567 102.6 122.45 98.4996 121.85C94.6663 121.283 90.633 122.167 86.3996 124.5C83.2996 126.233 79.833 128.933 75.9996 132.6C67.8724 140.55 60.9224 148.733 55.1496 157.15C51.4981 164.002 48.5981 170.969 46.4496 178.05ZM188.5 140.6C188.872 141.031 189.222 141.481 189.55 141.95C190.228 138.066 189.662 134.916 187.85 132.5C186.583 130.8 184.85 129.6 182.65 128.9C180.616 128.233 178.483 128.1 176.25 128.5C172.816 129 168.983 130.75 164.75 133.75C162.107 135.516 159.557 137.399 157.1 139.4C153.127 143.342 149.744 146.926 146.95 150.15C139.249 158.978 133.349 167.778 129.25 176.55C128.999 177.115 128.749 177.682 128.5 178.25C128.117 179.095 127.75 179.929 127.4 180.75C126.692 182.539 126.076 184.289 125.55 186C124.131 190.778 123.531 195.278 123.75 199.5C123.795 200.764 123.945 201.864 124.2 202.8C124.623 198.616 126.007 194.016 128.35 189C129.454 186.612 130.621 184.262 131.85 181.95C135.523 175.236 139.807 168.886 144.7 162.9C151.266 154.8 158.7 147.7 167 141.6C169.666 139.7 171.933 138.35 173.8 137.55C176.466 136.417 178.95 136.017 181.25 136.35C183.983 136.783 186.4 138.2 188.5 140.6ZM334.05 230.05C332.236 230.553 330.419 231.203 328.6 232C321.266 235.233 314.716 240.317 308.95 247.25C303.766 253.484 299.616 260.684 296.5 268.85C295.892 272.204 295.475 275.587 295.25 279C294.826 285.213 295.276 290.963 296.6 296.25C296.838 297.195 297.104 298.129 297.4 299.05C298.587 302.698 300.17 305.865 302.15 308.55C301.553 306.357 301.069 304.124 300.7 301.85C299.428 293.939 299.594 286.289 301.2 278.9C301.33 278.348 301.463 277.798 301.6 277.25C303.566 269.15 307.216 261.817 312.55 255.25C312.655 255.119 312.755 254.985 312.85 254.85C318.195 248.319 324.529 243.453 331.85 240.25C336.483 238.217 341.05 237.2 345.55 237.2C350.683 237.2 354.95 238.583 358.35 241.35C360.272 242.968 361.888 245.068 363.2 247.65C364.655 250.485 365.755 253.885 366.5 257.85C366.55 258.12 366.6 258.387 366.65 258.65C366.777 255.591 366.644 252.791 366.25 250.25C366.1 249.414 365.917 248.597 365.7 247.8C365.004 245.005 363.97 242.405 362.6 240C360.666 236.7 358.25 234.117 355.35 232.25C351.616 229.883 347.233 228.75 342.2 228.85C339.492 228.91 336.776 229.31 334.05 230.05ZM450 287.35C449.688 287.946 449.371 288.529 449.05 289.1C451.213 285.828 453.613 282.628 456.25 279.5C459.116 276.067 461.816 274.317 464.35 274.25C465.583 274.25 466.783 274.583 467.95 275.25C469.05 275.917 469.983 276.783 470.75 277.85C470.952 278.137 471.135 278.437 471.3 278.75C471.753 276.632 472.103 274.499 472.35 272.35C472.716 268.583 472.016 266.25 470.25 265.35C468.25 264.317 465.916 265.067 463.25 267.6C460.716 270.1 458.266 273.217 455.9 276.95C454.533 279.117 452.566 282.583 450 287.35ZM394 110.85C397.066 112.283 400.066 114.4 403 117.2C405.233 119.333 407.683 122.133 410.35 125.6C424.816 144.333 434.633 166.117 439.8 190.95C440.122 192.502 440.422 194.052 440.7 195.6C443.378 210.344 444.228 225.161 443.25 240.05C445.177 225.962 445.76 212.862 445 200.75C444.445 191.708 443.129 183.208 441.05 175.25C436.171 156.445 427.738 138.479 415.75 121.35C410.25 113.979 404.5 108.396 398.5 104.6C394.2 101.867 390.033 100.133 386 99.3999C381.133 98.4666 376.966 99.1166 373.5 101.35C367.066 105.483 364.65 114.2 366.25 127.5C366.303 127.962 366.353 128.429 366.4 128.9C366.54 126.887 366.773 125.087 367.1 123.5C368.1 118.767 370.066 115.133 373 112.6C375.666 110.267 379.016 109 383.05 108.8C386.783 108.567 390.433 109.25 394 110.85Z" fill="#004024" />
  <path d="M244.499 33.2999C244.541 32.746 244.491 32.1793 244.349 31.5999C243.949 30.0999 243.066 28.7665 241.699 27.5999C240.433 26.4999 238.983 25.7499 237.349 25.3499C234.816 24.6499 231.566 24.6999 227.599 25.4999C220.999 26.6999 214.933 28.5832 209.399 31.1499C203.333 33.9499 198.116 37.4832 193.749 41.7499C191.083 44.1165 189.333 46.4832 188.499 48.8499C188.218 49.6561 188.035 50.4728 187.949 51.2999C189.008 52.4206 190.508 53.1039 192.449 53.3499C194.349 53.6165 196.483 53.4499 198.849 52.8499C200.913 52.4219 203.079 51.8885 205.349 51.2499C208.023 50.5426 210.839 49.6926 213.799 48.6999C216.899 47.6332 221.749 45.8499 228.349 43.3499C231.783 42.0165 234.349 40.9165 236.049 40.0499C238.374 38.8736 240.34 37.5736 241.949 36.1499C242.267 35.8935 242.567 35.6268 242.849 35.3499C243.504 34.6952 244.054 34.0118 244.499 33.2999ZM338.949 95.8999C339.509 94.4027 339.776 92.9694 339.749 91.5999C339.616 89.2665 338.616 86.5999 336.749 83.5999C334.883 80.7999 332.716 78.2165 330.249 75.8499C328.249 74.1832 326.616 73.1499 325.349 72.7499C324.449 72.3832 323.499 72.2165 322.499 72.2499C321.466 72.3165 320.549 72.5999 319.749 73.0999C318.405 74.1316 317.621 75.5816 317.399 77.4499C317.583 78.8049 317.967 80.0883 318.549 81.2999C319.21 83.3445 320.326 85.4612 321.899 87.6499C322.26 88.1125 322.627 88.5958 322.999 89.0999C324.966 91.7332 326.649 93.6332 328.049 94.7999C330.183 96.6332 332.366 97.5665 334.599 97.5999C335.833 97.7665 336.966 97.5165 337.999 96.8499C338.366 96.5966 338.683 96.2799 338.949 95.8999Z" fill="#32B67C" />
  <path d="M244.5 33.2999C244.86 32.8016 245.16 32.2849 245.4 31.7499C246.033 30.2499 246.183 28.8665 245.85 27.5999C245.016 24.4665 241.933 22.6332 236.6 22.0999C226.893 20.8947 217.393 22.178 208.1 25.9499C200.348 29.05 194.181 33.65 189.6 39.7499C188.2 41.5832 187.266 43.3332 186.8 44.9999C186.2 47.0999 186.383 48.9332 187.35 50.4999C187.536 50.7878 187.736 51.0544 187.95 51.2999C188.035 50.4728 188.219 49.6561 188.5 48.8499C189.333 46.4832 191.083 44.1165 193.75 41.7499C198.116 37.4832 203.333 33.9499 209.4 31.1499C214.933 28.5832 221 26.6999 227.6 25.4999C231.566 24.6999 234.816 24.6499 237.35 25.3499C238.983 25.7499 240.433 26.4999 241.7 27.5999C243.066 28.7665 243.95 30.0999 244.35 31.5999C244.492 32.1793 244.542 32.746 244.5 33.2999ZM338 81.9999C336.637 79.5621 335.387 77.5454 334.25 75.9499C333.968 75.5464 333.685 75.163 333.4 74.7999C331.433 72.3332 329.333 70.4832 327.1 69.2499C325.666 68.4165 324.183 67.9999 322.65 67.9999C320.916 67.9665 319.616 68.4999 318.75 69.5999C318.283 70.1665 317.866 71.1665 317.5 72.5999C317.205 74.3087 317.172 75.9254 317.4 77.4499C317.622 75.5816 318.405 74.1316 319.75 73.0999C320.55 72.5999 321.466 72.3165 322.5 72.2499C323.5 72.2165 324.45 72.3832 325.35 72.7499C326.616 73.1499 328.25 74.1832 330.25 75.8499C332.716 78.2165 334.883 80.7999 336.75 83.5999C338.616 86.5999 339.616 89.2665 339.75 91.5999C339.776 92.9694 339.509 94.4027 338.95 95.8999C339.448 95.2715 339.831 94.4715 340.1 93.4999C340.766 91.4332 340.85 89.3832 340.35 87.3499C339.916 85.7832 339.133 83.9999 338 81.9999Z" fill="#055F38" />
  <path d="M264.2 109.45C279.5 89.6499 283.817 71.2833 277.15 54.3499C270.517 37.3833 254.85 26.8499 230.15 22.7499C205.45 18.6499 178.95 22.1499 150.65 33.2499C122.35 44.3833 100.55 59.8333 85.2499 79.5999C69.9832 99.4333 65.6666 117.833 72.2999 134.8C78.9666 151.733 94.6332 162.233 119.3 166.3C144 170.467 170.5 166.983 198.8 155.85C227.1 144.75 248.9 129.283 264.2 109.45Z" fill="url(#paint3_linear_443_7957)" />
  <path d="M221.992 86.4562C231.324 74.3797 233.957 63.1774 229.891 52.8494C225.845 42.501 216.289 36.0764 201.224 33.5758C186.159 31.0751 169.996 33.2098 152.735 39.98C135.474 46.7705 122.178 56.1938 112.846 68.25C103.535 80.3468 100.902 91.5694 104.948 101.918C109.014 112.246 118.569 118.65 133.614 121.13C148.679 123.672 164.842 121.547 182.103 114.757C199.364 107.987 212.66 98.553 221.992 86.4562Z" fill="url(#paint4_linear_443_7957)" />
  <defs>
    <linearGradient id="paint0_linear_443_7957" x1="249" y1="249" x2="249" y2="903" gradientUnits="userSpaceOnUse">
      <stop />
      <stop offset="1" stop-opacity="0" />
    </linearGradient>
    <radialGradient id="paint1_radial_443_7957" cx="0" cy="0" r="1" gradientUnits="userSpaceOnUse" gradientTransform="translate(250 375) scale(369.95 374.45)">
      <stop offset="0.686275" stop-color="#0D0E11" />
      <stop offset="1" stop-color="#65D2B0" />
    </radialGradient>
    <linearGradient id="paint2_linear_443_7957" x1="498.3" y1="-417.25" x2="368.9" y2="473.85" gradientUnits="userSpaceOnUse">
      <stop stop-color="white" stop-opacity="0.6" />
      <stop offset="1" stop-color="white" stop-opacity="0" />
    </linearGradient>
    <linearGradient id="paint3_linear_443_7957" x1="33.9999" y1="-237.6" x2="215" y2="183.1" gradientUnits="userSpaceOnUse">
      <stop stop-color="white" stop-opacity="0.6" />
      <stop offset="1" stop-color="white" stop-opacity="0" />
    </linearGradient>
    <linearGradient id="paint4_linear_443_7957" x1="81.5646" y1="-125.18" x2="191.946" y2="131.4" gradientUnits="userSpaceOnUse">
      <stop stop-color="white" stop-opacity="0.6" />
      <stop offset="1" stop-color="white" stop-opacity="0" />
    </linearGradient>
  </defs>
</svg>